<svg xmlns="http://www.w3.org/2000/svg" width="201" height="135.003" viewBox="0 0 201 135.003">
  <g id="Group_4110" data-name="Group 4110" transform="translate(-983.5 -410.593)">
    <path id="Path_5405" data-name="Path 5405" d="M18308.578,9543.521a3.5,3.5,0,0,1,.994-4.845l22.879-15.1a9.974,9.974,0,0,1-1.711-5.6v-93.933a10.1,10.1,0,0,1,10.127-10.062h121.539a10.1,10.1,0,0,1,10.127,10.062v3.359h3.377a10.3,10.3,0,0,1,2,.2l25.662-16.933a3.5,3.5,0,1,1,3.855,5.844l-23.156,15.278a9.971,9.971,0,0,1,1.766,5.677v64.313a10.024,10.024,0,0,1-2.969,7.116l-29.8,29.614a10.14,10.14,0,0,1-7.158,2.949h-91.734a10.133,10.133,0,0,1-7.158-2.949,10.016,10.016,0,0,1-2.969-7.112v-3.354h-3.377a10.212,10.212,0,0,1-2.139-.226l-25.3,16.692a3.458,3.458,0,0,1-1.924.581A3.5,3.5,0,0,1,18308.578,9543.521ZM18351,9531.4a3.315,3.315,0,0,0,.99,2.369,3.368,3.368,0,0,0,2.383.984h91.154v-23.481a10.024,10.024,0,0,1,2.969-7.116,10.146,10.146,0,0,1,7.158-2.945h23.635V9437.47a3.323,3.323,0,0,0-.641-1.965l-18.213,12.017h1.973a3.377,3.377,0,0,1,0,6.755H18450.2l-10.1,6.661h22.307a3.375,3.375,0,0,1,0,6.749H18435.4a3.373,3.373,0,0,1-2.937-1.708l-12.693,8.374h42.639a3.375,3.375,0,1,1,0,6.75h-52.869l-10.1,6.661h62.965a3.375,3.375,0,1,1,0,6.75h-73.2l-10.1,6.666h56.289a3.375,3.375,0,0,1,0,6.749h-66.52l-17.881,11.8Zm102.266-22.5a3.362,3.362,0,0,0-.984,2.374v18.739l22.232-22.093h-18.859A3.394,3.394,0,0,0,18453.264,9508.9Zm-115.77-84.846v93.928a3.337,3.337,0,0,0,.584,1.886l6.166-4.068V9437.47a10.1,10.1,0,0,1,10.127-10.062h111.412v-3.354a3.37,3.37,0,0,0-3.377-3.358h-121.533A3.371,3.371,0,0,0,18337.494,9424.054Zm13.5,13.416v73.872l25.506-16.828h-8.625a3.375,3.375,0,1,1,0-6.75h18.854l30.428-20.077h-8.77a3.375,3.375,0,1,1,0-6.749h13.5a3.369,3.369,0,0,1,2.926,1.7l12.666-8.356h-29.1a3.377,3.377,0,0,1,0-6.755h39.332l20.318-13.406h-113.67A3.367,3.367,0,0,0,18351,9437.47Zm16.881,83.875a3.375,3.375,0,1,1,0-6.75h67.52a3.375,3.375,0,0,1,0,6.75Zm6.75-40.126a10.128,10.128,0,0,1-10.127-10.127v-13.5a10.128,10.128,0,0,1,10.127-10.131h13.5a10.124,10.124,0,0,1,10.127,10.131v13.5a10.124,10.124,0,0,1-10.127,10.127Zm-3.377-23.631v13.5a3.379,3.379,0,0,0,3.377,3.377h13.5a3.379,3.379,0,0,0,3.377-3.377v-13.5a3.377,3.377,0,0,0-3.377-3.377h-13.5A3.377,3.377,0,0,0,18371.252,9457.588Z" transform="translate(-17324.5 -8999.5)" fill="#eaeaea"/>
  </g>
</svg>
