<svg xmlns="http://www.w3.org/2000/svg" xmlns:xlink="http://www.w3.org/1999/xlink" width="294" height="372.138" viewBox="0 0 294 372.138">
  <defs>
    <linearGradient id="linear-gradient" x1="0.476" y1="0.282" x2="0.452" y2="1.149" gradientUnits="objectBoundingBox">
      <stop offset="0" stop-color="#51b05f"/>
      <stop offset="1" stop-color="#34775b"/>
    </linearGradient>
  </defs>
  <g id="Group_3192" data-name="Group 3192" transform="translate(-1596 -1363.862)">
    <g id="Group_3188" data-name="Group 3188" transform="translate(3009.875 12429.359)">
      <path id="Path_3780" data-name="Path 3780" d="M1119.785,1326.508l8.043-49.551-47.171-12.437s-2.2,22.213-2.2,22.542c0,10.9-.656,24.962-1.512,39.445Z" transform="translate(-2363.79 -12107.869)" fill="#263238"/>
      <path id="Path_3781" data-name="Path 3781" d="M1172.322,1333.819l-2.416-21.288-3.638-21.055L1108.81,1275l-1.3,24.717,11.351,34.1Z" transform="translate(-2385.109 -12115.18)" fill="#153a56"/>
      <path id="Path_3810" data-name="Path 3810" d="M1131.983,899.11s24.033,2.543,30.4,9.265l-12.262,62.039a65.5,65.5,0,0,0-1.209,14.269c.3,12.963.819,39.914-.191,48.683-2.8,24.266-65.8.962-75.135-2.25,0,0,14.009-108.031,23.586-124.659,3.2-5.54,17.759-5.766,17.759-5.766Z" transform="translate(-2361.446 -11852.952)" fill="url(#linear-gradient)"/>
      <path id="Path_3811" data-name="Path 3811" d="M890.777,739.632c.886-1.875,8.787,3.677,10.538,2.622s-7.079-9.96-6.178-11.515c1.66-2.867,10.281,9.153,11.119,7.883s-7.423-14.1-4.469-14.817,7.185,14.212,8.7,13.244-5.183-13.51-2.325-16.068c1.527-1.367,8.73,22.9,11.342,23.909s5.555-9.588,8.013-9.171-8.064,19.488-7.559,20.976,10.151,32.621,15.836,42.031c3.423-1.636,6.758-3.281,9.936-4.886,1.279,7.221,4.233,13.528,5.9,20.616-11.037,4.838-23.688,9.676-26.894,8.467-9.749-3.577-14.563-50.951-16.129-59.793s-5.745-10.583-8.119-15.225S889.891,741.51,890.777,739.632Z" transform="matrix(0.951, -0.309, 0.309, 0.951, -2429.009, -11385.781)" fill="#fec79f"/>
      <path id="Path_3812" data-name="Path 3812" d="M1092.765,911.541l12.707,18.4s-20.335,13.71-38.638,21.75c-1.678-7.088-5.815-18.2-7.094-25.421C1074.862,918.641,1092.765,911.541,1092.765,911.541Z" transform="translate(-2602.251 -11430.089) rotate(-20)" fill="#51b05f"/>
      <path id="Path_3815" data-name="Path 3815" d="M1221.694,822.57,1225.1,845.3s-12.449,27.066-19.882,24.72c-6.235-1.972-2.4-25.92-2.4-25.92s3.4-12.86,2.38-19.3S1221.694,822.57,1221.694,822.57Z" transform="translate(-2450.788 -11798.616)" fill="#fec79f"/>
      <path id="Path_3816" data-name="Path 3816" d="M1212.423,824.808c-1.106-6.435,17.9-2.235,17.9-2.235l.308,1.884a10.374,10.374,0,0,1-2.061,3.169c-4.247,4.26-11.126,6.788-16.863,6.982C1212.279,831.136,1212.875,827.447,1212.423,824.808Z" transform="translate(-2459.439 -11789.619)" fill="#f47458"/>
      <path id="Path_3817" data-name="Path 3817" d="M1208.443,702.942c.5-.184,3.967,25.89-2.622,33.062s-19.425,9.522-24.027,3.87c-5.095-6.247-4.838-34.269,5.4-41.65S1208.443,702.942,1208.443,702.942Z" transform="translate(-2434.664 -11702.146)" fill="#fec79f"/>
      <path id="Path_3818" data-name="Path 3818" d="M1199.535,657.238a28.382,28.382,0,0,1,14.932,8.615c3.6.429,8.467,2.44,13.525,10.886,6.2,10.393,1.624,21.91-5.6,27.559s-7.151,12.219-7.151,12.219l-1.122-3.408a19.085,19.085,0,0,1-.907-7.953,15.678,15.678,0,0,1,1.17-4.781c1.736-3.774-3.731-6.28-5.264-9.419-1.182-2.419-1.24-7.947-3.1-11.944l-2.223-3.048s-5.141-4.037-10.139-2.9S1189.377,655.143,1199.535,657.238Z" transform="translate(-2443.101 -11675.105)" fill="#263238"/>
      <path id="Path_3819" data-name="Path 3819" d="M1252.9,771.309c-.051,3.181,1.376,5.787,3.193,5.818s3.326-2.522,3.381-5.7-1.379-5.785-3.193-5.815S1252.948,768.128,1252.9,771.309Z" transform="translate(-2486.533 -11750.819)" fill="#f7a491"/>
      <path id="Path_3820" data-name="Path 3820" d="M1190.241,812l8.6,1.784a3.84,3.84,0,0,1-4.681,2.552C1189.537,815.511,1190.241,812,1190.241,812Z" transform="translate(-2442.797 -11783.183)" fill="#fff"/>
      <path id="Union_39" data-name="Union 39" d="M1742.634-1747.154a71.2,71.2,0,0,1-24.215,4.126c-29.539,0-53.485-17.087-53.485-38.166s23.946-38.166,53.485-38.166,53.485,17.087,53.485,38.166c0,12.22-8.049,23.1-20.569,30.084l8.063,10.847Z" transform="translate(-3038.206 -9245.638)" fill="#fff" stroke="rgba(38,50,56,0.75)" stroke-width="1"/>
      <text id="HELLO" transform="translate(-1357.24 -11018.998)" font-size="25" font-family="Poppins-SemiBold, Poppins" font-weight="600"><tspan x="7" y="0">HEY!</tspan></text>
      <path id="e_копия_5" data-name="e копия 5" d="M4.141,5.148l.951.929L9.161,2.124,8.725,1.6A5.009,5.009,0,0,0,5.109.142,4.982,4.982,0,0,0,1.5,1.6,4.747,4.747,0,0,0,0,5.122,4.746,4.746,0,0,0,1.489,8.649,4.982,4.982,0,0,0,5.1,10.111,4.992,4.992,0,0,0,8.717,8.649,4.721,4.721,0,0,0,10.21,5.175l-1.217,0A3.607,3.607,0,0,1,7.811,7.818a3.771,3.771,0,0,1-2.734,1.1A3.767,3.767,0,0,1,2.346,7.813,3.578,3.578,0,0,1,1.218,5.156,3.593,3.593,0,0,1,2.352,2.489a3.77,3.77,0,0,1,2.733-1.1A3.761,3.761,0,0,1,7.3,2.067Z" transform="translate(-1239.725 -10917.426) rotate(9)" fill="#fff"/>
      <path id="e_копия_5-2" data-name="e копия 5" d="M22.874,5.148l.951.929,4.069-3.953L27.457,1.6a5.211,5.211,0,0,0-7.228,0,4.746,4.746,0,0,0-1.5,3.524,4.745,4.745,0,0,0,1.491,3.527,5.2,5.2,0,0,0,7.228,0,4.722,4.722,0,0,0,1.493-3.474l-1.217,0a3.607,3.607,0,0,1-1.182,2.641,3.933,3.933,0,0,1-5.465,0,3.579,3.579,0,0,1-1.128-2.657,3.593,3.593,0,0,1,1.134-2.667,3.948,3.948,0,0,1,4.95-.422Z" transform="translate(-1249.317 -10918.945) rotate(9)" fill="#263238"/>
    </g>
    <path id="Path_3729" data-name="Path 3729" d="M3.881,0H290.119A3.7,3.7,0,0,1,294,3.479V163.521A3.7,3.7,0,0,1,290.119,167H3.881A3.7,3.7,0,0,1,0,163.521V3.479A3.7,3.7,0,0,1,3.881,0Z" transform="translate(1596 1569)" fill="#263238"/>
    <path id="Path_3813" data-name="Path 3813" d="M1450.285,805.653c-.886,1.875-3.117-10.395-4.868-9.339s4.053,11.552,3.152,13.106c-1.66,2.867-6.1-11.039-6.936-9.769s7.423,14.1,4.469,14.817-7.185-14.212-8.7-13.244,5.183,13.51,2.325,16.069c-1.1.994-4.182-10.786-6.895-17.962-.871-2.306-.1.1-1.773,8.532-8.792-4.338-2.623-24.8-3.128-26.284s-8.161-23.388-13.849-32.8c-3.423,1.636-26.994,14.471-30.172,16.077-1.279-7.221-9-11.6-10.682-18.688,11.037-4.838,48.707-22.784,51.913-21.6,9.761,3.592,12.584,41.734,14.151,50.575s4.678,11.291,7.048,15.932S1451.171,803.769,1450.285,805.653Z" transform="translate(2315.03 14.24) rotate(80)" fill="#fec79f"/>
    <path id="Path_3814" data-name="Path 3814" d="M1326.255,914.426l-12.122,25.644s2.746,3.97,12.972,16.867c1.678-7.088,19.086-12.1,20.362-19.323C1336.008,921.309,1326.255,914.426,1326.255,914.426Z" transform="translate(484.043 570.143)" fill="#51b05f"/>
  </g>
</svg>
