<svg id="Component_83_1" data-name="Component 83 – 1" xmlns="http://www.w3.org/2000/svg" width="43.614" height="51.361" viewBox="0 0 43.614 51.361">
  <path id="Exclusion_1" data-name="Exclusion 1" d="M4699.562,10661.361a6.7,6.7,0,0,1-2.643-.513c-.311-.136-2.245-1.276-4.139-2.442l-.562-.344c-3.359-2.059-3.359-2.059-3.162-2.6l.011-.03.02-.057a3.252,3.252,0,0,1,.415-.763c.269-.366.3-.393.939-.717a1.857,1.857,0,0,1,1.137-.343,3.724,3.724,0,0,1,.955.145l.463.15-1.265-2.483c.4-.167.794-.344,1.166-.525h0c-.018-.033-.035-.067-.052-.1l-.052-.1-.287-.564c-2.19-4.309-2.19-4.309-2-4.581l.019-.026a.649.649,0,0,1,.56-.284.663.663,0,0,1,.339.121c.105.079.647,1.1,2.229,4.2l.255.5.125.245c-.369.208-.749.407-1.13.593h0c1.749,3.437,2.282,4.524,2.285,4.654a.693.693,0,0,1-.337.567.476.476,0,0,1-.219.056,3.273,3.273,0,0,1-1.261-.557,10.976,10.976,0,0,0-1.287-.655,1.387,1.387,0,0,0-.416-.064,1.415,1.415,0,0,0-.646.161c-.246.125-.539.37-.549.46a.026.026,0,0,0,.008.023c.021.017,1.519.94,3.323,2.047,3.167,1.944,3.319,2.029,4.056,2.27a4.915,4.915,0,0,0,1.609.291,5.8,5.8,0,0,0,.836-.066,3.228,3.228,0,0,0,1.375-.466,3.852,3.852,0,0,0,1.565-1.19,5.65,5.65,0,0,0,.969-4.607,11.143,11.143,0,0,0-1.207-2.74c-1.186-2.4-1.246-2.488-1.589-2.488h-.057a.592.592,0,0,0-.53.279c-.173.245-.128.46.252,1.212s.428.979.23,1.223a.6.6,0,0,1-.511.26h-.049c-.307,0-.43-.166-1.1-1.478s-.792-1.48-1.1-1.48h-.049a.606.606,0,0,0-.53.283c-.193.275-.148.425.54,1.774s.731,1.5.538,1.776a.618.618,0,0,1-.559.283c-.353,0-.405-.081-1.408-2.047-.5-.981-.756-1.473-.934-1.738a21.566,21.566,0,0,0,1.868-1.528,1.807,1.807,0,0,1,.528-.08,1.78,1.78,0,0,1,1.08.374c.161.122.243.18.306.18.042,0,.076-.024.127-.072a2.726,2.726,0,0,1,.5-.3,1.858,1.858,0,0,1,.834-.2,1.826,1.826,0,0,1,1.1.381l.324.243,1.105,2.125c.69,1.332,1.169,2.315,1.281,2.63a6.558,6.558,0,0,1-1.651,7.24,7.282,7.282,0,0,1-2.614,1.341A6.222,6.222,0,0,1,4699.562,10661.361Zm-3.329-7.526a.559.559,0,0,1-.357-.125,38.009,38.009,0,0,1-1.846-3.459c.369-.208.746-.435,1.118-.675.136.325.378.8.795,1.622,1,1.972,1.036,2.06.833,2.349A.668.668,0,0,1,4696.232,10653.835ZM4683.5,10653a21.518,21.518,0,1,1,14.519-5.643,1.959,1.959,0,0,0-.313.126,2.67,2.67,0,0,0-.5.3c-.052.048-.086.072-.127.072-.063,0-.146-.058-.306-.18a1.841,1.841,0,0,0-1.114-.373,1.981,1.981,0,0,0-.719.138,1.822,1.822,0,0,0-.492.286l-.182.163-.875-1.675c-.834-1.59-.9-1.7-1.132-1.881a1.978,1.978,0,0,0-1.217-.416,1.9,1.9,0,0,0-1.876,1.591v.008c-.1.627-.1.627,1.938,4.618l.017.032.614,1.2A21.373,21.373,0,0,1,4683.5,10653Zm11.647-3.425v0c-.2-.473-.145-.573-.013-.739a.607.607,0,0,1,.541-.259c.187,0,.289.032.476.311-.329.24-.666.472-1,.688Z" transform="translate(-4662.001 -10610)" fill="#52a359"/>
  <g id="subscribe" transform="translate(8.999 519.717)">
    <path id="Path_3858" data-name="Path 3858" d="M11.238-511.6c-1.089.392-1.546,1.089-1.618,2.531l-.048.865-.6.224A8.538,8.538,0,0,0,5.8-505.94a8.416,8.416,0,0,0-2.067,3.252c-.473,1.306-.465,1.242-.521,6.608l-.048,4.966-.224.457a2.331,2.331,0,0,1-1.874,1.314,3.073,3.073,0,0,0-.609.128.835.835,0,0,0-.457.7.87.87,0,0,0,.441.7,39.954,39.954,0,0,0,4.678.1H9.6l.032.7a2.4,2.4,0,0,0,1.418,2.291,2.783,2.783,0,0,0,1.938,0A2.4,2.4,0,0,0,14.4-487l.032-.7h4.478a39.954,39.954,0,0,0,4.678-.1.87.87,0,0,0,.441-.7.835.835,0,0,0-.457-.7,3.073,3.073,0,0,0-.609-.128,2.331,2.331,0,0,1-1.874-1.314l-.224-.457-.048-4.966c-.056-5.463-.04-5.335-.577-6.768a8.9,8.9,0,0,0-5.086-5.094l-.7-.264-.048-.865a2.625,2.625,0,0,0-.625-1.89A2.507,2.507,0,0,0,11.238-511.6Zm1.169,1.57c.288.152.409.441.409,1.009v.481h-1.6v-.5c.008-.545.12-.825.409-.985A.8.8,0,0,1,12.407-510.025Zm1.41,3.332a7.313,7.313,0,0,1,5.19,5.19c.16.585.168.809.2,4.8l.024,4.189H4.8l.024-4.189c.032-4.029.04-4.205.208-4.822a7.3,7.3,0,0,1,5.687-5.287A8.427,8.427,0,0,1,13.817-506.693Zm5.615,16.22a3.857,3.857,0,0,0,.36.8l.232.36H4l.232-.36a3.857,3.857,0,0,0,.36-.8l.144-.441H19.288Z" fill="#fff"/>
    <path id="Path_3859" data-name="Path 3859" d="M6.506-497.7A12.053,12.053,0,0,0,.17-487.843c-.064.929.016,1.234.376,1.418a.749.749,0,0,0,.785.008c.28-.152.409-.441.409-.945a11.241,11.241,0,0,1,.529-2.932,10.541,10.541,0,0,1,5.038-6.016c.681-.36.873-.593.817-1A.74.74,0,0,0,7.363-498,2.3,2.3,0,0,0,6.506-497.7Z" transform="translate(-0.138 -12.618)" fill="#fff"/>
    <path id="Path_3860" data-name="Path 3860" d="M200.423-497.7a.828.828,0,0,0-.176.977,2.584,2.584,0,0,0,.673.489,10.635,10.635,0,0,1,5.1,6.048,11.826,11.826,0,0,1,.529,2.948c0,.5.128.793.409.945a.787.787,0,0,0,1.113-.368,10.233,10.233,0,0,0-.561-4.181,12.394,12.394,0,0,0-4.678-6.1C201.457-497.861,200.832-498.053,200.423-497.7Z" transform="translate(-184.123 -12.741)" fill="#fff"/>
  </g>
</svg>
