<svg xmlns="http://www.w3.org/2000/svg" width="25" height="25.002" viewBox="0 0 25 25.002">
  <g id="Icon_feather-check-circle" data-name="Icon feather-check-circle" transform="translate(-1.5 -1.49)">
    <path id="Path_4375" data-name="Path 4375" d="M14,26.492q-.233,0-.466-.009a12.5,12.5,0,1,1,5.552-23.91,1.136,1.136,0,1,1-.925,2.076A10.227,10.227,0,0,0,5.42,19.558,10.227,10.227,0,0,0,24.227,14V12.952a1.136,1.136,0,1,1,2.273,0V14A12.5,12.5,0,0,1,14,26.492Z" transform="translate(0)" fill="#52a359"/>
    <path id="Path_4376" data-name="Path 4376" d="M16.7,18.6a1.174,1.174,0,0,1-.83-.344l-3.523-3.523A1.174,1.174,0,1,1,14,13.075L16.7,15.767,27.609,4.844A1.174,1.174,0,0,1,29.27,6.5L17.528,18.258a1.174,1.174,0,0,1-.83.344Z" transform="translate(-3.114 -0.654)" fill="#52a359"/>
  </g>
</svg>
