<svg class="invitation-dialog__pic" xmlns="http://www.w3.org/2000/svg" width="269.091" height="141.093"><defs><style>.c{fill:#ebeef0}.d{fill:#a2a7a7}</style></defs><path d="M132.885 141.092h-.025c-1.022-.017-17.835-.338-32.535-3.506-15.167-3.269-19.333-7.965-19.333-7.965v-16.1s.541-9.739 11.357-14.88 25.943-16.346 40.536-16.23c14.594-.116 29.726 11.1 40.536 16.233s11.357 14.88 11.357 14.88v16.1s-4.166 4.7-19.334 7.965c-14.7 3.168-31.513 3.489-32.535 3.506h-.025z" fill="#48b565"/><path d="M132.885 141.093h-.025c-1.022-.016-17.835-.338-32.535-3.506-13.237-2.854-18.095-6.795-19.117-7.751 2.191.8 21.64 7.54 51.655 7.54 29.556 0 48.965-6.539 51.656-7.5-1.111 1.022-6.015 4.9-19.074 7.71-14.7 3.168-31.512 3.489-32.535 3.506h-.025zm-23.114-51.819c7.364-3.752 15.316-6.925 23.114-6.863 7.464-.06 15.07 2.845 22.166 6.384-.354 11.157-10.36 20.1-22.651 20.1-12.114.002-22.009-8.684-22.629-19.621z" fill="#419a4e"/><path class="c" d="M114.237 87.153c1.761-1.243 2.12-5.99 2.12-5.99V64.472h33.351v16.691s.352 4.972 2.113 6.214c.176.355-.865 16.5-18.705 16.414h-.263c-17.704 0-18.791-16.284-18.616-16.638z"/><path class="d" d="M116.358 80.885V67.572a15.3 15.3 0 0 1 2.427-3.1h28.459a15.283 15.283 0 0 1 2.464 3.166v13.184c-2.982 5.13-9.336 8.672-16.693 8.672-7.328.001-13.657-3.513-16.657-8.609z"/><path class="c" d="M103.815 55.883a3.168 3.168 0 0 1-.356.118c-2.221.594-4.665-1.323-5.459-4.285s.364-5.844 2.585-6.439a3.639 3.639 0 0 1 3.048.648c1.818-17.155 14.486-30.442 29.844-30.442 15.215 0 27.79 13.039 29.79 29.962a3.381 3.381 0 0 1 2.177-.168c2.221.594 3.378 3.478 2.584 6.439-.73 2.724-2.856 4.564-4.92 4.38-2.435 16.34-14.775 28.773-29.631 28.773-14.921 0-27.303-12.541-29.662-28.986z"/><path class="d" d="M106.985 51.737l-2.59-29.683s42.2-19.3 42.523-13.069c-.054 0 23.651-.748 19.765 35.037.047.005 0 1.987 0 1.987a7 7 0 0 0-6.341 5.727c-.041.083-1.256-15.782-1.256-15.782s-10.417-4.585-12.168-13.9c-.1.118-20.068 12.345-38.609 14.7"/><path d="M106.989 51.805s-2.191-8.7-7.209-6.193c0 .032-10.535-47.374 43.868-45.561 0 .518 2.946.858 3.269 7.084-.054 0 24.45 2.692 20.564 38.477a7.163 7.163 0 0 1-.121.994s-6.191-.147-7.223 5.3c-.042.083 0-17 0-17s-11.47-3.655-13.221-12.971c-.1.118-21.385 10.613-39.927 12.971" fill="#404648"/><path d="M146.898 7.133c.134-.062-.644-6.548-3.328-7.085s-.09 10.367 2.594 15.321c-.04-.041-2-8.711.734-8.236z" fill="#090a0a"/><g><path class="c" d="M10.852 67.326h62.4l16.279 16.279V26.629a10.884 10.884 0 0 0-10.85-10.852H10.852A10.884 10.884 0 0 0 0 26.629v29.848a10.884 10.884 0 0 0 10.852 10.849z"/><text transform="translate(43.173 42.657)" font-family="Poppins-Bold,Poppins" font-weight="700" font-size="24" letter-spacing=".243em"><tspan x="-14.328" y="0">...</tspan></text></g><g><path class="c" d="M261.882 83.579H220.43l-10.813 10.814V56.546a7.23 7.23 0 0 1 7.209-7.209h45.056a7.23 7.23 0 0 1 7.209 7.209V76.37a7.23 7.23 0 0 1-7.209 7.209z"/><text transform="matrix(-1 0 0 1 240.942 67.858)" font-size="15" letter-spacing=".394em" font-family="Poppins-Bold,Poppins" font-weight="700" fill="#a2a7a7"><tspan x="-11.22" y="0">...</tspan></text></g></svg>