<svg viewBox="0 0 375 54" xmlns="http://www.w3.org/2000/svg">
  <g _ngcontent-c2="" data-name="Artboard 1" id="Artboard_1">
    <g _ngcontent-c2="" id="logo">
      <path _ngcontent-c2="" class="cls-2"
            d="M503.86,90.482V89.905a11.183,11.183,0,0,1,3.451-8.221,12.092,12.092,0,0,1,8.853-3.639,11.744,11.744,0,0,1,8.667,3.5,12.071,12.071,0,0,1,3.44,8.838l-0.01,16.445h4.352l0.011-16.445a15.8,15.8,0,0,0-4.835-11.633,16.619,16.619,0,0,0-23.378-.028c-0.169.169-.339,0.349-0.508,0.54l0-5.266h-4.352l-0.022,32.817,4.353,0Zm57.867-8.773a12.356,12.356,0,0,1-.011,17.563,12.575,12.575,0,0,1-17.7-.008,12.358,12.358,0,0,1,.012-17.563A12.575,12.575,0,0,1,561.727,81.709Zm3.393,25.138h4.353L569.5,63.356l-4.353,0-0.011,15.94q-0.253-.289-0.471-0.541a16.664,16.664,0,0,0-23.414.007,16.388,16.388,0,0,0-.015,23.261,16.619,16.619,0,0,0,23.414-.007c0.145-.145.3-0.312,0.472-0.5Zm22.5-16.363L590.7,93.55,603.879,80.5l-1.414-1.732a16.664,16.664,0,0,0-23.414.008,16.388,16.388,0,0,0-.015,23.261,16.617,16.617,0,0,0,23.414-.008,15.717,15.717,0,0,0,4.832-11.466h-4.1a11.871,11.871,0,0,1-3.669,8.725,12.575,12.575,0,0,1-17.7-.007,12.358,12.358,0,0,1,.011-17.564,12.61,12.61,0,0,1,16.034-1.4ZM624.15,90.5l3.081,3.066,13.176-13.048-1.414-1.733a16.662,16.662,0,0,0-23.414.008,16.387,16.387,0,0,0-.015,23.26,16.621,16.621,0,0,0,23.414-.007,15.717,15.717,0,0,0,4.832-11.466l-4.1,0a11.876,11.876,0,0,1-3.669,8.727,12.574,12.574,0,0,1-17.7-.008,12.358,12.358,0,0,1,.012-17.563,12.607,12.607,0,0,1,16.033-1.4ZM681.1,106.9l0.011-16.588a12.038,12.038,0,0,1,3.56-8.744,11.765,11.765,0,0,1,8.744-3.62,11.564,11.564,0,0,1,8.7,3.683,12.373,12.373,0,0,1,3.549,8.765l-0.011,16.517h4.353l0.011-16.445a15.8,15.8,0,0,0-4.835-11.632,16.62,16.62,0,0,0-23.378-.029,17.887,17.887,0,0,0-2.832,3.6,17.454,17.454,0,0,0-2.754-3.607,16.664,16.664,0,0,0-23.4-.011q-0.255.251-.508,0.541l0-5.265-4.353,0-0.021,32.818,4.353,0L652.271,90.55V89.972a11.185,11.185,0,0,1,3.451-8.221,12.1,12.1,0,0,1,8.853-3.638,11.736,11.736,0,0,1,8.667,3.5,12.073,12.073,0,0,1,3.44,8.837L676.672,106.9ZM739.225,81.79a12.356,12.356,0,0,1-.011,17.562,12.575,12.575,0,0,1-17.7-.008,12.356,12.356,0,0,1,.011-17.563A12.575,12.575,0,0,1,739.225,81.79Zm3.415-7.752,0,5.338q-0.255-.289-0.471-0.541a16.663,16.663,0,0,0-23.415.007,16.388,16.388,0,0,0-.015,23.261,16.617,16.617,0,0,0,23.414-.008c0.145-.144.3-0.311,0.472-0.5l0,5.337,4.353,0,0.021-32.89ZM487.58,55v51.989h4.6L492.22,55h-4.64Z"
            id="indeema" transform="translate(-373 -54)" fill="#fff" fill-rule="evenodd"></path>
      <path _ngcontent-c2="" class="cls-2"
            d="M394.828,81.1l4.783,4.781,20.468-20.327-2.194-2.7a25.807,25.807,0,0,0-36.358,0,25.6,25.6,0,0,0-.039,36.248A25.689,25.689,0,0,0,425.357,81.24l-6.123.015a19.709,19.709,0,1,1-8.5-15.99Z"
            data-name="e копия 5" id="e_копия_5" transform="translate(-373 -54)" fill="#fff" fill-rule="evenodd"></path>
      <path _ngcontent-c2="" class="cls-1"
            d="M440.2,81.1l4.783,4.781,20.467-20.327-2.194-2.7a25.807,25.807,0,0,0-36.358,0,25.6,25.6,0,0,0-.038,36.248A25.689,25.689,0,0,0,470.729,81.24l-6.123.015a19.709,19.709,0,1,1-8.5-15.99Z"
            data-name="e копия 5" id="e_копия_5-2" transform="translate(-373 -54)" fill="#4db05b" fill-rule="evenodd"></path>
    </g>
  </g>
</svg>
