<svg xmlns="http://www.w3.org/2000/svg" width="204.763" height="30" viewBox="0 0 204.763 30">
  <g id="Group_199" data-name="Group 199" transform="translate(-0.5 -0.5)">
    <path id="Path_3888" data-name="Path 3888" d="M12.614,15.565l9.258-9.187A11.316,11.316,0,0,0,7.6,7.707a11.065,11.065,0,0,0-.017,15.737h0a10.842,10.842,0,0,0,7.935,3.268h0a11.438,11.438,0,0,0,7.921-3.239A11.7,11.7,0,0,0,26.9,15.535h3.6a14.669,14.669,0,0,1-.923,5.791A14.338,14.338,0,0,1,26.287,26.1a15.18,15.18,0,0,1-21.374,0A14.407,14.407,0,0,1,.5,15.484a14.415,14.415,0,0,1,4.436-10.6,15.22,15.22,0,0,1,21.375,0l1.354,1.658L15.567,18.5Z" transform="translate(0)" fill="#263238" fill-rule="evenodd"/>
    <path id="Path_3889" data-name="Path 3889" d="M127.092,15.566l9.2-9.183a11.133,11.133,0,1,0-2.053,19.505,11.277,11.277,0,0,0,5.042-4.061,11.761,11.761,0,0,0,2-6.293l3.777-.01a14.98,14.98,0,0,1-1.12,5.8,14.341,14.341,0,0,1-3.266,4.775,15,15,0,0,1-21.23,0,14.462,14.462,0,0,1-4.381-10.615,14.465,14.465,0,0,1,4.407-10.6,15.044,15.044,0,0,1,21.231,0l1.344,1.658L130.026,18.506Z" transform="translate(-88.264)" fill="#51b05f" fill-rule="evenodd"/>
    <path id="Path_3890" data-name="Path 3890" d="M328.278,70.482H331.4v-10.3c0-5.007-3.369-7.494-7.78-7.494a7.245,7.245,0,0,0-6.113,2.806V53.005H314.35V70.482h3.161V60.819c0-3.763,2.223-5.613,5.453-5.613,3.2,0,5.314,1.818,5.314,5.39Z" transform="translate(-241.811 -40.208)" fill="#263238"/>
    <path id="Path_3891" data-name="Path 3891" d="M692.908,72.7h3.009V62.985c0-4.722-3.243-7.068-7.423-7.068a6.873,6.873,0,0,0-6.487,3.669c-1.2-2.466-3.712-3.669-6.721-3.669a6.865,6.865,0,0,0-5.784,2.677V56.218h-3.043V72.7H669.5V63.617c0-3.549,2.106-5.324,5.183-5.324,3.009,0,5.016,1.714,5.016,5.083V72.7h3.009V63.617c0-3.549,2.106-5.324,5.183-5.324,3.009,0,5.016,1.714,5.016,5.083Z" transform="translate(-513.099 -42.697)" fill="#263238"/>
    <path id="Path_3892" data-name="Path 3892" d="M278.815,32.867h3.02V4.231h-3.02Z" transform="translate(-214.432 -2.875)" fill="#263238"/>
    <path id="Path_3893" data-name="Path 3893" d="M401.95,42.409c0,5.333,3.75,8.94,8.627,8.94a7.561,7.561,0,0,0,6.769-3.513v3.231H420.4V27.854h-3.053v9.1a8.06,8.06,0,0,0-6.736-3.356A8.368,8.368,0,0,0,401.95,42.409Zm15.4.031a6.161,6.161,0,1,1-12.311-.031,5.957,5.957,0,0,1,6.139-6.336A6.044,6.044,0,0,1,417.347,42.44Z" transform="translate(-309.304 -21.075)" fill="#263238"/>
    <path id="Path_3894" data-name="Path 3894" d="M504.285,57.514l-5.337,5.18,1.936,1.884,7.224-6.985-.89-1.065a9.114,9.114,0,0,0-12.6,0,8.324,8.324,0,0,0-1.96,2.795,8.788,8.788,0,0,0-.009,6.656,8.318,8.318,0,0,0,1.954,2.8,9.09,9.09,0,0,0,12.6,0,8.278,8.278,0,0,0,1.941-2.757,9.2,9.2,0,0,0,.665-3.508l-2.507.006a6.769,6.769,0,0,1-1.959,4.541,6.549,6.549,0,0,1-4.483,1.793h0a6.249,6.249,0,0,1-2.434-.451,6.131,6.131,0,0,1-2.051-1.355l0,0A6.11,6.11,0,0,1,495,65.052,5.985,5.985,0,0,1,495,60.345a6.107,6.107,0,0,1,1.375-1.99,6.512,6.512,0,0,1,7.906-.841Z" transform="translate(-378.684 -41.22)" fill="#263238" fill-rule="evenodd"/>
    <path id="Path_3895" data-name="Path 3895" d="M590,57.514a6.513,6.513,0,0,0-7.907.841,6.11,6.11,0,0,0-1.375,1.99,5.984,5.984,0,0,0-.005,4.707,6.1,6.1,0,0,0,1.371,1.993l0,0a6.132,6.132,0,0,0,2.051,1.355,6.248,6.248,0,0,0,2.434.451h0a6.549,6.549,0,0,0,4.483-1.793,6.769,6.769,0,0,0,1.959-4.541l2.507-.006a9.2,9.2,0,0,1-.665,3.508,8.276,8.276,0,0,1-1.941,2.757,9.09,9.09,0,0,1-12.6,0,8.32,8.32,0,0,1-1.954-2.8,8.788,8.788,0,0,1,.009-6.656,8.322,8.322,0,0,1,1.96-2.795,9.114,9.114,0,0,1,12.6,0l.89,1.065L586.6,64.578l-1.936-1.884Z" transform="translate(-444.727 -41.22)" fill="#263238"/>
    <path id="Path_3896" data-name="Path 3896" d="M811.588,64.5a8.327,8.327,0,0,0,8.66,8.572,7.862,7.862,0,0,0,6.855-3.339V72.8h3.076V56.321H827.1v3.008a7.82,7.82,0,0,0-6.821-3.278C815.367,56.05,811.588,59.359,811.588,64.5Zm15.515.03A6.2,6.2,0,0,1,814.7,64.5a5.859,5.859,0,0,1,6.186-6.076A5.944,5.944,0,0,1,827.1,64.532Z" transform="translate(-624.916 -42.8)" fill="#263238"/>
  </g>
</svg>
