<svg xmlns="http://www.w3.org/2000/svg" xmlns:xlink="http://www.w3.org/1999/xlink" width="1920" height="584" viewBox="0 0 1920 584">
  <defs>
    <clipPath id="clip-path">
      <rect id="bg" width="1920" height="584" transform="translate(0 134)" fill="#263238"/>
    </clipPath>
    <filter id="Union_169" x="512.405" y="41.777" width="925.189" height="514.445" filterUnits="userSpaceOnUse">
      <feOffset dx="15" dy="7" input="SourceAlpha"/>
      <feGaussianBlur stdDeviation="7.5" result="blur"/>
      <feFlood flood-opacity="0.2"/>
      <feComposite operator="in" in2="blur"/>
      <feComposite in="SourceGraphic"/>
    </filter>
    <filter id="Union_170" x="487.406" y="27.778" width="925.189" height="514.445" filterUnits="userSpaceOnUse">
      <feOffset dx="-10" dy="-7" input="SourceAlpha"/>
      <feGaussianBlur stdDeviation="7.5" result="blur-2"/>
      <feFlood flood-color="#fff" flood-opacity="0.039"/>
      <feComposite operator="in" in2="blur-2"/>
      <feComposite in="SourceGraphic"/>
    </filter>
  </defs>
  <g id="Group_4937" data-name="Group 4937" transform="translate(0 -134)">
    <rect id="bg-2" data-name="bg" width="1920" height="584" transform="translate(0 134)" fill="#263238"/>
    <g id="Mask_Group_244" data-name="Mask Group 244" clip-path="url(#clip-path)">
      <g transform="matrix(1, 0, 0, 1, 0, 134)" filter="url(#Union_169)">
        <path id="Union_169-2" data-name="Union 169" d="M479.67,400.588a225.318,225.318,0,0,1-38.036-48.772A224.356,224.356,0,0,1,403.193,400.6,237.2,237.2,0,0,1,69,400.6,225.531,225.531,0,0,1,.031,234.466,225.655,225.655,0,0,1,69.395,68.592a237.826,237.826,0,0,1,334.2.008l21.17,25.95L235.585,281.736l-46.182-46L334.151,91.984a176.814,176.814,0,0,0-223.076,20.784,173.233,173.233,0,0,0-.264,246.249l.022.022A169.412,169.412,0,0,0,234.9,410.175h.021a178.748,178.748,0,0,0,123.849-50.687c29.235-28.466,47.781-67.3,52.776-107.8q-.511-8.58-.371-17.2A226.427,226.427,0,0,1,480.077,68.6a235.069,235.069,0,0,1,331.945.009l21.023,25.947-187.9,187.2-45.862-46.01L743.12,92.051a174.187,174.187,0,1,0-32.105,305.221,176.354,176.354,0,0,0,78.836-63.541c19.558-28.478,30.465-63.851,31.279-98.474l59.052-.148c.237,30.553-5.711,62.619-17.511,90.769a224.429,224.429,0,0,1-51.057,74.713,234.461,234.461,0,0,1-331.944,0Z" transform="translate(519.91 57.28)" fill="#263238"/>
      </g>
      <g transform="matrix(1, 0, 0, 1, 0, 134)" filter="url(#Union_170)">
        <path id="Union_170-2" data-name="Union 170" d="M479.67,400.588a225.318,225.318,0,0,1-38.036-48.772A224.356,224.356,0,0,1,403.193,400.6,237.2,237.2,0,0,1,69,400.6,225.531,225.531,0,0,1,.031,234.466,225.655,225.655,0,0,1,69.395,68.592a237.826,237.826,0,0,1,334.2.008l21.17,25.95L235.585,281.736l-46.182-46L334.151,91.984a176.814,176.814,0,0,0-223.076,20.784,173.233,173.233,0,0,0-.264,246.249l.022.022A169.412,169.412,0,0,0,234.9,410.175h.021a178.748,178.748,0,0,0,123.849-50.687c29.235-28.466,47.781-67.3,52.776-107.8q-.511-8.58-.371-17.2A226.427,226.427,0,0,1,480.077,68.6a235.069,235.069,0,0,1,331.945.009l21.023,25.947-187.9,187.2-45.862-46.01L743.12,92.051a174.187,174.187,0,1,0-32.105,305.221,176.354,176.354,0,0,0,78.836-63.541c19.558-28.478,30.465-63.851,31.279-98.474l59.052-.148c.237,30.553-5.711,62.619-17.511,90.769a224.429,224.429,0,0,1-51.057,74.713,234.461,234.461,0,0,1-331.944,0Z" transform="translate(519.91 57.28)" fill="#263238"/>
      </g>
    </g>
  </g>
</svg>
