<svg id="ic_Mobile_App_Back-End_Development" data-name="ic_Mobile App Back-End Development" xmlns="http://www.w3.org/2000/svg" width="44.045" height="44.041" viewBox="0 0 44.045 44.041">
  <path id="Path_5222" data-name="Path 5222" d="M-11605.046,22767.346h-19.576a4.08,4.08,0,0,1-4.077-4.07v-35.9a4.081,4.081,0,0,1,4.077-4.074h19.576a4.081,4.081,0,0,1,4.078,4.074v.822h4.084a.807.807,0,0,1,.572.234.8.8,0,0,1,.234.572v6.525a.8.8,0,0,1-.234.576.8.8,0,0,1-.572.238h-4.084v5.307l5.979,4.486h4.629a.816.816,0,0,1,.571.242.808.808,0,0,1,.235.574v7.348h4.085a.844.844,0,0,1,.577.232.855.855,0,0,1,.236.578v6.527a.819.819,0,0,1-.236.57.823.823,0,0,1-.577.242h-9.788a.812.812,0,0,1-.573-.242.8.8,0,0,1-.241-.57v-6.527a.824.824,0,0,1,.241-.578.836.836,0,0,1,.573-.232h4.082v-6.535h-3.814l-6.31,4.729a.789.789,0,0,1-.484.162.824.824,0,0,1-.49-.162l-6.3-4.729h-3.814v6.535h4.082a.832.832,0,0,1,.572.232.826.826,0,0,1,.242.578v6.527a.8.8,0,0,1-.242.57.807.807,0,0,1-.572.242h-9.788a.809.809,0,0,1-.577-.242.8.8,0,0,1-.237-.57v-6.527a.815.815,0,0,1,.237-.578.83.83,0,0,1,.577-.232h4.077v-7.348a.808.808,0,0,1,.242-.574.818.818,0,0,1,.572-.242h4.629l5.979-4.486v-5.307h-4.083a.79.79,0,0,1-.571-.238.791.791,0,0,1-.236-.576v-6.525a.8.8,0,0,1,.236-.572.794.794,0,0,1,.571-.234h4.083v-.822a2.45,2.45,0,0,0-2.449-2.449h-7.345v.814a2.448,2.448,0,0,1-2.442,2.447,2.451,2.451,0,0,1-2.449-2.447v-.814h-7.34a2.455,2.455,0,0,0-2.456,2.449v35.9a2.455,2.455,0,0,0,2.456,2.449h19.576a2.45,2.45,0,0,0,2.449-2.449v-6.529a.8.8,0,0,1,.243-.574.792.792,0,0,1,.571-.236.8.8,0,0,1,.573.236.819.819,0,0,1,.241.574v6.529A4.08,4.08,0,0,1-11605.046,22767.346Zm10.6-11.416h0v4.895h8.167v-4.895Zm-22.845,0h0v4.895h8.165v-4.895Zm15.506-12.85h0l-5.174,3.877,5.174,3.879,5.174-3.879-5.174-3.877Zm-4.083-13.256h0v4.9h8.166v-4.9Z" transform="translate(11628.699 -22723.305)" fill="#fd8f40"/>
</svg>
