<svg id="ic_quality" xmlns="http://www.w3.org/2000/svg" width="47.57" height="47.596" viewBox="0 0 47.57 47.596">
  <path id="Path_4252" data-name="Path 4252" d="M9207.73,20206.15a.823.823,0,0,1-.589-.242l-4.147-4.26a.813.813,0,0,1,.582-1.379.8.8,0,0,1,.582.246l3.584,3.689,7.34-6.932a.823.823,0,0,1,.567-.223.84.84,0,0,1,.6.258.8.8,0,0,1,.22.578.817.817,0,0,1-.253.57l-7.927,7.473A.819.819,0,0,1,9207.73,20206.15Z" transform="translate(-9185.82 -20177.799)" fill="#fd8f40"/>
  <path id="Path_4251" data-name="Path 4251" d="M9217.516,20226.553a14.751,14.751,0,1,1,14.749-14.752A14.77,14.77,0,0,1,9217.516,20226.553Zm0-27.869a13.117,13.117,0,1,0,13.117,13.117A13.135,13.135,0,0,0,9217.516,20198.684Z" transform="translate(-9193.725 -20188.002)" fill="#fd8f40"/>
  <path id="Path_4253" data-name="Path 4253" d="M9226.545,20244.645a.8.8,0,0,1-.449-.137l-5-3.3-5.986.332a.4.4,0,0,1-.048,0,.808.808,0,0,1-.727-.451l-2.7-5.332-5.329-2.7a.8.8,0,0,1-.448-.775l.333-5.986-3.295-5.01a.831.831,0,0,1,0-.9l3.306-5-.336-5.986a.833.833,0,0,1,.449-.777l5.332-2.7,2.7-5.332a.811.811,0,0,1,.732-.449h.041l5.99.334,5-3.3a.816.816,0,0,1,.449-.135.805.805,0,0,1,.444.135l5,3.3,6-.322a.361.361,0,0,1,.046,0,.823.823,0,0,1,.731.449l2.7,5.334,5.332,2.7a.8.8,0,0,1,.445.773l-.334,5.992,3.283,5a.813.813,0,0,1,0,.9l-3.3,5,.333,5.986a.824.824,0,0,1-.448.775l-5.332,2.7-2.7,5.332a.81.81,0,0,1-.732.453.133.133,0,0,1-.041,0l-5.986-.332-5,3.3A.815.815,0,0,1,9226.545,20244.645Zm-5.262-5.09h.045a.809.809,0,0,1,.448.143l4.779,3.152,4.775-3.152a.932.932,0,0,1,.464-.131h.037l5.729.314,2.573-5.094v0a.8.8,0,0,1,.359-.354l5.093-2.574-.314-5.729,0,0a.762.762,0,0,1,.131-.492l3.156-4.781-3.152-4.777a.865.865,0,0,1-.131-.5l.314-5.729-5.093-2.574-.009,0a.782.782,0,0,1-.351-.357l-2.573-5.1-5.729.318h-.008c-.021,0-.041,0-.062,0a.765.765,0,0,1-.429-.133l-4.778-3.152-4.779,3.152a.91.91,0,0,1-.464.131h-.037l-5.726-.318-2.576,5.1v.006a.788.788,0,0,1-.355.354l-5.1,2.574.317,5.729v0a.76.76,0,0,1-.13.494l-3.156,4.777,3.152,4.775a.9.9,0,0,1,.134.5l-.317,5.729,5.1,2.563,0,0a.784.784,0,0,1,.354.354l2.573,5.1Z" transform="translate(-9202.764 -20197.049)" fill="#fd8f40"/>
</svg>
