<svg id="ic_testing" xmlns="http://www.w3.org/2000/svg" width="43.93" height="53.292" viewBox="0 0 43.93 53.292">
  <path id="Path_4559" data-name="Path 4559" d="M15477.313,14878.045a2.581,2.581,0,0,1-1.84-.761,2.627,2.627,0,0,1-.768-1.68,10.143,10.143,0,0,1-2.809-1.023,2.6,2.6,0,0,1-1.764.688h0a2.6,2.6,0,0,1-1.852-.771,2.653,2.653,0,0,1-.271-3.394c-.923.528-1.923,1.076-3.034,1.663a1.928,1.928,0,0,1-1.83-.009c-11.194-5.915-17.266-11.236-17.266-22.391v-19.51a.856.856,0,0,1,.728-.849l2.45-.38a44.525,44.525,0,0,0,11.78-3.492l2.872-1.308a.871.871,0,0,1,.7-.007l3.646,1.6a44.769,44.769,0,0,0,12.058,3.377l1.389.181a.859.859,0,0,1,.749.852v19.51a23.731,23.731,0,0,1-.6,5.51c.161.081.319.168.476.259l.1-.1a2.6,2.6,0,0,1,1.864-.782h0a2.588,2.588,0,0,1,1.852.771,2.653,2.653,0,0,1-.007,3.721l-.081.085a10.483,10.483,0,0,1,1.088,2.524h.247a2.621,2.621,0,0,1,2.612,2.631,2.648,2.648,0,0,1-2.625,2.644l-.111,0a10.449,10.449,0,0,1-.979,2.606l.15.154a2.648,2.648,0,0,1,0,3.722,2.611,2.611,0,0,1-1.866.782h0a2.578,2.578,0,0,1-1.836-.759,10.33,10.33,0,0,1-2.589,1.227v.066a2.648,2.648,0,0,1-2.625,2.643Zm-5.093-5.268a8.526,8.526,0,0,0,3.455,1.247.863.863,0,0,1,.752.853.167.167,0,0,0,0,.039v.5a.907.907,0,0,0,.27.651.862.862,0,0,0,.619.257h.006a.923.923,0,0,0,.906-.927l0-.528c0-.033,0-.066-.006-.1a.859.859,0,0,1,.652-.918,8.645,8.645,0,0,0,3.24-1.553.868.868,0,0,1,1.2.146.8.8,0,0,0,.063.072l.368.372a.878.878,0,0,0,.626.26.9.9,0,0,0,.644-.272.93.93,0,0,0,.006-1.3l-.368-.371a.913.913,0,0,0-.134-.108.858.858,0,0,1-.25-1.166,8.856,8.856,0,0,0,1.241-3.341.864.864,0,0,1,.994-.717c.048.01.1.01.147.016l.522,0a.924.924,0,0,0,.909-.928.9.9,0,0,0-.266-.651.932.932,0,0,0-.625-.258h-.522a1.159,1.159,0,0,0-.2.024.855.855,0,0,1-1.036-.664,8.767,8.767,0,0,0-1.4-3.247.859.859,0,0,1,.19-1.182.668.668,0,0,0,.111-.093l.371-.375a.927.927,0,0,0,.006-1.3.866.866,0,0,0-.624-.26.913.913,0,0,0-.644.269l-.369.374a.893.893,0,0,0-.1.125.869.869,0,0,1-1.193.221,8.4,8.4,0,0,0-1.433-.789.786.786,0,0,1-.117-.051,8.667,8.667,0,0,0-1.743-.511.86.86,0,0,1-.7-.912.569.569,0,0,0,.006-.069v-.522a.916.916,0,0,0-.267-.653.852.852,0,0,0-.624-.256.921.921,0,0,0-.909.927l0,.528,0,.055a.874.874,0,0,1-.7.919,8.679,8.679,0,0,0-3.386,1.437.864.864,0,0,1-1.112-.1l-.328-.333a.88.88,0,0,0-.626-.263.912.912,0,0,0-.643.271.93.93,0,0,0-.006,1.309l.344.344a.862.862,0,0,1,.1,1.085,8.811,8.811,0,0,0-1.4,3.537.859.859,0,0,1-.849.722h-.356a.924.924,0,0,0-.906.93.905.905,0,0,0,.266.653.859.859,0,0,0,.625.256l.436,0h0a.86.86,0,0,1,.846.689,8.793,8.793,0,0,0,.809,2.287l.016.025a.836.836,0,0,1,.05.1,8.708,8.708,0,0,0,.669,1.051.855.855,0,0,1-.078,1.114l-.269.272a.931.931,0,0,0-.01,1.3.874.874,0,0,0,.626.263.891.891,0,0,0,.64-.271l.372-.375a.874.874,0,0,1,.621-.258A.857.857,0,0,1,15472.221,14872.777Zm-10.669-45.074a46.236,46.236,0,0,1-12.235,3.628l-1.716.266v18.772c0,10.342,5.51,15.144,16.362,20.877a.216.216,0,0,0,.2.009c1.154-.609,2.179-1.173,3.118-1.712a10.506,10.506,0,0,1-.487-1.387,2.57,2.57,0,0,1-1.6-.749,2.6,2.6,0,0,1-.773-1.87,2.652,2.652,0,0,1,2.269-2.618,10.514,10.514,0,0,1,1.163-2.93,2.656,2.656,0,0,1,.136-3.582,2.616,2.616,0,0,1,3.542-.169,10.345,10.345,0,0,1,2.75-1.17,2.65,2.65,0,0,1,2.624-2.618,2.526,2.526,0,0,1,1.852.761,2.62,2.62,0,0,1,.773,1.837c.171.044.342.092.51.145a22.259,22.259,0,0,0,.5-4.851v-18.755l-.644-.084a46.523,46.523,0,0,1-12.526-3.51l-3.289-1.437Zm25.642,35.481h0Zm-10.112,7.479a5.51,5.51,0,0,1-3.924-1.606,5.293,5.293,0,0,1-1.577-3.791,5.526,5.526,0,0,1,5.543-5.437,5.6,5.6,0,0,1,3.948,1.609,5.3,5.3,0,0,1,1.576,3.791,5.519,5.519,0,0,1-5.539,5.434Zm-3.776-5.395a3.589,3.589,0,0,0,1.069,2.57,3.805,3.805,0,0,0,2.707,1.105h.018a3.8,3.8,0,0,0,3.827-3.721,3.614,3.614,0,0,0-1.072-2.57,3.8,3.8,0,0,0-2.707-1.106h-.018A3.8,3.8,0,0,0,15473.3,14865.269Zm8.485-.042h0Zm-21.687-9.43-5.507-3.652a.86.86,0,1,1,.955-1.432l4.92,3.263,11.979-11.916a.861.861,0,1,1,1.218,1.217l-12.481,12.411a.854.854,0,0,1-.607.251A.885.885,0,0,1,15460.1,14855.8Z" transform="translate(-15445.879 -14824.753)" fill="#fd8f40"/>
</svg>
