<svg xmlns="http://www.w3.org/2000/svg" width="136.085" height="26.069" viewBox="0 0 136.085 26.069">
  <g id="Layer" transform="translate(-0.2 -0.1)" opacity="0.799">
    <g id="Layer-2" data-name="Layer" transform="translate(0.2 0.1)">
      <g id="Layer-3" data-name="Layer" transform="translate(0 0.009)">
        <path id="XMLID_47_" d="M98.151,265.5H88.8l-1,3.06H99.148Z" transform="translate(-80.205 -242.5)" fill="#fff"/>
        <path id="XMLID_46_" d="M14.262.2h4.491l7.985,24.535H22.247ZM12.675.2H8.185L.2,24.735H4.691Z" transform="translate(-0.2 -0.2)" fill="#fff"/>
      </g>
      <g id="XMLID_33_" transform="translate(30.508 0)">
        <g id="XMLID_34_">
          <g id="XMLID_35_">
            <path id="_Layer_group_" data-name="&lt;/Layer group&gt;" d="M451.843,3.707h-6.65V24.643h-4.057V3.707h-6.65V.109h17.356ZM425.973.1V3.707H414.252v6.745H424.3v3.607H414.252v6.979h11.721v3.6H410.194V.1Zm-53.4,0-7.985,24.535h-4.5L352.1.1h4.491V.109l5.739,18.327L368.078.1Zm22.966,16.411V.1h4.049V24.635h-3.45l-11.088-16.4v16.4h-4.057V.1h3.459Zm60.34-12.8a1.8,1.8,0,1,1,1.8-1.8A1.8,1.8,0,0,1,455.874,3.707Zm1.439-1.8a1.439,1.439,0,1,0-2.878,0,1.439,1.439,0,1,0,2.878,0Zm-1.058.98-.4-.772h-.251v.772h-.364V.932h.737a.605.605,0,0,1,.624.6.539.539,0,0,1-.381.529l.433.824Zm-.312-1.647h-.329v.59h.329a.3.3,0,0,0,.321-.295A.3.3,0,0,0,455.943,1.236Z" transform="translate(-352.1 -0.1)" fill="#fff" fill-rule="evenodd"/>
          </g>
        </g>
      </g>
    </g>
  </g>
</svg>
