<svg xmlns="http://www.w3.org/2000/svg" width="172.093" height="39.998" viewBox="0 0 172.093 39.998">
  <g id="Group_4978" data-name="Group 4978" transform="translate(-869.06 -997.473)" opacity="0.802">
    <path id="path20" d="M102.208-64.059l-1.006-12.6h-.042L97.276-66.6a2.46,2.46,0,0,1-2.271,1.705A2.589,2.589,0,0,1,92.736-66.6l-3.8-9.936H88.9L87.8-64.059l-3.707,0L85.99-81.823a2.31,2.31,0,0,1,2.022-2.1,2.6,2.6,0,0,1,2.682,1.961l4.291,10.785h.041L99.318-81.96A2.651,2.651,0,0,1,102-83.921c1.094,0,1.9,1.116,2.021,2.326L105.9-64.061l-3.689,0h0" transform="translate(832.665 1091.063)" fill="#fff"/>
    <path id="path22" d="M114.616-77.707h3.454v15.021h-3.454V-77.707h0" transform="translate(825.908 1089.687)" fill="#fff"/>
    <path id="path24" d="M219.567-77.707h3.455v15.021h-3.455V-77.707h0" transform="translate(802.672 1089.687)" fill="#fff"/>
    <path id="path26" d="M121.51-72.485c0-4.4,1.684-5.436,4.513-5.436h3.692c4.47,0,5.051-.29,5.023,3.963l-8.1-.014c-1.655,0-1.9,1.052-1.9,2.919v1.618c0,2.178.311,3.008,1.8,3.008l8.331-.006c0,2.531-.033,3.866-3.187,3.866h-5.654c-2.829,0-4.513-1.038-4.513-5.437v-4.481h0" transform="translate(824.382 1089.735)" fill="#fff"/>
    <path id="path28" d="M151.144-71.9c0,1.078-.31,1.577-1.16,1.577h-5.751v-3.652H149.7c.99,0,1.443.249,1.443,1.577Zm3.055-.394v-.955c0-2.7-.65-4.461-3.069-4.461H141.092v15.021h3.141v-3.9h5.5c.976,0,1.286.52,1.286,2.1v1.8h3.141v-2.551c0-2.469-.779-3.071-1.712-3.321V-68.6c1.443-.5,1.753-1.681,1.753-3.693h0" transform="translate(820.046 1089.687)" fill="#fff"/>
    <path id="path30" d="M163.585-69.433c0,2.178.311,3.008,1.8,3.008H169.4c1.485,0,1.8-.831,1.8-3.008v-1.618c0-1.868-.311-3.009-1.966-3.009h-3.678c-1.655,0-1.966,1.141-1.966,3.009Zm-3.224-3.05c0-4.4,1.683-5.436,4.512-5.436h5.036c2.829,0,4.513,1.038,4.513,5.436V-68c0,4.4-1.684,5.437-4.513,5.437h-5.036c-2.829,0-4.512-1.038-4.512-5.437v-4.481h0" transform="translate(815.78 1089.734)" fill="#fff"/>
    <path id="path32" d="M200.144-77.707h3.139v5.353H209.9v-5.353h3.14v15.021H209.9V-68.37h-6.621v5.685h-3.139V-77.707h0" transform="translate(806.973 1089.687)" fill="#fff"/>
    <path id="path34" d="M236.818-71.794c0,.893-.282,1.6-1.018,1.6h-6.03v-3.776h5.761c.949,0,1.287.581,1.287,1.6v.58Zm-.481-5.913H226.63v15.021h3.14v-3.776h7.387c2.222,0,2.886-2.573,2.886-4.813v-1.287c0-2.946-.721-5.145-3.706-5.145h0" transform="translate(801.109 1089.687)" fill="#fff"/>
    <path id="path36" d="M180.609-72.456c0-4.4,1.684-5.436,4.513-5.436h3.692c4.471,0,5.032-.291,5,3.963l-8.078-.014c-1.655,0-1.9,1.051-1.9,2.918v1.618c0,2.179.311,3.009,1.8,3.009l8.332-.006c0,2.53-.032,3.866-3.187,3.866h-5.654c-2.829,0-4.513-1.037-4.513-5.436v-4.481h0" transform="translate(811.298 1089.729)" fill="#fff"/>
    <path id="path40" d="M49.638-70.21s-3.4,4.961-3.751,5.434c-2.081,2.828-3.612-.437-3.612-.437L31.45-82.23s2.014-2.828,3.592-5.069c1.735-2.468,3.3-.745,3.818.071C42.607-81.353,49.638-70.21,49.638-70.21ZM52.67-94.366a19.39,19.39,0,0,0-8.439-1.969c-11.624-.2-21.2,8.585-21.4,19.628a19.074,19.074,0,0,0,.714,5.527L29.557-79.6l4.069,6.368a2.406,2.406,0,0,1,.3,2.788c-.058.088-5.52,7.632-5.52,7.632a21.185,21.185,0,0,0,15.132,6.472A21.24,21.24,0,0,0,58.527-62L45.747-82.172s2.015-2.829,3.592-5.07c1.736-2.468,3.3-.745,3.819.071C56.9-81.3,63.937-70.154,63.937-70.154l0-.065a9.2,9.2,0,0,0,1.167-4.544L52.67-94.366h0" transform="translate(846.229 1093.812)" fill="#fff"/>
  </g>
</svg>
