<svg xmlns="http://www.w3.org/2000/svg" xmlns:xlink="http://www.w3.org/1999/xlink" version="1.1" width="45pt" height="45pt" viewBox="0 0 45 45">
<defs>
<clipPath id="clip_0">
<path transform="matrix(.25,0,0,.25,0,0)" d="M0 0H180V180H0Z"/>
</clipPath>
</defs>
<g>
<g opacity=".8">
<g clip-path="url(#clip_0)">
<path d="M22.5 0C23.236903 0 23.97203 .036114545 24.705384 .10834364 25.43874 .18057274 26.166789 .28856857 26.88953 .43233112 27.612277 .57609376 28.326233 .7549308 29.031405 .9688424 29.736577 1.1827539 30.429566 1.4307098 31.110373 1.7127103 31.791184 1.9947109 32.456537 2.309398 33.106428 2.6567715 33.756319 3.004145 34.387617 3.3825322 35.000329 3.791933 35.61304 4.2013347 36.204214 4.639778 36.773847 5.1072647 37.34348 5.574751 37.888833 6.0690286 38.4099 6.590097 38.93097 7.111166 39.42525 7.656517 39.89274 8.2261509 40.36022 8.795783 40.798666 9.386956 41.208066 9.999668 41.61747 10.612381 41.995859 11.243682 42.34323 11.893572 42.6906 12.543462 43.005289 13.208812 43.28729 13.889621 43.56929 14.570431 43.817247 15.263422 44.03116 15.968595 44.245069 16.673768 44.423906 17.387726 44.56767 18.110468 44.711435 18.833212 44.81943 19.56126 44.89166 20.294613 44.963888 21.027968 45 21.763098 45 22.5 45 23.236903 44.963888 23.97203 44.89166 24.705384 44.81943 25.43874 44.711435 26.166789 44.56767 26.88953 44.423906 27.612277 44.245069 28.326233 44.03116 29.031405 43.817247 29.736577 43.56929 30.429566 43.28729 31.110373 43.005289 31.791184 42.6906 32.456537 42.34323 33.106428 41.995859 33.756319 41.61747 34.387617 41.208066 35.000329 40.798666 35.61304 40.36022 36.204214 39.892736 36.773847 39.425249 37.34348 38.93097 37.888833 38.4099 38.4099 37.888833 38.93097 37.34348 39.42525 36.77384 39.89274 36.20421 40.36022 35.613039 40.798666 35.000326 41.208066 34.38761 41.61747 33.756315 41.995859 33.106424 42.34323 32.45653 42.6906 31.791184 43.005289 31.110373 43.28729 30.429566 43.56929 29.736577 43.817247 29.031405 44.03116 28.326233 44.245069 27.612277 44.423906 26.88953 44.56767 26.166789 44.711435 25.43874 44.81943 24.705386 44.89166 23.97203 44.963888 23.236903 45 22.5 45 21.763098 45 21.027968 44.963888 20.294613 44.89166 19.561259 44.81943 18.83321 44.711435 18.110466 44.56767 17.387724 44.423906 16.673766 44.245069 15.968593 44.03116 15.263421 43.817247 14.57043 43.56929 13.88962 43.28729 13.208811 43.005289 12.543462 42.6906 11.893572 42.34323 11.243681 41.995859 10.612379 41.61747 9.999667 41.208066 9.386955 40.798666 8.795783 40.36022 8.22615 39.892736 7.6565167 39.425249 7.111166 38.93097 6.590097 38.4099 6.0690286 37.888833 5.574751 37.34348 5.1072647 36.77384 4.6397788 36.20421 4.201335 35.613039 3.7919334 35.000326 3.3825322 34.38761 3.004145 33.756315 2.6567715 33.106424 2.309398 32.45653 1.9947109 31.791184 1.7127103 31.110373 1.4307098 30.429566 1.1827539 29.736577 .9688424 29.031405 .7549308 28.326233 .57609376 27.612277 .43233112 26.88953 .28856857 26.166789 .18057274 25.43874 .10834364 24.705386 .036114545 23.97203 0 23.236903 0 22.5 0 21.763098 .036114545 21.027968 .10834364 20.294613 .18057274 19.561259 .28856857 18.83321 .43233112 18.110466 .57609376 17.387724 .7549308 16.673766 .9688424 15.968593 1.1827539 15.263421 1.4307098 14.57043 1.7127103 13.88962 1.9947109 13.208811 2.309398 12.543462 2.6567715 11.893572 3.004145 11.243681 3.3825322 10.612379 3.791933 9.999667 4.2013347 9.386955 4.639778 8.795783 5.1072647 8.22615 5.574751 7.6565167 6.0690286 7.111166 6.590097 6.590097 7.111166 6.0690286 7.656517 5.574751 8.2261509 5.1072647 8.795783 4.6397788 9.386956 4.201335 9.999668 3.7919334 10.612381 3.3825322 11.243682 3.004145 11.893572 2.6567715 12.543462 2.309398 13.208812 1.9947109 13.889621 1.7127103 14.570431 1.4307098 15.263422 1.1827539 15.968595 .9688424 16.673768 .7549308 17.387726 .57609376 18.110468 .43233112 18.833212 .28856857 19.56126 .18057274 20.294613 .10834364 21.027968 .036114545 21.763098 0 22.5 0Z" fill="#ffffff"/>
<path transform="matrix(1,0,0,1,-16.785767,-34.796449)" d="M32.01503 58.06646V51.237665H34.49304V63.59604L27.068507 56.75457V63.583368H24.6V51L32.01503 58.06646Z"/>
<path transform="matrix(1,0,0,1,-38.062379,-34.796205)" d="M58.29271 55.46145H55.77984C55.773027 54.274965 56.241777 53.135194 57.08136 52.2968 57.92095 51.458406 59.061388 50.991266 60.247865 50.999765 61.433374 50.99639 62.57148 51.464975 63.410959 52.30207 64.25043 53.139169 64.72224 54.27594 64.72224 55.46145 64.710659 56.23372 64.49766 56.98958 64.10431 57.654275 63.66472 58.38359 63.157594 59.070016 62.589624 59.70449 62.142816 60.23369 62.0129 60.3953 61.442514 61.07659H64.65252V63.583124H55.77984C55.77984 63.583124 59.113435 59.8154 60.247865 58.582735 60.76146 58.03415 61.22986 57.444948 61.648485 56.820878 61.948968 56.425516 62.135286 55.955324 62.187189 55.461458 62.14502 54.416566 61.285684 53.591196 60.239946 53.591196 59.194208 53.591196 58.33486 54.416566 58.29271 55.46145Z"/>
<path transform="matrix(1,0,0,1,-56.9209,-34.855409)" d="M94.173198 52.919088C95.35808 54.09578 96.02442 55.696634 96.02442 57.366525 96.02442 59.03641 95.35808 60.637266 94.173198 61.813959 92.376598 63.60751 89.67727 64.14386 87.33147 63.173368 84.98567 62.20288 83.454257 59.91623 83.44992 57.37761 83.44182 54.832956 84.97223 52.535676 87.32362 51.562879 89.675 50.590085 92.38113 51.13466 94.17319 52.94127L94.173198 52.919088ZM87.06871 54.687288C86.34967 55.387559 85.94886 56.35179 85.959629 57.355428 85.95613 59.43628 87.64015 61.12598 89.721 61.12948 91.80185 61.13298 93.49155 59.44895 93.495059 57.368108 93.49856 55.28725 91.81454 53.59755 89.73369 53.594045 88.73171 53.57051 87.7655 53.966875 87.06872 54.687288H87.06871Z"/>
</g>
</g>
</g>
</svg>
