<svg width="154" height="311" viewBox="0 0 154 311" fill="none" xmlns="http://www.w3.org/2000/svg">
<path d="M0.699951 157.6V231.7H74.8V157.6H0.699951ZM55.8999 198.7C55.8999 213.9 47.9 220.1 37.2 220.1C26.5 220.1 19.4 214.4 19.4 199V169.9H25.9V199.3C25.9 210.3 30.8 215 37.4 215C44 215 49.4 210.2 49.4 199.3V169.9H55.8999V198.8V198.7Z" fill="white"/>
<path d="M79.3 157.6V231.7H153.4V157.6H79.3ZM134.9 219.4H128.4L112.7 194.3C109.3 188.8 106 183.1 103.5 177.8H103.3C103.7 184.1 103.7 190 103.7 198.3V219.4H97.7V169.9H104.8L120.6 194.9C124.2 200.7 127.1 205.8 129.4 211H129.6C129 204.3 128.9 198.3 128.9 190.7V169.9H134.9V219.4Z" fill="white"/>
<path d="M115.1 253.4C112.3 253.4 110.2 253.7 109.1 253.9V273.1C110.5 273.5 112.3 273.6 114.4 273.6C122.2 273.6 126.8 269.8 126.8 263.1C126.8 256.4 122.2 253.3 115.1 253.3V253.4Z" fill="white"/>
<path d="M79.3 236.2V310.3H153.4V236.2H79.3ZM129.4 273.1C126 276.7 120.5 278.5 114.3 278.5C108.1 278.5 110.6 278.5 109.2 278.1V297.9H102.8V249.1C105.9 248.5 109.9 248.1 115.1 248.1C120.3 248.1 126 249.6 129 252.2C131.7 254.5 133.4 258.1 133.4 262.6C133.4 267.1 132.1 270.6 129.5 273.2L129.4 273.1Z" fill="white"/>
<path d="M32.9 253C29.6 253 27.1 253.3 25.4 253.7V292.8C27 293.1 29.4 293.1 31.9 293.1C45.6 293.1 53 285.5 53 272.1C53 260.3 46.5 253 33 253H32.9Z" fill="white"/>
<path d="M0.599976 236.3V310.4H74.7V236.3H0.599976ZM52.6 291.1C47.9 295.7 40.3 298.2 30.7 298.2C21.1 298.2 22.3 298.1 19 297.6V248.9C23 248.3 27.6 247.9 32.7 247.9C41.9 247.9 48.4 250 52.7 254C57.2 258 59.7 263.8 59.7 271.8C59.7 279.8 57.1 286.5 52.6 291V291.1Z" fill="white"/>
<path d="M93.5 55.1V55.3C91.5 57.3 89.5 59.3 87.7 61.3C87.8 61.5 88 61.8 88.3 61.9C88.3 61.4 88.6 61 88.7 60.5C89.2 59.8 89.9 60.3 90.6 60.4C91.6 60.2 92.5 60.6 93.5 60.6C94.2 61 94.3 61.9 95 62.3C95.2 62.6 95 62.9 94.8 63.1C95 64.6 95.7 62.7 96.5 63.1C96.8 63.2 97.2 63.1 97.5 63.5C97.6 64.1 98.3999 64 98.3999 64.6C98.3999 64.9 98 65 97.8 65.1C98 65.7 97.2 66.1 97.5 66.7C98.7 66.9 98.7 65.6 99.3 64.9C99 63.8 98.8 62.8 98.2 61.8C97.5 61.7 97.0999 60.9 96.3999 60.7C95.0999 60.2 96.5999 59.4 96.3999 58.6C95.6999 57.3 94.6 56.1 93.7 55L93.5 55.1Z" fill="white"/>
<path d="M101.2 76.8C100.3 79.5 99.3 82.2 97.6 84.6C96.9 85.5 96.3 86.6 95.4 87.1L97.3 88.7C97.4 88.6 97.3 88.4 97.3 88.3C97.3 88.1 97.4 87.8 97.7 87.8C98.6 87.8 98.6 88.7 99.1 89.2C99 90 99.7 90.6 99.4 91.3C104.5 85.9 107.1 79.2 107.6 71.9L107.9 71.6C106.1 71.8 104.1 71.6 102.2 71.6H101.8C101.9 72.7 101.6 73.9 101.5 75.1L102.2 75.8C102.4 76.1 102.3 76.5 102.1 76.7C101.8 76.9 101.5 76.9 101.2 76.7V76.8Z" fill="white"/>
<path d="M94 96.1L94.3 95.7C95.5 94.7 96.8 93.8 97.9 92.7H98C97.8 92.7 97.5 92.9 97.2 92.7C96.6 92.4 96.5 91.9 96.5 91.3L94 88.7V88.3C93.7 88.8 93.3 89.1 92.9 89.5C92.9 89.8 92.9 90.3 93.2 90.5C94 90.8 95.1 91.3 95.3 92.3C95 93.2 93.3 94 94.3 95C94.6 95.5 93.8 95.7 94 96.1Z" fill="white"/>
<path d="M79.4 85.4C79.9 85.5 79.6 86.1 79.9 86.3C80.7 86 81.4 87 82 86.4C82 85.4 83 85.5 83.6 85.3C84.5 84.8 85.6 84 85.5 82.8V82.6C84.7 82.6 84.4 83.1 83.9 83.5C83.3 83.8 83 82.9 82.6 83.1C82.6 83.2 82.7 83.2 82.8 83.3C82.9 83.4 83 83.7 82.8 83.9C82.1 84.5 81.8 83.6 81.1 83.7V83.9C81.1 84 81.1 84.3 80.9 84.2C80.5 83.5 79.7 83.8 79.2 83.2C78.9 83.1 78.7 83.2 78.5 83.4C78.4 83.7 77.7 83.4 77.9 83.9C77.4 84.1 77.3 84.6 77 85C76.4 84.9 76.1 85.6 75.5 85.6C75.5 85.7 75.5 85.9 75.7 85.9C76.1 86.1 76.4 86.1 76.9 86C77.5 85 78.5 85.8 79.4 85.5V85.4Z" fill="white"/>
<path d="M75.7 103.5L75.8999 103.2L75.3 103.4C67.4 102.9 60.3 100 54.5 94.4V94.6L50.2 98.8C56.6 104.3 63.6999 107.8 71.8999 109C73.1999 109.2 74.7 109.1 76 109.5L75.7 109V103.5Z" fill="white"/>
<path d="M79.5 63.1C80 63.4 80.2 62.9 80.6 62.8C81.2 62.8 81.6 63.3 82 63.7C82.4 63.9 82.7 63.7 83 63.5C83.2 61.8 85.3 62.1 86 60.5H85.6C85.4 60.5 85 60.5 85.1 60.2C85.4 59.9 85.9 59.4 86.3 59.2C84.5 58.1 82.6 57.1 80.5 56.6C79.7 56.4 78.8 56.4 78.1 56.1C78.5 57.3 78.1 59 78.4 60.3L79.9 60.8C80.3 60.1 81.3 59.9 81.7 59.3C82 59.1 82.3 59.3 82.5 59.5C82.5 60.1 82.5 60.6 82.3 61.1C81.8 62.2 80.4 62.3 79.7 63.1H79.5Z" fill="white"/>
<path d="M92.6 83.7C92.6 84.4 91.9 84.7 92 85.4C91.7 85.7 91.3 85.7 90.9 85.7C89.3 85.1 87.6 84.7 85.8 84.5C85.6 84.5 85.5 84.7 85.6 84.9C86.3 85.3 87.2 85.3 88 85.6C88.7 85.8 89.2 86.6 90 86.4C90.7 86 92 86.6 92.4 85.9C92.4 85.1 93 84.6 93.3 83.9H93.5C93.9 84.3 93.9 84.9 94.1 85.4C94.7 84.8 95.1 84.1 95.6 83.5C96.9 81.5 98.1 79.4 98.6 77.2C98.1 77.2 97.5 77.3 97 77.5C96.4 77.5 95.7 77.8 95.2 77.4C95 77.2 94.9 77.4 94.9 77.6C94.7 77.9 94.5 78.3 94 78.2C93.6 78 93.6 77.6 93.5 77.4C93.5 77.6 93.5 77.8 93.4 78C93 78.4 92.8 78.9 92.5 79.4C92.1 79.9 91.4 79.7 90.9 80.1C90.9 81.1 89.7 80.9 89.1 81.2C89.1 81.3 89.2 81.3 89.3 81.4C89.6 81.4 90 81.4 90.2 81.2C91.1 81.4 90.9 80.3 91.4 80C91.8 80 92.2 79.6 92.7 79.9C93.1 80.4 93.3 81.2 93.2 82C92.7 82.5 93 83.3 92.6 83.9V83.7Z" fill="white"/>
<path d="M83.1 81.6C83.6 81.1 84.6 81.1 84.7 80.4C84 80.3 83.6 80.7 83.1 81.1C83.1 81.3 82.8 81.5 83.1 81.6Z" fill="white"/>
<path d="M78.1001 101.3C79.6001 100.8 81.4 100.9 83 100.6C82.7 100.5 82.3001 100.4 82.1001 100.1C81.1001 100.1 80.7 99 80.4 98.3C80.3 97.8 80.6 97.3 80.8 96.8C80.4 96 79.1 96.6 78.4 96.3C78.2 96.1 78.1 95.9 77.8 95.9L78.1001 96.3C78.1001 98 78.3001 99.7 78.1001 101.3Z" fill="white"/>
<path d="M99.6 93.9C99 95 97.8 95.7 96.8 96.6C95.5 97.9 93.3 98.2 92.6 100.1C91.9 100.8 91.6 101.8 90.6 102.1C90.2 103.1 89.2 103 88.6 103.7C86.9 105.2 85.8 102.7 84.2 102.4L81.1 102.9C80 102.9 78.9 103.3 77.9 102.9C78 105 78 107.2 77.9 109.3L78.3 109.1C88.1 108.7 96.6 104.9 103.9 98.3L99.6 94.2V93.7V93.9Z" fill="white"/>
<path d="M96.1 71.3L96.7 71.9C97.3 72.3 96.9 73.2 97.6 73.6C98.4 74 98.7 74.9 99 75.6C99.1 75.4 99.1 75.2 99.2 75C99.5 73.9 99.4 72.6 99.8 71.5C98.6 71.5 97.2 71.7 96.1 71.2V71.3Z" fill="white"/>
<path d="M84.5 49.3C82.4 48.6 80.2 48.3 77.9 47.9L78.1 48.3V53.8L78.6 53.7C82 54.2 85.1 55.2 87.8 57.4V57.8C88.9 56.5 90.2 55.4 91.3 54.2L92.3 53.6L91.8 53.4C89.6 51.5 87.1 50.1 84.5 49.2V49.3Z" fill="white"/>
<path d="M74.8999 84.9C74.9999 84.4 74.9 83.7 75.1 83.2C75.3 82.8 75.9 82.8 76.3 82.9C76.5 82.9 76.7 82.6 76.5 82.4C75.9 82.3 76.2 81.6 76 81.3C76 81.1 76.4 81.1 76.3 80.9C75.9 80.6 76.5 80.2 76.2 79.9C76.2 79.9 76.4 79.7 76.5 79.6C75.3 80.1 73.9999 79.4 72.8999 78.9C72.3999 78.6 71.6 78.3 71.5 77.6C70.6 79 69 80.3 67.7 81.7C69.9 83.5 72.3 84.6 75 85.1L74.8999 84.9Z" fill="white"/>
<path d="M46.6 72L47 75.7C47.2 77.1 47.8 78.5 47.8 80C48 79.7 47.8 79.1 48.4 79C48.2 78.6 48.8 78.2 48.4 77.8C48.6 76.8 48.7 75.8 49.6 75.1C50.6 75.1 50.7 73.7 51.8 73.6C52.3 73.6 52.7 74.3 52.9 74.5C52.2 73.7 52.3 72.4 52.5 71.5L52.1 71.7C50.2 71.7 48.2 71.8 46.4 71.6L46.6 71.9V72Z" fill="white"/>
<path d="M70 76.1L69.3 75.8C69.2 76.3 68.8 76.8 68.5 77.1C69 76.8 69.3 76.2 70 76.1Z" fill="white"/>
<path d="M53.2 92.9C52.5 92.4 51.9 91.6 51.3 90.9C50.6 90.7 49.9 90.3 49.6 89.6C49.4 89.4 49.6 89 49.4 88.8L49.2 89.1C48.5 89.4 48.2 88.7 47.7 88.4C47.1 88.1 47.4 86.9 46.5 87.1C46.2 87.1 46.1 86.7 45.9 86.5C45.1 86.5 44.9 85.7 44.5 85.3C44.5 85.5 44.5 85.7 44.3 85.8C43.5 86 43.2 85 42.7 84.6C42.6 84.6 42.5 84.8 42.2 84.8C41.7 84.4 41.4 83.8 41.4 83.1C40.7 82.3 41 81.1 41.2 80.2C41.3 80 41.7 79.8 41.6 79.5C41.8 79.1 42.2 79 42.7 79C42.9 79 43 79.2 43.1 79.4C43.4 79.2 44 79.4 43.7 78.8C44 78.5 44.6 78.4 45 78.3C45.3 78.7 45.5 79.2 45.9 79.6L45.6 79.2C45.1 77.2 44.7 75.2 44.6 73C44.6 72.9 44.3 72.8 44.5 72.7C44.5 72.3 44.5 71.9 44.5 71.6L43.9 71.8H38.2C38.5 78.3 40.3 84.2 43.2 89.6C44.6 92.3 46.8 94.7 48.6 97.2L52.7 93L53.2 92.8V92.9Z" fill="white"/>
<path d="M75.2 95.5C70.2 95.3 65.9 93.4 62.1 90.6C62.2 91.1 62.9 91.4 62.7 92C62.4 92.5 61.6 92.6 61.1 92.5C59.9 92.3 59.1 93.2 58 93.3C57 93.6 56.7 92.4 55.7 92.5C61.4 97.4 67.7999 100.5 75.3999 101L76 101.4L75.8 100.7V95.3L75.3 95.5H75.2Z" fill="white"/>
<path d="M59.8 45.3C58.5 46.2 57.4 47.3 56.1 48.1C57.6 49.1 58.8 50.6 60.2 51.9V52.3C63.8 49 68 47 72.6 46.1C73.7 46 74.8 45.6 75.8 45.9C75.8 44 75.6 41.9 75.8 40C69.9 40.3 64.6 42.1 59.9 45.3H59.8Z" fill="white"/>
<path d="M65.4 75.2C65.2 75.1 65.2 75.2 65 75.3C64.9 75.3 64.8 75.3 64.7 75.3C64.7 74.1 63.4 74.8 62.9 74.2C63.5 75.3 63.8 76.5 64.4 77.5C64.8 78.4 65.6 79.2 65.9 80.1C66.3 79.4 67.1 78.8 67.6 78.1C67.6 77.8 67.6 77.5 67.4 77.3C67.2 76.9 67.4 76.3 67.1 75.9C66.6 76.1 67.3 76.6 67.1 76.9C66.9 77 66.6 76.9 66.6 76.7C66.1 76.7 65.8 76.2 65.6 75.8C66 75.6 65.5 75.5 65.4 75.3V75.2Z" fill="white"/>
<path d="M54.9 66.6C54.7 67.6 54.8 68.7 54.4 69.6C55.1 69.3 56.2 69.4 56.9 69.5C56.4 69.3 56.9 68.7 56.6 68.3C56.6 67.8 56.5 67.2 56.9 66.8C56.9 66 57.7 65.5 57.8 64.8C58 63.9 59 64.5 59.5 64.1C59.8 63.9 59.5 63.7 59.5 63.4C59.9 62.9 60.5 62.9 61 62.6C61.3 62.1 61.8 61.5 62.4 61.2C63.6 61.2 63.6 59.5 64.8 59.5C63.2 58.3 61.7 56.7 60.3 55.3C57.5 58.7 55.6 62.4 54.8 66.6H54.9Z" fill="white"/>
<path d="M54.5 49.8L52.3 52.6C48.7 57.6 47 63.3 46.5 69.5H52.1C52.1 69.4 52.6 69.6 52.6 69.6C52.4 69.5 52.4 69.2 52.4 69C52.8 63.2 54.9 58 58.9 53.7C57.4 52.4 55.9 50.9 54.6 49.4V49.8H54.5Z" fill="white"/>
<path d="M55.7 74.9C55.7 74.5 55.2 74.4 55.3 74.1C55.7 73.3 55.3 72.1 56.3 71.8C55.6 71.9 55 72.1 54.3 71.6L54.6001 72.1C54.6001 73.4 55.2 74.7 54.9 76.1C55.1 75.7 55.2 75.2 55.7 74.9Z" fill="white"/>
<path d="M57.8 71.7L57.6 72.8C57.4 73.4 56.6 73 56.2 73.4C55.9 73.8 56.2 74.2 56.4 74.6C55.8 75.9 57.7 76.3 57.7 77.5C58.3 78.2 57.7 79.3 58.4 79.9C58.6 81.2 58.2 83 59.4 84.1L59.6 85.4C59.8 86.3 58.6 86 58.7 86.8C58.9 86.7 59 87 59 87.1C60.6 85.2 62.4 83.3 64.2 81.7L63.4 80.9C62 78.7 60.8 76.4 60.3 73.9L59.7 73.6C59.7 74.3 59.4 74.8 59.4 75.4L59.2 75.6C58.8 75.6 58.5 75.2 58.1 75C58.1 74.8 57.8 74.4 58.1 74.2C58.3 74.2 58.4 74.2 58.6 74.3C58.8 74.1 58.7 73.8 58.8 73.5C58.8 73 58.4 72.6 58.8 72.1C59.2 72.1 59.5 72.5 59.6 72.8C60 72.9 60.3 72.6 60.6 72.5C60.6 72.2 61.1 71.7 60.6 71.5C60.9 70.7 60.6 69.9 60.6 69.1C60.4 68.4 59.6 68.6 59.1 68.6C57.5 69.1 59.4 70.4 59 71.4C58.8 72 58.2 71.4 57.7 71.7H57.8Z" fill="white"/>
<path d="M71.7 87.9C72.2 87.4 72.7 87.1 73.2 86.9C71.4 87.3 69.8 86 68.3 85.2C67.4 84.5 66.3 84 65.8 83C64.6 84.5 63.2 86 61.7 87.2C62.3 87.2 62.7 87.9 63.2 88.2C66.3 90.7 70.1 92 73.6 92.8L72.6 92.4C71.9 91.6 70.8 90.6 70.8 89.4C71.5 89.2 71.4 88.3 71.7 87.8V87.9Z" fill="white"/>
<path d="M100.3 48C100.7 48.1 100.9 48.6 101.1 48.9C102.6 49.7 103 51.3 104.3 52.2C105 53.7 106.7 54.9 106.8 56.7C108.6 60.6 109.8 64.7 109.9 69.4L109.7 69.6C109.9 69.6 110.1 69.6 110.2 69.4H116.1C115.7 68.7 115.9 67.9 115.8 67.2C115 58.1 111.2 50.4 105.1 43.5C104 45 102.5 46.4 101.1 47.9H100.4L100.3 48Z" fill="white"/>
<path d="M44.5 69.6V68.8C44.7 62.3 46.8 56.5 50.5 51.3C51.4 50.3 52.1 49 53.2 48.2C51.9 47 50.5 45.5 49.1 44.1V43.6C43.2 50.1 39.6 57.4 38.5 65.8C38.3 67 38.5 68.3 38.2 69.5C40.2 69.3 42.5 69.3 44.5 69.5V69.6Z" fill="white"/>
<path d="M54.8 46.7V46.4C60.9 41 67.8 38 75.7 37.6L75.5 37.1V32.2L75.6 31.6C67.4 31.9 60.1 34.7 53.7 39.4C52.5 40.3 51.4 41.6 50.1 42.3H50.3C51.9 43.5 53.4 45.2 54.8 46.6V46.7Z" fill="white"/>
<path d="M75.7 56.1C72.4 56.5 69.4 57.6 67 60.2H67.4C67.9 60.7 68.7 60.6 69.1 61.2C69.3 61.6 68.8 61.5 68.8 61.8C68.9 61.8 69 61.9 69.1 62C69.5 62.1 69.4 61.8 69.5 61.6C70 61.1 70.1 62.1 70.6 62.1C70.9 61.9 71.4 61.9 71.7 62.2C72 61.9 72.7 62.2 72.8 61.7C73.4 61 73.1 60 74 59.6C74.3 59.8 74 60.1 74.1 60.4C74.7 60.7 75.4 59.9 76 60.5C75.5 59.2 75.7 57.5 75.7 56.1Z" fill="white"/>
<path d="M0.699951 0.100006V152.9H153.5V0.100006H0.699951ZM131.8 79.7C129.7 82.7 127.1 85.6 125.1 88.7C125.3 86.3 125.6 83.2 124.7 80.9C123.1 75.9 121.6 70.8 121.1 65.4V63.3C122.4 68.9 127.9 72.8 127.6 79C127.7 80.5 127.3 81.8 127 83.2H127.1C127.1 83.3 127.3 83 127.3 83C128.1 79.9 128.5 76.7 129.8 73.8C131.6 69.7 133.9 65.5 132.9 60.5C135.6 66.4 134.8 74.3 131.8 79.8V79.7ZM128.4 48C132 52.9 132.8 60.7 130.2 66.3C129.2 68.7 128.5 71.2 128.1 73.8C127.9 73.4 127.9 72.7 127.7 72.2C126.3 66.7 121.1 62.8 118.9 57.6C118.2 55.9 117.7 54.2 117.3 52.3C119.6 56.5 125.2 58.7 126.7 63.3C127.3 64.5 127.3 65.9 127.7 67.2C127.7 67.2 127.9 67.2 127.9 67.1C127.2 62.3 127.4 57.3 128.1 52.6C128.1 50 127.8 47.5 126.4 45.6C127.3 46.1 127.7 47.1 128.4 47.9V48ZM125.8 47C126.8 51.3 125.4 55.5 126.2 59.8C123.9 55.3 118.9 53.1 115.5 49.4C113.5 47.2 112.7 44.6 112.2 41.8C114.2 46.5 119.4 47.5 122.4 51.5C123.4 52.4 123.7 53.7 124.4 54.7H124.5C122.8 50.9 122.2 46.7 121 42.8C120.4 41.1 119.2 39.4 117.6 38.3C121.6 39.1 125 43.2 125.8 47ZM115.3 37.2C118.3 39.9 119.6 43.3 120.5 46.9L121 48C116.7 44.9 112.7 40.7 110 36.3L106.6 32.9C109.6 34.2 112.8 34.9 115.3 37.2ZM58.6 33.9C64.2 31.1 70.4 29.6 77.1 29.5C92.5 29.5 107.1 38.5 113.8 52.8C118 61 119.2 72.2 116.5 81.4C113.7 92.3 104.5 103.3 93.8999 107.8C81.8999 113.7 64.8 112.2 54.1 104.5C39.2 94.3 33.1 76.7 37.6 59.4C40.3 49.1 48.5 38.7 58.6 33.9ZM46.8 33.5C43.8 36.1 41.7 39.4 39.5 42.5C37.5 45 35 46.6 32.7 48.7C33.9 46.2 34 43.2 35.7 40.8C38.2 36.5 42.7 35 46.8 33.4V33.5ZM30.4 42.6C31.8 40.8 33.7 39.5 35.8 39C31.8 41.8 32 46.7 30.7 50.9C30.3 52.4 29.6 53.8 29.2 55.4H29.3C30 53.7 31.2 52 32.6 50.6C35.5 48 39.7 46.3 41.1 42.4C41.1 47.8 36.5 52.1 32.2 55.2C30.4 56.8 28.7 58.6 27.7 60.6C27.6 59.2 27.9 57.8 27.8 56.4C27.3 51.7 27 46.2 30.3 42.7L30.4 42.6ZM22.3 58.9C22.2 54.1 24.2 50.2 27 46.6C27 46.6 27.1 46.5 27.2 46.5C24.1 51.2 26.7 57.1 26.5 62.5L26.1 68C26.1 68 26.1 68.2 26.3 68.1C26.5 67.5 26.5 66.8 26.6 66.2C27.3 61.8 31.2 58.6 34.5 55.6C35.2 54.8 35.7999 54 36.2 53.1C35.9 55.3 35.2 57.5 34.3 59.6C31.7 64.7 26.9 68.9 26 74.7C25.6 69.1 21.8 64.9 22.2 59L22.3 58.9ZM19.9 65.7C20.2 64.2 20.5 62.6 21.2 61.3C20 67.7 24.2 72.2 25.6 77.8C26.2 79.9 26.3 82.1 27.2 84C27.2 84 27.3 84 27.4 83.9C25.3 78 28.3 72.6 31.4 68C32.1 66.8 32.6 65.4 32.9 63.9C33.2 66.5 32.6 69.6 32.2 72.4C31.5 75.9 30.4 79.2 29.4 82.6C28.8 84.7 28.9 87.1 29.3 89.3L29 89.1C26.8 85 22.4 81.8 21.1 77.3C20 73.7 19.3 69.6 20 65.7H19.9ZM19.7 78.1C20.2 84.8 27.4 88.4 30.8 94C31.6 95.1 32.3 96.4 33.3 97.4C33.1 96.7 32.5 96.1 32.2 95.3C31 93 30.6 90.2 30.9 87.3C31.2 83.9 32.7 80.7 32.1 77C35.1 83.4 34.2 91.3 35.8 98.2C36.2 99.7 37.1 101.1 37.7 102.5C31.6 98.4 23.4 94.4 20.7 86.9C19.6 84.3 19.4 81.1 19.7 78.1ZM23.3 93.6C26.7 101.3 35.2 101.9 40.8 106.6C41.8 107.5 42.9 108.3 44.1 108.9C42.8 107.7 41.3 106.3 40.4 104.8C37.1 100.2 38.2 93.7 35.8 88.7C38.1 91.4 40.1 94.2 41.5 97.3C43.5 102.3 44.3 108 49 111.8C43.9 110.1 37.9 110.6 33.5 107.5C28.6 104.5 24.2 99.4 23.3 93.7V93.6ZM32 107.9C37.4 114.1 46.3 112 53.5 113.6C54.5 113.7 55.5 114.2 56.5 114C55.6 113.5 54.4 113.5 53.5 113C47.8 111 47 104.9 43.9 100.7C47.8 103.3 51.1 106.8 54.8 110.2C57.4 112.5 60.5 113.5 63.8 114.2C63 114.5 62 114.4 61.1 114.6C55.2 116.1 48.6 118.5 42.3 116.3C38.2 115 34 111.8 31.9 107.7L32 107.9ZM105.7 122.3C99.6 124.6 93.2 122.2 88.3999 118.6C86.4999 117.4 84.7999 115.6 82.2 115.8C81.2999 115.8 80.3999 115.8 79.7 116C84.2999 118.2 88.6 121.1 92.6 124.9C91.9 125.7 91.1 126.4 90.3 127C86.5 122.9 82.3 119 77.6 116.7C76.7 116.8 75.8 117.4 75 117.8C71.2 120.2 67.4 123.3 64.5 127.1L62.1 125.1C66 121.1 70.3 118.1 75.1 115.9C70.5 114.4 67.3999 118.3 63.8999 120.3C59.7999 123.2 53.9 124.5 48.9 122.5C46.2 121.5 43.6 120 41.7 117.6C45.6 120.3 51.3999 120.6 55.8999 118.8C61.8999 116.2 68.1 112.9 75.3 114.5C76.4 114.5 77.5 115.6 78.6 114.7C83.9 113.3 90 114.3 94.6 116.7L99.3 118.6C103.7 120.2 109.4 119.8 113.2 117.1C111.3 119.5 108.6 121.3 105.9 122.2L105.7 122.3ZM112.2 116C105.3 118.6 98.4 115.4 91.8 114.4L90.5 114.2C93.6 113.4 96.7 112.5 99.2 110.2C102.9 106.7 106.2 103 110.3 100.2C107.3 104.1 106.9 109.6 101.9 112.1C100.7 112.9 99.1 113.1 97.8 113.7C99.6 113.7 101.3 113.1 103.1 112.9C109.8 111.8 117.5 112.9 122.2 107.2C120.4 111.2 116.1 114.5 112.1 115.9L112.2 116ZM116 109C112.5 109.9 108.8 110.2 105.3 111.4C111.1 106.5 110.7 98.8 114.6 93C115.8 91.4 116.8 89.6 118.3 88.1C116 92.8 117 98.9 114.3 103.5C113.3 105.3 111.8 107.1 110.1 108.5C110.6 108.5 111.1 108 111.6 107.7C116 103.3 121.7 102.1 126.4 98.6C128.3 97.1 130 95.1 130.9 93C130 100.2 122.8 107 116 109.2V109ZM124.7 96.7C122 98.5 119.2 100.1 116.6 102.1V101.9C120.6 95.3 118.6 86.2 121.1 78.9L122 76.5C121.5 81 123.5 84.9 123.3 89.5C123.2 92.3 122.3 94.7 120.8 96.9H121C123 94.3 124.5 91.6 126.8 89.2C130.3 85.8 134 82.3 134.4 77.5C135.6 85.4 131.2 92.4 124.6 96.9L124.7 96.7Z" fill="white"/>
<path d="M110 71.6L109.7 71.4L109.9 72C109.6 78.8 107.3 84.8 103.4 90.1C102.6 91 101.9 92.1 101 92.7C102.5 93.9 104.3 95.8 105.5 97.2L105.7 96.9C111.9 89.8 115.5 81.6 115.9 72L116.1 71.5H115.8C115.8 71.6 110 71.7 110 71.7V71.6Z" fill="white"/>
<path d="M75.4 48.1C70.2 48.5 65.7 50.6 61.8 53.9C63.4 55 64.7001 56.7 66.1001 58C66.2001 57.9 66.3 57.7 66.4 57.6C68.3 56.2 70.3001 55 72.6001 54.4C73.6001 54.3 74.6 53.8 75.7 54.1C75.5 52.2 75.5 50.1 75.7 48.1L75.4 48.3V48.1Z" fill="white"/>
<path d="M78 37.1C78 36.9 78 36.8 78.2 36.6C78.5 36.4 78.7 36.6 78.8 36.9C78.8 37.2 78.9 37.7 78.8 37.8C79 37.8 79.2 37.7 79.4 37.7C84.1 38 88.4 39.4 92.3 41.6C93.1 41.1 94.1 40.6 94.9 41.3C95.9 40.9 96.1 42.1 96.9 42.3C97.9 42.9 98.9 43.9 99.1 45.1C99.3 45.5 99.9 45.7 99.9 46.1C100.6 44.7 101.9 43.7 103 42.5L103.7 42.2C97.5 36.3 90.2 33.1 82.1 32C80.8 31.8 79.4 31.9 78.1 31.5C78.3 33.1 78.3 35.3 78.1 37.1H78ZM96.3 39.8C96.7 39.9 97.1 40.1 97.2 40.5C97.1 41 97.6 41.4 97.3 41.7C96.2 42 96.1 40.7 95.2 40.4C95.1 40.2 95 40 95.1 39.8C95.5 39.3 95.9 40.1 96.3 39.7V39.8ZM78.8 36.1C79 35.8 79.4 35.9 79.7 36L82.6 34.7C83.8 34.8 85.1 34.9 85.8 35.9C85.1 36.7 84.1 37.1 83.2 36.7C81.9 37 80 37.7 78.9 36.4C78.9 36.3 78.7 36.2 78.9 36.1H78.8Z" fill="white"/>
<path d="M78 45.9C78.8 45.6 79.6 45.9 80.3 45.9C84.3 46.6 88.1 47.8 91.3 50.3C90.9 49.9 90.4 49.4 90.4 48.8C90.4 48.8 90.5 48.7 90.6 48.8C90.6 48.2 90 47.8 89.9 47.3C90 47.2 90.1 47.1 90.3 47.1C91 47.8 91.6 48.5 92.1 49.2C92.5 49 92.9 49.3 93.2 49.5C93.8 49.8 93.4 50.6 93.9 51C93.9 52.2 95.4 52.9 95.4 54.1C95.4 54.4 95.8 54.1 95.9 54.3L97.1 55.8C96.9 56.1 97.1 56.4 97.3 56.6C97.9 56.8 98.2 56.2 98.7 56.3C99.5 56.7 98.6 57.3 98.7 57.8C99 57.8 99.4 57.6 99.6 57.8C99.7 58.2 99.2 58.5 99.1 58.8C99.1 59.2 99.5 59.1 99.8 59.2C100.2 59.2 100.4 59.6 100.3 59.9C101.3 61 100 62.1 100.5 63.2C100.8 63.9 100.5 64.6 100 65.2C100 66.1 99.2 66.6 98.9 67.4L97.9 67.6C97.4 68.2 98.4 68.8 97.9 69.2H100.2L100 69C99.7 68.1 99.8 66.9 100.3 66.1C100.6 65.4 100.7 64.5 101.4 63.9C101.5 63.9 101.8 63.6 101.9 63.9C101.9 64.6 101.9 65.4 101.6 66C102.3 66.9 102.2 68.2 102.2 69.3C104.2 69.2 106.2 69.1 108.2 69.2L108 68.8C107.7 65 106.9 61.5 105.3 58.2C104.9 58.2 104.6 58.6 104.1 58.4C103.9 58.4 103.8 58.2 103.9 58C103.1 57.2 102.6 56.2 101.7 55.5C100.7 55.6 100.2 54.4 99.3 54.3C98.5 54 99 52.6 97.8 53C97.2 52.8 96.6 52.3 96.5 51.6C96.5 50.5 96.3 49.4 95.3 48.7C94.6 48.4 94.3 49.4 93.5 49.2C93.1 49 93.3 48.5 93.2 48.1C93.1 47.8 92.7 47.6 92.8 47.2C93.8 45.9 91.6 46 92.1 44.7C92 43.8 91.1 43.5 90.6 42.7C87.4 41.3 84.3 40.3 80.7 39.9C79.8 39.8 79 39.9 78.3 39.6L78.5 40C78.5 41.9 78.5 43.9 78.4 45.7L78 45.9Z" fill="white"/>
<path d="M75.9 65.3C75.3 66.3 74.3 66.5 73.3 66.8C73 67.1 73.1 67.8 72.5 67.8C72.3 68.2 71.6 68.5 71.9 69.2C71.6 69.9 71.7001 70.8 71.6001 71.5C70.4001 72.3 70.7001 70.5 70.1001 70.1L69.9 70.4C69.7 70.4 69.5 70.4 69.3 70.2C69.1 70.2 68.8001 70.1 68.6001 70.2C68.3001 70.6 67.9 71 68 71.6C67.9 72 67.3 71.8 67.3 72.2C68 72.2 68.7 72.1 69.4 71.9C69.9 72 70.3 71.7 70.7 71.7C70.9 71.7 71 71.9 71 72.2H71.2C71.5 72 71.7 71.6 71.5 71.2C71.5 70.8 72 70.8 72.3 70.7C72.6 70.8 72.4 71.1 72.4 71.3C73.3 71.6 72.2001 72.3 72.1001 72.8C71.9001 73.2 72.1 74.1 71.3 73.9C71.2 73.9 71.1001 73.7 71.1001 73.6H71C71 73.9 71.2001 74.4 71.6001 74.5C72.2001 74 72.2 73.2 73 73.1C73.4 72.7 72.8 72 73.5 71.6C74.6 71.6 75.7 71.1 76.5 72C76.5 72.4 76.3 72.5 76.5 72.8C76.3 73.3 76.2 73.8 75.8 74.2C75.8 74.5 75.8001 74.8 75.6001 75C75.3001 76.2 73.9001 75.7 73.1001 76.1C74.4001 77.1 75.9001 77.4 77.6001 77.3C78.5001 77.3 78.1 76.2 78.5 75.7C78.8 74.3 80.1 75.3 80.9 74.9C81.2 74.3 81.5001 73.7 81.6001 73C81.1001 72.7 80.9001 72.1 81.1001 71.5C80.8001 71 80.8 70.2 80 70.1C79.9 69.9 80 69.7 80 69.6C80 69.2 80.4 69 80.5 68.7C80 68.4 80.2 67.7 80.2 67.3C79.4 67.5 79.3 66.5 78.7 66.3C78.6 65.8 78.1001 65.8 77.6001 65.7C76.6001 66.2 76.5 65 75.7 64.7C75.7 64.5 75.5 64.1 75.7 64C76.1 63.7 76.6 64 77 64L76.7 63.8C76.4 63.4 75.7 63.7 75.2 63.8C75.6 64.2 75.4 64.9 75.7 65.5L75.9 65.3Z" fill="white"/>
</svg>
