<svg xmlns="http://www.w3.org/2000/svg" width="941.216" height="932.83" viewBox="0 0 941.216 932.83">
  <path id="Union" d="M135.739,133.385a462.077,462.077,0,0,1,648.9.035l43.125,52.78L458.418,551.328,364.334,457.7l278.3-276.143a337.259,337.259,0,0,0-421.545,42.02,329.651,329.651,0,0,0-.5,468.859l.085.084a322.914,322.914,0,0,0,236.376,97.343l.082,0a340.918,340.918,0,0,0,236.1-96.543c63.229-61.515,108.594-150.534,111.4-238.683H920.155c.453,58.736-13.209,122.962-36.453,178a435.487,435.487,0,0,1-99.852,144.985,460.875,460.875,0,0,1-648.883-.007A437.532,437.532,0,0,1,1.013,455.25,437.781,437.781,0,0,1,135.739,133.385Z" transform="translate(10.049 10.666)" fill="none" stroke="#000" stroke-width="22" fill-rule="evenodd" opacity="0.03"/>
</svg>
