<svg id="ic_testing" xmlns="http://www.w3.org/2000/svg" width="40.803" height="49.813" viewBox="0 0 40.803 49.813">
  <path id="Path_4559" data-name="Path 4559" d="M15475.075,14874.566a2.385,2.385,0,0,1-1.705-.713,2.458,2.458,0,0,1-.715-1.568,9.341,9.341,0,0,1-2.609-.959,2.4,2.4,0,0,1-1.639.645h0a2.412,2.412,0,0,1-1.719-.719,2.494,2.494,0,0,1-.252-3.172c-.857.494-1.785,1-2.818,1.555a1.78,1.78,0,0,1-1.7-.01c-10.4-5.527-16.037-10.5-16.037-20.928v-18.234a.8.8,0,0,1,.676-.793l2.275-.357a41.123,41.123,0,0,0,10.941-3.264l2.67-1.223a.792.792,0,0,1,.652,0l3.387,1.492a41.4,41.4,0,0,0,11.2,3.158l1.291.168a.8.8,0,0,1,.7.795v18.236a22.346,22.346,0,0,1-.561,5.15c.15.076.3.156.443.242l.1-.1a2.4,2.4,0,0,1,1.73-.732h0a2.4,2.4,0,0,1,1.719.721,2.487,2.487,0,0,1-.006,3.477l-.076.08a9.729,9.729,0,0,1,1.01,2.361h.23a2.4,2.4,0,0,1,1.707.709,2.438,2.438,0,0,1,.719,1.75,2.465,2.465,0,0,1-2.436,2.469l-.1,0a10.015,10.015,0,0,1-.912,2.436l.143.145a2.492,2.492,0,0,1,0,3.479,2.427,2.427,0,0,1-1.734.732h0a2.391,2.391,0,0,1-1.707-.709,9.591,9.591,0,0,1-2.4,1.145v.063a2.469,2.469,0,0,1-2.437,2.471Zm-4.729-4.924a7.894,7.894,0,0,0,3.209,1.164.808.808,0,0,1,.7.8.108.108,0,0,0,0,.037v.467a.853.853,0,0,0,.252.609.8.8,0,0,0,.572.242h.008a.861.861,0,0,0,.842-.867l0-.494a.755.755,0,0,0-.006-.094.809.809,0,0,1,.605-.859,8.013,8.013,0,0,0,3.012-1.451.8.8,0,0,1,1.113.137.6.6,0,0,0,.059.066l.342.348a.816.816,0,0,0,.582.244.839.839,0,0,0,.6-.254.876.876,0,0,0,.006-1.221l-.342-.348a.9.9,0,0,0-.125-.1.81.81,0,0,1-.232-1.092,8.289,8.289,0,0,0,1.152-3.121.827.827,0,0,1,.322-.527.817.817,0,0,1,.6-.143c.045.008.092.008.139.016l.482,0a.862.862,0,0,0,.846-.867.831.831,0,0,0-.826-.85h-.484a1.149,1.149,0,0,0-.184.021.776.776,0,0,1-.611-.1.817.817,0,0,1-.352-.516,8.231,8.231,0,0,0-1.295-3.035.8.8,0,0,1,.176-1.1.726.726,0,0,0,.1-.088l.346-.35a.873.873,0,0,0,0-1.223.8.8,0,0,0-.578-.24.847.847,0,0,0-.6.25l-.342.35a.961.961,0,0,0-.092.117.8.8,0,0,1-1.109.205,7.98,7.98,0,0,0-1.33-.736.768.768,0,0,1-.109-.047,8.1,8.1,0,0,0-1.619-.479.8.8,0,0,1-.652-.852c0-.023.006-.043.006-.066v-.486a.859.859,0,0,0-.248-.611.792.792,0,0,0-.58-.238.855.855,0,0,0-.844.867l0,.492,0,.051a.813.813,0,0,1-.646.857,8.116,8.116,0,0,0-3.146,1.344.8.8,0,0,1-1.029-.088l-.307-.312a.815.815,0,0,0-.582-.246.841.841,0,0,0-.6.256.875.875,0,0,0-.006,1.223l.318.32a.81.81,0,0,1,.1,1.016,8.226,8.226,0,0,0-1.3,3.3.8.8,0,0,1-.787.674h-.332a.863.863,0,0,0-.842.869.838.838,0,0,0,.246.609.789.789,0,0,0,.582.24l.4,0h0a.8.8,0,0,1,.785.645,8.309,8.309,0,0,0,.752,2.139.149.149,0,0,0,.016.021c.016.031.031.063.043.092a8.083,8.083,0,0,0,.623.982.8.8,0,0,1-.072,1.043l-.25.254a.874.874,0,0,0-.01,1.219.815.815,0,0,0,.582.246.826.826,0,0,0,.6-.254l.344-.35a.807.807,0,0,1,.578-.24A.794.794,0,0,1,15470.347,14869.643Zm-9.91-42.131a42.793,42.793,0,0,1-11.363,3.393l-1.594.246v17.547c0,9.666,5.117,14.156,15.2,19.514a.207.207,0,0,0,.182.01c1.074-.572,2.025-1.1,2.9-1.6a9.9,9.9,0,0,1-.455-1.3,2.37,2.37,0,0,1-1.482-.7,2.429,2.429,0,0,1-.719-1.748,2.472,2.472,0,0,1,2.105-2.447,9.867,9.867,0,0,1,1.082-2.738,2.494,2.494,0,0,1,.125-3.35,2.415,2.415,0,0,1,1.734-.727,2.379,2.379,0,0,1,1.557.57,9.535,9.535,0,0,1,2.553-1.094,2.47,2.47,0,0,1,2.439-2.447,2.341,2.341,0,0,1,1.719.711,2.448,2.448,0,0,1,.719,1.717c.16.039.318.086.475.135a20.965,20.965,0,0,0,.461-4.533v-17.531l-.6-.076a43.119,43.119,0,0,1-11.635-3.281l-3.055-1.344Zm23.818,33.164h0Zm-9.395,6.99a5.106,5.106,0,0,1-3.645-1.5,4.958,4.958,0,0,1-1.463-3.543,5.17,5.17,0,0,1,8.814-3.578,4.966,4.966,0,0,1,1.463,3.543,5.139,5.139,0,0,1-5.145,5.08Zm-3.506-5.043a3.364,3.364,0,0,0,.992,2.4,3.524,3.524,0,0,0,2.514,1.033h.018a3.54,3.54,0,0,0,3.555-3.479,3.394,3.394,0,0,0-1-2.4,3.529,3.529,0,0,0-2.514-1.033h-.016A3.535,3.535,0,0,0,15471.354,14862.623Zm7.881-.039h0Zm-20.143-8.814-5.117-3.412a.8.8,0,0,1,.887-1.338l4.572,3.049,11.125-11.137a.8.8,0,1,1,1.131,1.135l-11.592,11.6a.8.8,0,0,1-1.006.1Z" transform="translate(-15445.88 -14824.754)" fill="#51b05f"/>
</svg>
