<svg id="ic_Deployment" xmlns="http://www.w3.org/2000/svg" xmlns:xlink="http://www.w3.org/1999/xlink" width="56.345" height="56.346" viewBox="0 0 56.345 56.346">
  <defs>
    <linearGradient id="linear-gradient" x1="0.5" y1="-0.188" x2="0.5" y2="1" gradientUnits="objectBoundingBox">
      <stop offset="0" stop-color="#52a359"/>
      <stop offset="1" stop-color="#008cff"/>
    </linearGradient>
  </defs>
  <path id="Path_4546" data-name="Path 4546" d="M141.97,35.334a2.817,2.817,0,0,0-2.817-2.817H130.7a15,15,0,0,0-.094-1.64c-.022-.2-.062-.4-.094-.6-.05-.33-.1-.657-.172-.985-.054-.243-.121-.482-.188-.722-.073-.269-.148-.535-.236-.8s-.179-.508-.282-.759-.2-.47-.3-.706-.228-.5-.356-.738-.262-.47-.4-.7-.251-.434-.391-.643c-.245-.368-.509-.723-.784-1.068-.047-.058-.086-.121-.134-.179h0a15.218,15.218,0,0,0-1.127-1.221c-.051-.048-.1-.094-.156-.141a14.838,14.838,0,0,0-1.127-.968c-.031-.023-.057-.052-.088-.075l-.55-.418-.013.008a14.979,14.979,0,0,0-21.974,5.665l-.016,0-.188.394c-.01.023-.018.048-.028.071q-.295.645-.527,1.32c-.021.058-.044.116-.064.174-.143.429-.263.867-.366,1.315-.02.082-.045.163-.063.244-.094.419-.156.845-.21,1.276-.012.1-.035.2-.046.3h0a15.263,15.263,0,0,0-.075,1.584H92.2a2.817,2.817,0,0,0-2.817,2.817V68.2H87.5V71.02a2.817,2.817,0,0,0,2.817,2.817h50.71a2.817,2.817,0,0,0,2.817-2.817V68.2H141.97ZM102.6,31.2a13.021,13.021,0,0,1,.966-3.772,5.832,5.832,0,0,1,5.887,2.308l.442.619a5.8,5.8,0,0,1,1.089,3.392,7.72,7.72,0,0,0,4.581,7.049,7.342,7.342,0,0,1,3.936,4.287c-.288.094-.579.165-.869.233-.029.007-.056.016-.086.023-.207.047-.416.082-.625.118s-.407.069-.613.094c-.156.02-.311.039-.47.052-.384.034-.77.059-1.163.059a13.161,13.161,0,0,1-13.143-13.147c0-.443.023-.882.067-1.315Zm13.081,16.34c.474,0,.947-.026,1.417-.071.27-.025.532-.071.8-.11.188-.028.369-.05.552-.086.353-.066.7-.15,1.041-.24.086-.023.175-.043.261-.067.376-.106.751-.23,1.111-.364.039-.015.08-.024.12-.039l.441-.166c.038-.016.076-.027.114-.043l.208-.078,0-.02h0a15.094,15.094,0,0,0,7.472-7.246l.02-.009.137-.3c.009-.02.015-.04.023-.06.072-.161.144-.322.21-.485h6.741V64.446H95.016V38.152h6.741a15.041,15.041,0,0,0,13.919,9.391Zm12.106-9.919-1.3.647a2.9,2.9,0,0,1-2.739-.076l-.419-.239a2.906,2.906,0,0,1-.613-4.577,4.789,4.789,0,0,0,.771-5.755l-.579-1.008a2.9,2.9,0,0,1,.834-3.8l.43-.307q.511.436.977.922c.081.083.157.172.235.258q.324.352.619.724.171.218.33.443c.145.2.282.4.417.61.119.188.235.376.345.563s.2.376.3.563c.108.213.215.426.311.645.083.188.156.376.229.573.086.223.175.448.249.677.068.211.122.427.179.642s.121.432.168.657c.056.267.094.538.133.81.026.179.063.353.082.535h0a13.262,13.262,0,0,1,.078,1.39c0,.445-.023.885-.067,1.315a13.1,13.1,0,0,1-.974,3.791ZM115.676,19.37a13.047,13.047,0,0,1,6.9,1.978,4.764,4.764,0,0,0-1.3,6.2l.576,1.009a2.91,2.91,0,0,1-.47,3.494,4.784,4.784,0,0,0,1.009,7.534l.419.239a4.735,4.735,0,0,0,3.4.516,13.206,13.206,0,0,1-4.97,4.067,9.225,9.225,0,0,0-4.923-5.324,5.84,5.84,0,0,1-3.465-5.332,7.669,7.669,0,0,0-1.437-4.483l-.441-.62a7.7,7.7,0,0,0-6.377-3.187,13.135,13.135,0,0,1,11.073-6.09ZM91.26,35.335A.939.939,0,0,1,92.2,34.4h8.582a14.814,14.814,0,0,0,.364,1.878H93.138V66.325h45.076V36.274h-8.007c.039-.151.083-.3.117-.454.013-.058.032-.114.045-.173.087-.41.149-.829.2-1.251h8.582a.939.939,0,0,1,.939.939V68.2H91.26ZM141.97,71.02a.939.939,0,0,1-.939.939H90.321a.939.939,0,0,1-.939-.939v-.939H141.97Z" transform="translate(-87.504 -17.491)" fill="url(#linear-gradient)"/>
  <path id="Path_4547" data-name="Path 4547" d="M282.4,331.763h7.513v-3.756h3.92l-7.676-8.956-7.676,8.956h3.92Zm3.756-9.826,3.593,4.191h-1.715v3.756h-3.756v-3.756H282.56Z" transform="translate(-257.982 -286.686)" fill="url(#linear-gradient)"/>
</svg>
