<svg id="ic_design" xmlns="http://www.w3.org/2000/svg" xmlns:xlink="http://www.w3.org/1999/xlink" width="46.569" height="55.196" viewBox="0 0 46.569 55.196">
  <defs>
    <linearGradient id="linear-gradient" x1="0.5" y1="-0.221" x2="0.5" y2="1" gradientUnits="objectBoundingBox">
      <stop offset="0" stop-color="#52a359"/>
      <stop offset="1" stop-color="#038dfa"/>
    </linearGradient>
  </defs>
  <path id="Path_4561" data-name="Path 4561" d="M14602.163,15038.417a.864.864,0,0,1-.864-.86v-3.933l-8.035-15.274a.921.921,0,0,1,0-.864l12.21-23.784a.867.867,0,0,1,.758-.465h4.106a.864.864,0,0,1,.759.465l12.213,23.743a.936.936,0,0,1,0,.86l-8.038,15.319v3.933a.864.864,0,0,1-.865.86Zm.854-1.725h10.537v-2.416h-10.537Zm-8.028-18.8,7.692,14.658h11.209l7.691-14.658-11.76-22.905h-.672v15.522a5.316,5.316,0,1,1-1.725,0v-15.522h-.676Zm13.3-5.711a3.725,3.725,0,1,0,.057,0Zm18.973-2a.857.857,0,0,1-.86-.86v-3.5a.86.86,0,0,1,.86-.86h.69a19.024,19.024,0,0,0-2.087-6.442c-3.691-6.884-10.617-9.359-13.625-10.118a4.061,4.061,0,0,1-7.9,0c-3.012.792-9.937,3.269-13.636,10.16a19.116,19.116,0,0,0-2.079,6.408h.69a.862.862,0,0,1,.611.253.853.853,0,0,1,.253.607v3.5a.864.864,0,0,1-.864.86h-3.449a.864.864,0,0,1-.861-.86v-3.5a.864.864,0,0,1,.861-.864h1.026a20.915,20.915,0,0,1,2.354-7.242,21.9,21.9,0,0,1,10.417-9.484h-4.311a2.536,2.536,0,1,1,0-1.725h8.941a4.07,4.07,0,0,1,7.986,0h8.944a2.614,2.614,0,1,1,.049,1.713h-4.31a21.909,21.909,0,0,1,10.417,9.488,20.941,20.941,0,0,1,2.3,7.25h1.026v0a.857.857,0,0,1,.864.872v3.491a.865.865,0,0,1-.253.611.875.875,0,0,1-.611.249Zm.864-3.449v1.725h1.725v-1.767Zm-41.395,1.725h1.725v-1.725h-1.725Zm21.5-23.483a2.426,2.426,0,1,0,.014,0Zm-15.927,1.782a.861.861,0,0,0,.607,1.472v.026a.869.869,0,0,0,.619-.265.889.889,0,0,0-.291-1.423.876.876,0,0,0-.328-.064A.849.849,0,0,0,14592.3,14986.757Zm30.5.607a.861.861,0,1,0,.86-.86A.857.857,0,0,0,14622.8,14987.364Z" transform="translate(-14585.002 -14983.221)" fill="url(#linear-gradient)"/>
</svg>
