<svg id="ic_Implementing" xmlns="http://www.w3.org/2000/svg" xmlns:xlink="http://www.w3.org/1999/xlink" width="72.035" height="68.877" viewBox="0 0 72.035 68.877">
  <defs>
    <linearGradient id="linear-gradient" x1="0.479" y1="-0.266" x2="0.5" y2="1" gradientUnits="objectBoundingBox">
      <stop offset="0" stop-color="#52a359"/>
      <stop offset="1" stop-color="#008cff"/>
    </linearGradient>
  </defs>
  <path id="Path_4497" data-name="Path 4497" d="M8763.365,11566.863l-9.354-6.566-9.348,6.563a.882.882,0,0,1-.51.163.9.9,0,0,1-.523-.173l0,0a.882.882,0,0,1-.314-.98l3.5-10.612-9.258-6.659a.878.878,0,0,1,.508-1.594h11.533l3.57-10.692a.88.88,0,0,1,1.67,0l3.609,10.7h11.5a.885.885,0,0,1,.537,1.583l-9.262,6.663,3.492,10.608a.877.877,0,0,1-.316.987.894.894,0,0,1-.527.177A.877.877,0,0,1,8763.365,11566.863Zm-15.006-12.646a.876.876,0,0,1,.316.984l-2.865,8.7,7.68-5.4a.879.879,0,0,1,1.012,0l7.689,5.384-2.865-8.693a.864.864,0,0,1,.318-1l7.566-5.42h-9.4a.886.886,0,0,1-.832-.6l-2.975-8.81-2.939,8.81a.89.89,0,0,1-.834.6h-9.439Zm-39.646-4.931a5.184,5.184,0,1,1,5.182,5.186A5.188,5.188,0,0,1,8708.713,11549.286Zm1.76,0a3.424,3.424,0,1,0,3.422-3.422A3.427,3.427,0,0,0,8710.473,11549.286Zm9.158,4.342a.287.287,0,0,1-.236-.329l.191-1.176a.276.276,0,0,1,.113-.186.289.289,0,0,1,.215-.05,10.917,10.917,0,0,0,1.809.115,10.5,10.5,0,0,0,1.125-.062.281.281,0,0,1,.311.251l.137,1.183a.287.287,0,0,1-.252.318,12.182,12.182,0,0,1-1.32.072A12.7,12.7,0,0,1,8719.631,11553.628Zm4.75-.465-.312-1.149a.279.279,0,0,1,.031-.219.285.285,0,0,1,.176-.133,9.473,9.473,0,0,0,2.666-1.15.287.287,0,0,1,.395.094l.627,1.008a.287.287,0,0,1-.09.394,11.5,11.5,0,0,1-3.145,1.358.263.263,0,0,1-.072.01A.281.281,0,0,1,8724.381,11553.163Zm4.473-2.2-.771-.905a.28.28,0,0,1,.033-.4,9.951,9.951,0,0,0,1.914-2.186.278.278,0,0,1,.18-.123.282.282,0,0,1,.215.039l1,.644a.287.287,0,0,1,.088.394,11.632,11.632,0,0,1-2.256,2.571.282.282,0,0,1-.4-.033Zm3.1-3.9-1.09-.489a.29.29,0,0,1-.143-.378,9.6,9.6,0,0,0,.789-2.793.259.259,0,0,1,.105-.188.289.289,0,0,1,.213-.061l1.182.152a.261.261,0,0,1,.189.106.279.279,0,0,1,.059.212,11.616,11.616,0,0,1-.928,3.3.286.286,0,0,1-.158.149.262.262,0,0,1-.1.021A.279.279,0,0,1,8731.955,11547.06Zm-20.529-3.26a.287.287,0,0,1-.285-.285v-3.178a.285.285,0,0,1,.285-.284h1.193a.285.285,0,0,1,.285.284v3.178a.287.287,0,0,1-.285.285Zm20.455-1.59a.285.285,0,0,1-.287-.285v-3.175a.285.285,0,0,1,.287-.284h1.191a.282.282,0,0,1,.283.284v3.175a.282.282,0,0,1-.283.285Zm-20.455-3.175a.287.287,0,0,1-.285-.285v-3.177a.287.287,0,0,1,.285-.285h1.193a.287.287,0,0,1,.285.285v3.177a.287.287,0,0,1-.285.285Zm20.455-1.59a.286.286,0,0,1-.287-.285v-3.174a.287.287,0,0,1,.287-.288h1.191a.284.284,0,0,1,.283.288v3.174a.283.283,0,0,1-.283.285Zm21.521-2.627a.29.29,0,0,1-.289-.286v-3.174a.289.289,0,0,1,.289-.288h1.189a.286.286,0,0,1,.285.288v3.174a.286.286,0,0,1-.285.286Zm-41.977-.548a.287.287,0,0,1-.285-.284v-3.179a.285.285,0,0,1,.285-.284h1.193a.285.285,0,0,1,.285.284v3.179a.287.287,0,0,1-.285.284Zm20.455-1.59a.285.285,0,0,1-.287-.285v-3.177a.288.288,0,0,1,.287-.286h1.191a.285.285,0,0,1,.283.286v3.177a.282.282,0,0,1-.283.285Zm-32.213-2.436a.884.884,0,0,1-.883-.882v-30.3a.883.883,0,0,1,.883-.881h16.006a.291.291,0,0,1,.146-.037h1.188a.293.293,0,0,1,.16.047h.039a.862.862,0,0,1,.623.258l7.17,7.17a.876.876,0,0,1,.258.623v23.116a.112.112,0,0,1,0,.027.882.882,0,0,1-.879.854Zm.881-1.763H8723.5v-20.562h-7.09a.881.881,0,0,1-.883-.878v-7.095h-14.975Zm16.738-22.322h5.758l-5.758-5.758Zm36.115,23.893a.287.287,0,0,1-.289-.284v-3.175a.289.289,0,0,1,.289-.287h1.189a.285.285,0,0,1,.285.287v3.175a.283.283,0,0,1-.285.284Zm-21.521-2.137a.285.285,0,0,1-.287-.285v-3.174a.288.288,0,0,1,.287-.288h1.191a.285.285,0,0,1,.283.288v3.174a.282.282,0,0,1-.283.285Zm21.521-2.627a.287.287,0,0,1-.289-.286v-2.12a.287.287,0,0,1,.289-.284h1.189a.283.283,0,0,1,.285.284v2.12a.284.284,0,0,1-.285.286Zm-36.459-1.7-4.914-3.5-4.908,3.5a.885.885,0,0,1-1.033-.011s0,0-.006,0a.885.885,0,0,1-.311-.984l1.834-5.652-4.867-3.548a.885.885,0,0,1,.518-1.6h6.057l1.875-5.7a.878.878,0,0,1,1.67-.007l1.895,5.7h6.041a.909.909,0,0,1,.848.617.884.884,0,0,1-.318.987l-4.867,3.548,1.832,5.652a.87.87,0,0,1-.314.984.84.84,0,0,1-.52.179A.891.891,0,0,1,8716.943,11523.593Zm-4.418-5.312,3.254,2.32-1.209-3.728a.882.882,0,0,1,.318-.987l3.188-2.342H8714.1a.878.878,0,0,1-.838-.6l-1.256-3.776-1.242,3.776a.872.872,0,0,1-.832.609h-3.992l3.2,2.333a.886.886,0,0,1,.32.987l-1.211,3.728,3.25-2.316a.891.891,0,0,1,1.027,0Zm19.355,4.871a.285.285,0,0,1-.287-.285v-3.184a.288.288,0,0,1,.086-.2.294.294,0,0,1,.205-.083l1.191.017a.285.285,0,0,1,.279.285v3.167a.282.282,0,0,1-.283.285Zm15.693-6.2a5.184,5.184,0,1,1,5.182,5.186A5.19,5.19,0,0,1,8747.574,11516.952Zm1.762,0a3.423,3.423,0,1,0,3.424-3.422A3.429,3.429,0,0,0,8749.336,11516.952Zm-16.174,1.537-1.178-.191a.287.287,0,0,1-.186-.116.28.28,0,0,1-.049-.212,11.474,11.474,0,0,1,1.049-3.264.3.3,0,0,1,.168-.146.283.283,0,0,1,.217.017l1.064.531a.291.291,0,0,1,.129.384,9.675,9.675,0,0,0-.889,2.761.274.274,0,0,1-.115.185.266.266,0,0,1-.166.056C8733.191,11518.492,8733.178,11518.489,8733.162,11518.489Zm1.557-4.177-.979-.683a.289.289,0,0,1-.07-.4,11.728,11.728,0,0,1,2.348-2.491.27.27,0,0,1,.209-.06.29.29,0,0,1,.191.105l.738.938a.288.288,0,0,1-.049.4,10.024,10.024,0,0,0-1.992,2.117.289.289,0,0,1-.182.115.231.231,0,0,1-.053,0A.3.3,0,0,1,8734.719,11514.313Zm14.568-2.233a9.7,9.7,0,0,0-2.533-1.426.3.3,0,0,1-.158-.151.293.293,0,0,1-.006-.219l.43-1.113a.286.286,0,0,1,.369-.163,11.3,11.3,0,0,1,2.98,1.687.285.285,0,0,1,.047.4l-.729.935a.285.285,0,0,1-.225.109A.275.275,0,0,1,8749.287,11512.079Zm-11.182-.743a.288.288,0,0,1-.174-.133l-.6-1.032a.284.284,0,0,1,.105-.392,11.631,11.631,0,0,1,3.191-1.246.285.285,0,0,1,.34.215l.264,1.16a.284.284,0,0,1-.217.342,9.764,9.764,0,0,0-2.7,1.057.275.275,0,0,1-.143.039A.263.263,0,0,1,8738.105,11511.336Zm7.252-1.1a9.683,9.683,0,0,0-2.127-.232c-.256,0-.514.011-.766.03a.286.286,0,0,1-.209-.069.3.3,0,0,1-.1-.2l-.086-1.188a.286.286,0,0,1,.262-.308c.295-.023.6-.034.9-.034a11.688,11.688,0,0,1,2.508.272.282.282,0,0,1,.182.125.287.287,0,0,1,.037.215l-.262,1.167a.292.292,0,0,1-.279.226A.453.453,0,0,1,8745.357,11510.236Z" transform="translate(-8698.785 -11498.149)" fill="url(#linear-gradient)"/>
</svg>
