<svg id="ic_planning" xmlns="http://www.w3.org/2000/svg" xmlns:xlink="http://www.w3.org/1999/xlink" width="56.421" height="58.474" viewBox="0 0 56.421 58.474">
  <defs>
    <linearGradient id="linear-gradient" x1="0.5" y1="-0.193" x2="0.5" y2="1" gradientUnits="objectBoundingBox">
      <stop offset="0" stop-color="#52a359"/>
      <stop offset="1" stop-color="#048df8"/>
    </linearGradient>
  </defs>
  <path id="Path_4445" data-name="Path 4445" d="M113.416,34.962H93.891a.831.831,0,0,0-.831.831V71.338a.831.831,0,0,0,.831.831H144.1a5.382,5.382,0,0,0,5.381-5.381v-35.8a5.635,5.635,0,0,0-5.635-5.634H132.8a.831.831,0,0,0-.831.831v8.776H122.1V18.038a4.342,4.342,0,0,0-4.236-4.341l-.108,0a4.342,4.342,0,0,0-4.343,4.343Zm34.4.023a5.619,5.619,0,0,1-3.972,1.639H122.1V47.559a.842.842,0,0,1-.113.421l-3.511,6.005a.833.833,0,0,1-1.438,0l-3.51-6.005a.842.842,0,0,1-.113-.421V36.624H94.722V70.507H144.1a3.72,3.72,0,0,0,3.719-3.719Zm-7.36,27.486-1.6-1.6a.833.833,0,0,0-1.178,1.178l1.6,1.6-1.6,1.6a.833.833,0,1,0,1.178,1.178l1.6-1.6,1.6,1.6a.833.833,0,0,0,1.178-1.178l-1.6-1.6,1.6-1.6a.833.833,0,0,0-1.178-1.178ZM133,44.73h-.005a.823.823,0,0,0-.364.2l-.018.016-4.065,4.036a.831.831,0,0,0,1.171,1.179l2.65-2.629v5.5a8.849,8.849,0,0,1-8.849,8.849H112.334a3.957,3.957,0,1,0,0,1.662h11.183a10.511,10.511,0,0,0,10.511-10.511V47.553l2.585,2.6a.831.831,0,0,0,1.18-1.171l-4-4.032c-.015-.015-.031-.03-.047-.045l0,0a.833.833,0,0,0-.316-.169A.824.824,0,0,0,133,44.73ZM108.464,60.411a2.3,2.3,0,1,1-2.3,2.3A2.3,2.3,0,0,1,108.464,60.411ZM119.82,48.39H115.7l2.06,3.524Zm-4.737-27.024V46.728h5.355V21.366ZM101.232,42.174l-1.6-1.6a.833.833,0,0,0-1.178,1.178l1.6,1.6-1.6,1.6a.833.833,0,0,0,1.178,1.178l1.6-1.6,1.6,1.6a.833.833,0,0,0,1.178-1.178l-1.6-1.6,1.6-1.6a.833.833,0,0,0-1.178-1.178Zm32.4-15.157h10.217a3.973,3.973,0,0,1,3.971,3.87v.1a3.973,3.973,0,0,1-3.972,3.973H133.63V27.017ZM120.437,19.7h-5.355V18.037a2.672,2.672,0,0,1,.784-1.893h0a2.676,2.676,0,0,1,3.785,0h0a2.675,2.675,0,0,1,.785,1.893Z" transform="translate(-93.06 -13.695)" fill-rule="evenodd" fill="url(#linear-gradient)"/>
</svg>
