<svg id="ic_Research_Discovery" data-name="ic_Research &amp; Discovery" xmlns="http://www.w3.org/2000/svg" xmlns:xlink="http://www.w3.org/1999/xlink" width="60.862" height="63.816" viewBox="0 0 60.862 63.816">
  <defs>
    <linearGradient id="linear-gradient" x1="0.5" y1="-0.161" x2="0.5" y2="1.17" gradientUnits="objectBoundingBox">
      <stop offset="0" stop-color="#52a359"/>
      <stop offset="1" stop-color="#048ef7"/>
    </linearGradient>
  </defs>
  <path id="Path_4552" data-name="Path 4552" d="M86.913,35.447c-2.056-2.908-4.218-6.044-4.218-9.814a11.451,11.451,0,0,1,22.9,0c0,3.756-2.146,6.925-4.19,9.832,2.26,1.412,1.943,7.2-1.172,7.2H99.97L99.037,45.2A4.969,4.969,0,0,1,97.9,47.065a2.634,2.634,0,0,1-1.871.8H92.26a2.639,2.639,0,0,1-1.871-.8A5.006,5.006,0,0,1,89.251,45.2l-.933-2.535h-.264c-3.125,0-3.436-5.831-1.141-7.214Zm32.537-7.513a15.228,15.228,0,0,0-12.369,24.108l-2.335,2.328a4.583,4.583,0,0,0-4.7,1.291L94.52,61.178l-.055.051a.989.989,0,0,0,0,1.4l5.514,5.514h0a.985.985,0,0,0,1.392,0l5.574-5.563a4.588,4.588,0,0,0,1.295-4.723l2.331-2.324a15.227,15.227,0,1,0,8.877-27.6Zm-10.408,26.34-1.781,1.776a5.41,5.41,0,0,0-.7-.7l1.782-1.776C108.566,53.814,108.8,54.047,109.042,54.274Zm19.777-20.483a13.249,13.249,0,1,1-9.369-3.881A13.21,13.21,0,0,1,128.818,33.792Zm-.911.91a11.921,11.921,0,0,1,3.5,8.458h0a11.962,11.962,0,1,1-3.5-8.458Zm-15.519,1.4a9.99,9.99,0,0,1,17.051,7.061h0A9.986,9.986,0,1,1,112.389,36.1Zm-10.95,20.959c2.73-2.725,6.841,1.4,4.118,4.122l-4.876,4.866-4.119-4.119ZM99.224,35.14c.145-.209.254-.361.363-.518,1.929-2.739,4.032-5.726,4.032-8.988a9.473,9.473,0,1,0-18.947,0c0,3.24,2.064,6.157,3.979,8.865.16.225.318.451.453.641Zm-1.357,7.524H90.422l.683,1.856a3.036,3.036,0,0,0,.659,1.135.728.728,0,0,0,.5.241h3.768a.727.727,0,0,0,.5-.241,3.072,3.072,0,0,0,.659-1.135Zm2.366-5.547H88.056c-.868,0-.868,3.569,0,3.569h12.177C101.1,40.687,101.1,37.117,100.233,37.117ZM92.89,5.6a.984.984,0,1,1,1.968,0v4.09a.984.984,0,1,1-1.968,0ZM74.8,25.657a.984.984,0,1,1,0-1.968h4.09a.984.984,0,1,1,0,1.968Zm4.888-13.775,2.893,2.893a.988.988,0,1,0,1.4-1.4l-2.893-2.892a.988.988,0,0,0-1.4,1.4Zm33.265,11.8h-4.09a.988.988,0,1,0,0,1.976h4.09a.988.988,0,0,0,0-1.976Zm-6.285-13.2-2.893,2.893a.988.988,0,0,0,1.4,1.4l2.893-2.893a.988.988,0,1,0-1.4-1.4Z" transform="translate(-73.814 -4.613)" fill-rule="evenodd" fill="url(#linear-gradient)"/>
</svg>
