<svg id="ic_Technology_Stack_Selecting" data-name="ic_Technology Stack Selecting" xmlns="http://www.w3.org/2000/svg" xmlns:xlink="http://www.w3.org/1999/xlink" width="58.934" height="58.945" viewBox="0 0 58.934 58.945">
  <defs>
    <linearGradient id="linear-gradient" x1="0.483" y1="-0.211" x2="0.5" y2="1" gradientUnits="objectBoundingBox">
      <stop offset="0" stop-color="#52a359"/>
      <stop offset="1" stop-color="#038dfa"/>
    </linearGradient>
  </defs>
  <path id="Path_4560" data-name="Path 4560" d="M15178.467,15083.085a4.919,4.919,0,0,1-4.813-3.928h-1.081a.977.977,0,0,1-.98-.981v-.347a8.357,8.357,0,0,0-3.5-6.7,20.455,20.455,0,0,1-8.291-16.525.99.99,0,0,1,.985-.98h.98v-1.97a.982.982,0,0,1,.672-.932l3.421-1.134.725-1.74-1.446-3.047a.975.975,0,0,1,.088-.992,18.657,18.657,0,0,1,4.4-4.409,1,1,0,0,1,.993-.087l3.046,1.446,1.74-.722,1.134-3.42a.981.981,0,0,1,.932-.672h5.905a.986.986,0,0,1,.936.672l1.114,3.374a15.424,15.424,0,0,1,1.8.748l3-1.427a.993.993,0,0,1,.992.087,18.75,18.75,0,0,1,4.409,4.409.984.984,0,0,1,.087.992l-1.427,3a15.424,15.424,0,0,1,.748,1.8l3.374,1.114a.99.99,0,0,1,.672.936v1.97h.985a.984.984,0,0,1,.98.98,20.455,20.455,0,0,1-8.291,16.525,8.375,8.375,0,0,0-3.5,6.7v.347a.979.979,0,0,1-.981.981h-1.08a4.911,4.911,0,0,1-4.813,3.928Zm-1.7-2.508a2.965,2.965,0,0,0,1.7.546h3.928a2.955,2.955,0,0,0,2.768-1.966h-9.459A2.909,2.909,0,0,0,15176.771,15080.577Zm-.454-13.326a5.329,5.329,0,0,0,2.176,1.981l2.378,1.188a.987.987,0,0,1,.542.882v5.89h5.913a10.361,10.361,0,0,1,4.264-7.643,18.5,18.5,0,0,0,7.479-13.963H15161.8a18.464,18.464,0,0,0,7.478,13.963,10.366,10.366,0,0,1,4.26,7.643h5.913v-5.283l-1.832-.92a7.288,7.288,0,0,1-4.058-6.565,1.961,1.961,0,0,1,1.962-1.962h1.966a1.961,1.961,0,0,1,1.962,1.962h1.966a1.967,1.967,0,0,1,1.966-1.962h1.962a1.967,1.967,0,0,1,1.966,1.962,7.3,7.3,0,0,1-4.058,6.565l-.416.206-.878-1.756.416-.206a5.353,5.353,0,0,0,2.97-4.81h-1.966a1.967,1.967,0,0,1-1.962,1.966h-1.966a1.967,1.967,0,0,1-1.962-1.966h-1.966A5.344,5.344,0,0,0,15176.317,15067.251Zm9.719-23.014a11.769,11.769,0,0,1,6.13,9.383h4.963v-1.26l-3.172-1.054a.977.977,0,0,1-.63-.646,13.249,13.249,0,0,0-.993-2.386.981.981,0,0,1-.019-.881l1.382-2.909a16.757,16.757,0,0,0-3.149-3.149l-2.908,1.382a.984.984,0,0,1-.882-.019,13.839,13.839,0,0,0-2.386-.993.975.975,0,0,1-.646-.63l-1.054-3.172h-4.485l-1.05,3.172a.994.994,0,0,1-.557.6l-2.562,1.065a.988.988,0,0,1-.8-.023l-2.909-1.382a16.882,16.882,0,0,0-3.146,3.149l1.378,2.909a.981.981,0,0,1,.023.8l-1.065,2.562a.967.967,0,0,1-.6.554l-3.173,1.054,0,1.26h4.959a11.776,11.776,0,0,1,17.342-9.383Zm-1.962,4.76a.989.989,0,0,1,.286.7v3.928h5.844a9.821,9.821,0,0,0-19.544,0h5.841v-3.928a.989.989,0,0,1,.29-.7.979.979,0,0,1,.694-.286h5.89A1,1,0,0,1,15184.074,15049Zm-5.607,4.623h3.928v-2.947h-3.928Zm24.277,21.9a3.933,3.933,0,0,1,2.24-6.051v-15.853h-2.946v-1.962h3.932a.984.984,0,0,1,.98.98v16.834a3.929,3.929,0,1,1-4.206,6.051Zm1.832-3.649a1.973,1.973,0,1,0,1.394-.572A1.978,1.978,0,0,0,15204.576,15071.874Zm-52.907,3.649a3.932,3.932,0,0,1,2.245-6.051v-16.834a.977.977,0,0,1,.98-.98h3.929v1.962h-2.947v15.853a3.93,3.93,0,1,1-4.207,6.051Zm1.837-3.649a1.963,1.963,0,1,0,1.389-.572A1.962,1.962,0,0,0,15153.506,15071.874Zm9.245-30.038v-5.894h-7.856a.984.984,0,0,1-.984-.985v-3.084a3.93,3.93,0,1,1,1.966,0v2.1h7.855a.984.984,0,0,1,.985.98v6.879Zm-9.245-15.139a1.958,1.958,0,1,0,1.389-.576A1.946,1.946,0,0,0,15153.506,15026.7Zm42.638,14.158v-5.895a.99.99,0,0,1,.291-.694.962.962,0,0,1,.694-.29h7.855v-2.1a3.936,3.936,0,1,1,1.966,0v3.088a.984.984,0,0,1-.98.981h-7.86v4.913Zm8.433-14.158a1.964,1.964,0,1,0,1.394-.576A1.964,1.964,0,0,0,15204.576,15026.7Zm-25.129,7.279v-2.1a3.931,3.931,0,1,1,1.966,0v2.1Zm-.4-7.279a1.959,1.959,0,1,0,1.39-.576A1.949,1.949,0,0,0,15179.043,15026.7Z" transform="translate(-15150.964 -15024.14)" fill="url(#linear-gradient)"/>
</svg>
