<svg xmlns="http://www.w3.org/2000/svg" xmlns:xlink="http://www.w3.org/1999/xlink" width="79" height="51" viewBox="0 0 79 51">
  <defs>
    <clipPath id="clip-path">
      <rect id="Rectangle_5891" data-name="Rectangle 5891" width="79" height="51" fill="#fff"/>
    </clipPath>
  </defs>
  <g id="ic_Work-Life_Balance" data-name="ic_Work-Life Balance" clip-path="url(#clip-path)">
    <g id="Group_4945" data-name="Group 4945">
      <path id="Path_8269" data-name="Path 8269" d="M31.516,50.88a2.451,2.451,0,0,1-2.129-3.664L37.342,33.27H4.022a3.522,3.522,0,0,1,0-7.044H5.706v-12.4l-.766-.671V7.238a2.45,2.45,0,0,1,2.45-2.45h7.044v-1.9A2.419,2.419,0,0,1,16.885.5h6.431a2.419,2.419,0,0,1,2.45,2.386v1.9h7.043a2.45,2.45,0,0,1,2.45,2.45v5.913l-.759.676v12.4H46.6V16.119h-.887a2.45,2.45,0,0,1-1.541-4.355L57.3,1.134a2.45,2.45,0,0,1,3.082,0L73.521,11.765A2.45,2.45,0,0,1,71.98,16.12h-.734V26.226h4.135a3.522,3.522,0,0,1,0,7.044H42.06l7.954,13.946a2.45,2.45,0,0,1-2.128,3.664ZM39.3,33.852,31.117,48.2a.46.46,0,0,0,.4.687h16.37a.46.46,0,0,0,.4-.687L40.1,33.852a.459.459,0,0,0-.8,0Zm-36.81-4.1A1.533,1.533,0,0,0,4.022,31.28H75.381a1.531,1.531,0,0,0,0-3.063H4.022A1.533,1.533,0,0,0,2.49,29.748Zm66.765-3.522v-12.1H71.98a.459.459,0,0,0,.288-.816L59.131,2.682a.461.461,0,0,0-.578,0L45.416,13.312a.46.46,0,0,0,.289.816h2.877v12.1h5.666V21.4a4.518,4.518,0,0,1,9.035,0v4.824Zm-7.962,0V21.4a2.527,2.527,0,0,0-5.054,0v4.824Zm-28.793,0V15.576l-1.835,1.615H24.082v1.455a3.905,3.905,0,1,1-7.81,0V17.191H9.556L7.7,15.564V26.226Zm-14.241-7.58a1.914,1.914,0,0,0,3.828,0V17.191H18.263ZM10.3,15.2H29.917l3.26-2.868.09-.079V7.238a.46.46,0,0,0-.46-.46H7.39a.46.46,0,0,0-.46.46v5.01l.087.075.041.037ZM23.775,4.787v-1.9a.453.453,0,0,0-.459-.446H16.885a.454.454,0,0,0-.459.446v1.9Z" fill="#51b05f"/>
    </g>
  </g>
</svg>
