<svg xmlns="http://www.w3.org/2000/svg" width="40.168" height="50.778" viewBox="0 0 40.168 50.778">
  <path id="Path_7821" data-name="Path 7821" d="M.761,50.778A.762.762,0,0,1,.31,49.4a11.054,11.054,0,0,0,.857-.741,19.6,19.6,0,0,0,1.942-2.132,20.435,20.435,0,0,0,3.917-8.3H8.59a21.32,21.32,0,0,1-2.626,6.88A21.857,21.857,0,0,1,4.3,47.528,20.957,20.957,0,0,1,2.76,49.256h8.746V38.234H6.482v-.01A6.5,6.5,0,0,1,.34,31.737V23.413A4.569,4.569,0,0,1,7.469,19.63v-3.3H.761A.761.761,0,0,1,.3,14.966L19.7.156A.755.755,0,0,1,20.165,0a.764.764,0,0,1,.464.158L39.87,14.967a.761.761,0,0,1-.464,1.365H33.267v3.075l0,0a4.569,4.569,0,0,1,6.767,4v8.324a6.5,6.5,0,0,1-6.454,6.5h.018a20.515,20.515,0,0,0,3.3,8.492,15.03,15.03,0,0,0,1.662,2.012,7.678,7.678,0,0,0,.736.666.762.762,0,0,1-.451,1.375H28.865V49.256h8.062A16.8,16.8,0,0,1,35.61,47.6a19.271,19.271,0,0,1-1.4-2.362,23.039,23.039,0,0,1-2.159-7H28.865V50.778Zm1.1-27.365v8.324a4.971,4.971,0,0,0,4.7,4.967l.122.007h6.343V49.3H27.342V36.711h6.192a4.98,4.98,0,0,0,4.974-4.974V23.413a3.045,3.045,0,1,0-6.091,0v7.207H24.226a6.6,6.6,0,0,1-8.182,0H7.954V23.413a3.045,3.045,0,1,0-6.091,0ZM33.558,38.234h0Zm-18.5-12.79v.015s0,0,0,0v.015s0,.01,0,.015v0s0,.01,0,.014v0a5.076,5.076,0,0,0,10.15,0s0,0,0,0,0-.009,0-.014h0s0-.01,0-.015v0s0-.008,0-.012v-.019a5.076,5.076,0,0,0-10.151,0Zm5.076-6.6a6.591,6.591,0,0,1,6.6,6.6v.025s0,.01,0,.015v.005c0,.006,0,.013,0,.019h0c0,.006,0,.012,0,.018s0,0,0,.006v.019c0,.007,0,.013,0,.02h0c0,.006,0,.012,0,.018V25.6c0,.005,0,.01,0,.015s0,0,0,0,0,.013,0,.019v.019s0,0,0,0v.017a.021.021,0,0,1,0,0c0,.007,0,.014,0,.02h0v.041h0v.021h0c0,.006,0,.013,0,.019v0c0,.014,0,.027,0,.041s0,.014,0,.021h0a6.557,6.557,0,0,1-.746,2.671v0l-.007.014,0,0-.008.014,0,0-.007.013,0,.007,0,.008,0,.008,0,.006-.01.018,0,0-.006.011v0q-.132.239-.283.465H30.9V23.413a4.548,4.548,0,0,1,.849-2.653v-5.19a.762.762,0,0,1,.761-.761h4.663L20.163,1.721,3.014,14.809H8.23a.762.762,0,0,1,.761.761v5.793h0a4.55,4.55,0,0,1,.485,2.05V29.1H14.64q-.135-.2-.255-.414h0l-.007-.012v0l-.012-.022v0l-.005-.009,0-.007,0-.008-.005-.01,0-.007-.007-.014,0,0-.007-.013,0,0-.018-.034h0a6.558,6.558,0,0,1-.756-2.689h0v-.021h0c0-.014,0-.028,0-.042h0v-.02h0c0-.013,0-.027,0-.04s0,0,0,0,0-.012,0-.018v-.046c0-.006,0-.011,0-.017s0,0,0,0v-.02s0,0,0,0,0-.011,0-.016,0,0,0-.005,0-.011,0-.017a.023.023,0,0,0,0,0v-.019s0,0,0,0,0-.01,0-.016,0,0,0,0,0-.012,0-.018h0c0-.006,0-.013,0-.019v0c0-.005,0-.01,0-.015v-.005c0-.006,0-.013,0-.019a6.6,6.6,0,0,1,6.6-6.6Zm13.1.578,0,0Zm.013-.007.006,0Z" transform="translate(0)" fill="#51b05f"/>
</svg>
