<svg xmlns="http://www.w3.org/2000/svg" width="62.599" height="45.083" viewBox="0 0 62.599 45.083">
  <g id="noun-partner-4096423" transform="translate(-80.413 -86.737)">
    <path id="Path_4122" data-name="Path 4122" d="M142.447,101.389a.475.475,0,0,0-.663.1l-3.467,4.656-3.256-2.433a.464.464,0,0,0-.4-.3L120.641,92.921l3.469-4.658a.473.473,0,1,0-.753-.564l-3.751,5.036h0a.472.472,0,0,0,.1.661l1.67,1.248a.092.092,0,0,0-.014.019c-1.159,1.931-1.811,2.386-1.954,2.4a5.072,5.072,0,0,1-.569-.149c-1.625-.48-5.433-1.6-8.4,2.225q-.313.4-.6.785a12.4,12.4,0,0,0-2.943-1.4h0A12.728,12.728,0,0,1,105,97.713a24.424,24.424,0,0,1-3.615-2.762l2.571-2.853a.474.474,0,0,0,.126-.345.481.481,0,0,0-.16-.328L99.2,87.281h0a.474.474,0,1,0-.628.711l4.356,3.831L86,110.571l-4.372-3.839a.474.474,0,1,0-.628.709l4.716,4.144a.473.473,0,0,0,.663-.038l2.546-2.819c1.334,1,4.169,3.326,4.676,4.509a22.851,22.851,0,0,0,4.861,6.027l-.339.413a2.633,2.633,0,0,0,.426,3.693l.034.028h0a2.713,2.713,0,0,0,1.728.628c.068,0,.135,0,.2-.008a1.059,1.059,0,0,0,.156-.018h0a2.511,2.511,0,0,0,0,.951,3.131,3.131,0,0,0,1.114,1.8l.038.03a3.134,3.134,0,0,0,1.973.737h.008a2.486,2.486,0,0,0,.935-.18,2.706,2.706,0,0,0,.992,1.933l.034.029h0a2.717,2.717,0,0,0,1.729.628,2.577,2.577,0,0,0,1.475-.457,2.668,2.668,0,0,0,.879,1.327l.03.025a2.636,2.636,0,0,0,1.669.619h.033a2.01,2.01,0,0,0,1.561-.72l.753-.922c.336.17.677.339,1.025.509a3.929,3.929,0,0,0,1.651.358,3.306,3.306,0,0,0,2.637-1.233,3.577,3.577,0,0,0,.493-2.949h0a3.011,3.011,0,0,0,.52.047h.087a2.6,2.6,0,0,0,1.987-1.027,3.224,3.224,0,0,0,.651-3.014h.109a2.639,2.639,0,0,0,2.458-1.766,3.24,3.24,0,0,0,.242-2.093h.052a3.139,3.139,0,0,0,.5-.039,3.054,3.054,0,0,0,2.135-1.484,3.322,3.322,0,0,0-.074-3.728,50.052,50.052,0,0,0,3.306-5.453,16,16,0,0,1,2.921-3.39l3.535,2.643a.466.466,0,0,0,.283.094.569.569,0,0,0,.068,0,.477.477,0,0,0,.312-.186l3.752-5.036a.474.474,0,0,0-.093-.665Zm-42,21.682a1.774,1.774,0,0,1-1.256-.405l-.034-.029a1.684,1.684,0,0,1-.3-2.361l1.537-1.868h0a1.58,1.58,0,0,1,1.233-.57,1.856,1.856,0,0,1,1.175.433,1.687,1.687,0,0,1,.3,2.362l-1.538,1.868a1.577,1.577,0,0,1-1.118.57Zm3.353,3.5a2.179,2.179,0,0,1-1.371-.521l-.038-.03a2.191,2.191,0,0,1-.777-1.256,1.352,1.352,0,0,1,.251-1.138l2.511-3.053a1.348,1.348,0,0,1,1.069-.465,2.22,2.22,0,0,1,1.409.552,2.183,2.183,0,0,1,.776,1.256,1.352,1.352,0,0,1-.251,1.139l-1.35,1.64-.726.879-.432.526h0a1.352,1.352,0,0,1-1.071.47Zm2.564,2-.3.365.266-.394a1.686,1.686,0,0,1-.3-2.361l1.537-1.868a1.7,1.7,0,0,1,2.408-.137h0a1.765,1.765,0,0,1,.642,1.157,1.6,1.6,0,0,1-.1.782l-1.2,1.46h0a1.952,1.952,0,0,0-.284.467l-.3.364a1.687,1.687,0,0,1-2.375.165Zm6.049,1.549a1.084,1.084,0,0,1-.843.377,1.71,1.71,0,0,1-1.087-.4l-.031-.025a1.693,1.693,0,0,1-.6-.989,1.178,1.178,0,0,1,.026-.561l1.13-1.381a2.508,2.508,0,0,0,.324-.5,1.1,1.1,0,0,1,.8-.315,1.772,1.772,0,0,1,1.109.428,1.687,1.687,0,0,1,.605.99,1.083,1.083,0,0,1-.2.9Zm15.235-13.527a2.134,2.134,0,0,1-1.491,1.061c-1.111.176-2.585-.477-4.387-1.943a.473.473,0,1,0-.6.733,10.069,10.069,0,0,0,3.544,2.025,2.2,2.2,0,0,1-.063,1.856,1.713,1.713,0,0,1-2.107,1.155h0a1.285,1.285,0,0,1-.163-.049.5.5,0,0,0-.178-.072,13.007,13.007,0,0,1-2.359-1.573.473.473,0,0,0-.6.731,14.244,14.244,0,0,0,2.569,1.7,2.292,2.292,0,0,1-.251,2.679,1.673,1.673,0,0,1-1.284.682h0a2.679,2.679,0,0,1-1.13-.243.547.547,0,0,0-.087-.038,7.724,7.724,0,0,1-2.108-1.549.474.474,0,0,0-.693.645,8.54,8.54,0,0,0,2.339,1.726,3.041,3.041,0,0,1-.126,2.706,2.668,2.668,0,0,1-3.139.628c-.283-.138-.56-.276-.835-.414h0a2.04,2.04,0,0,0,.269-1.48,2.675,2.675,0,0,0-.967-1.577,2.554,2.554,0,0,0-2.232-.544,1.961,1.961,0,0,0-.016-.222,2.745,2.745,0,0,0-1.013-1.8,2.713,2.713,0,0,0-2.009-.608,2.466,2.466,0,0,0,.022-1.07,3.306,3.306,0,0,0-3.114-2.568h-.008a2.475,2.475,0,0,0-1.048.227,2.775,2.775,0,0,0-1.017-1.883,2.633,2.633,0,0,0-3.705.294l-.6.725a22.193,22.193,0,0,1-4.593-5.662c-.648-1.513-3.822-4.018-4.91-4.843l11.175-12.373a25.573,25.573,0,0,0,3.791,2.888h0a13.5,13.5,0,0,0,2.029.869,11.7,11.7,0,0,1,2.7,1.273c-2.249,3.05-3.054,4.857-1.8,6.552h0a2.662,2.662,0,0,0,2.274,1.088c1.565-.048,3.216-1.271,4.661-3.449a1.461,1.461,0,0,1,1.33.2c.992.635,1.157.753,1.183.775l.229.153c3.918,2.637,6.748,4.539,8.317,5.708,1.348,1,3.424,2.967,2.2,4.875Zm3.168-9.064a49.5,49.5,0,0,1-3.035,5.04h0a10.555,10.555,0,0,0-1.758-1.609c-1.588-1.183-4.426-3.092-8.354-5.735l-.2-.135c-.033-.025-.22-.16-1.226-.8a2.322,2.322,0,0,0-2.408-.182.474.474,0,0,0-.152.148c-1.27,1.951-2.717,3.092-3.971,3.13h0a1.732,1.732,0,0,1-1.485-.708c-.944-1.273-.336-2.7,2.956-6.953,2.57-3.318,5.821-2.359,7.383-1.9a5.1,5.1,0,0,0,.72.181c.3.035,1.079.132,2.843-2.791l11.7,8.749a15.615,15.615,0,0,0-3.012,3.566Z" transform="translate(0 0)" fill="#52a359" stroke="#52a359" stroke-width="0.75"/>
  </g>
</svg>
