<svg xmlns="http://www.w3.org/2000/svg" width="50.335" height="52" viewBox="0 0 50.335 52">
  <path id="Union_139" data-name="Union 139" d="M33.835,52l-.183-.146a.84.84,0,0,1-.253-.3c-.084-.205-.084-5.507,0-5.721.119-.31.455-.456,1.059-.456H35V38.65l1.488-3.558c.815-1.953,1.575-3.714,1.685-3.914a3.159,3.159,0,0,1,4.945-.593c.374.356.387.365.444.205a7.568,7.568,0,0,0,.2-3.034c-.046-.219-.457-2.035-.917-4.025-.792-3.439-.833-3.65-.8-4.206a2.326,2.326,0,0,1,.235-1.036,3.029,3.029,0,0,1,4.867-.931c.65.635.594.475,2.174,6.661a32.676,32.676,0,0,1,.975,4.316c.023.233.033.471.033.711a8.424,8.424,0,0,1-.235,1.976c-.207.89-4.3,10.991-4.522,11.178v2.965l.489.028c.414.023.51.054.68.214l.19.187.019,2.811c.022,2.5.009,2.829-.088,3.02a.718.718,0,0,1-.29.3c-.124.056-1.975.078-6.455.078Zm.884-3.313v1.935H45.579V46.758H34.72Zm6.024-17.633a1.748,1.748,0,0,0-1.247.626c-.093.118-.83,1.8-1.636,3.736l-1.468,3.517V45.38h7.785l.024-1.487.019-1.491c0-.055,2.684-6.648,3.208-7.971a24.97,24.97,0,0,0,1.392-3.842,8.413,8.413,0,0,0,.027-2.513c-.2-1.09-2.3-9.047-2.427-9.225A1.627,1.627,0,0,0,44,18.458a1.712,1.712,0,0,0-.58,1.209c0,.173.36,1.884.8,3.8s.851,3.736.905,4.051a8.8,8.8,0,0,1-.215,3.641c-.056.2-.723,1.958-1.488,3.924a32.732,32.732,0,0,1-1.556,3.731.735.735,0,0,1-.806.1.925.925,0,0,1-.355-.579c0-.054.425-1.19.954-2.536a14.939,14.939,0,0,0,.981-2.87,1.583,1.583,0,0,0-.986-1.674,1.327,1.327,0,0,0-.671-.2C40.916,31.044,40.839,31.048,40.744,31.054ZM10.213,52c-4.48,0-6.331-.022-6.455-.078a.721.721,0,0,1-.29-.3c-.1-.191-.11-.516-.088-3.02L3.4,45.8l.19-.187c.17-.16.267-.191.68-.214l.489-.028V42.4C4.54,42.215.443,32.113.235,31.224A8.415,8.415,0,0,1,0,29.247c0-.24.01-.478.033-.711a32.673,32.673,0,0,1,.975-4.316c1.58-6.186,1.524-6.026,2.174-6.661a3.03,3.03,0,0,1,4.867.931,2.326,2.326,0,0,1,.235,1.036c.037.556,0,.766-.8,4.206-.46,1.99-.87,3.805-.917,4.025a7.57,7.57,0,0,0,.2,3.034c.056.159.07.15.444-.205a3.16,3.16,0,0,1,4.945.593c.11.2.871,1.961,1.685,3.914l1.488,3.558v6.73h.543c.6,0,.94.146,1.059.456.084.215.084,5.516,0,5.721a.839.839,0,0,1-.252.3L16.5,52ZM4.757,48.687v1.935H15.617V46.758H4.757ZM3.915,18.85c-.129.178-2.225,8.135-2.428,9.225a8.416,8.416,0,0,0,.028,2.513A24.935,24.935,0,0,0,2.907,34.43c.524,1.323,3.208,7.916,3.208,7.971l.019,1.491.024,1.487h7.785V38.934l-1.468-3.517c-.806-1.935-1.543-3.618-1.636-3.736a1.749,1.749,0,0,0-1.247-.626,1.322,1.322,0,0,0-.911.192A1.583,1.583,0,0,0,7.7,32.92a14.931,14.931,0,0,0,.98,2.87c.53,1.346.954,2.481.954,2.536a.927.927,0,0,1-.355.58.735.735,0,0,1-.806-.1,32.736,32.736,0,0,1-1.556-3.731c-.765-1.966-1.432-3.728-1.488-3.924a8.8,8.8,0,0,1-.215-3.641c.054-.314.46-2.144.906-4.051s.8-3.622.8-3.8a1.711,1.711,0,0,0-.58-1.209,1.716,1.716,0,0,0-1.042-.374A1.7,1.7,0,0,0,3.915,18.85Zm13.346,4.063,1.157-5.944a1.344,1.344,0,0,0-.41-1.245l-4.481-4.133a1.349,1.349,0,0,1,.761-2.331L20.4,8.5a1.364,1.364,0,0,0,1.064-.763l2.628-5.5a1.37,1.37,0,0,1,2.467,0l2.628,5.5a1.364,1.364,0,0,0,1.064.763l6.114.756a1.349,1.349,0,0,1,.761,2.331l-4.481,4.133a1.344,1.344,0,0,0-.41,1.245l1.157,5.944A1.361,1.361,0,0,1,31.4,24.356l-5.417-2.933a1.375,1.375,0,0,0-1.309,0l-5.417,2.933a1.361,1.361,0,0,1-1.994-1.442ZM22.788,8.36a2.812,2.812,0,0,1-2.205,1.581l-5.907.73L19,14.663a2.769,2.769,0,0,1,.849,2.58l-1.166,5.769,5.284-2.861a2.851,2.851,0,0,1,2.711,0L31.922,23,30.8,17.244a2.769,2.769,0,0,1,.849-2.58l4.328-3.992-5.907-.73a2.811,2.811,0,0,1-2.2-1.581L25.327,3.045ZM6.631,14.692a.717.717,0,0,1-.047-.294.725.725,0,0,1,.471-.64l3.087-1.16a.733.733,0,0,1,.943.42.722.722,0,0,1-.424.934l-3.087,1.16a.734.734,0,0,1-.943-.42Zm36.385.42-3.087-1.16a.725.725,0,0,1-.471-.64.716.716,0,0,1,.047-.294.733.733,0,0,1,.943-.42l3.087,1.16a.722.722,0,0,1,.424.934.733.733,0,0,1-.943.42ZM9.375,9.117,4.765,7.464A.721.721,0,0,1,4.471,6.3a.735.735,0,0,1,.792-.2l4.61,1.652a.722.722,0,0,1,.439.928.733.733,0,0,1-.936.434Zm31.046-.2a.721.721,0,0,1,.295-1.165L45.326,6.1a.733.733,0,0,1,.936.435.723.723,0,0,1-.439.927l-4.61,1.652a.735.735,0,0,1-.792-.2ZM37.393,5.9a.722.722,0,0,1-.4-.944l1.845-4.5a.733.733,0,0,1,.952-.4.722.722,0,0,1,.4.944L38.346,5.5a.734.734,0,0,1-.952.4Zm-25.15-.4L10.4,1a.722.722,0,0,1,.4-.944.733.733,0,0,1,.952.4l1.845,4.5a.722.722,0,0,1-.4.944.733.733,0,0,1-.952-.4Z" transform="translate(-0.001 0)" fill="#51b05f"/>
</svg>
