<svg xmlns="http://www.w3.org/2000/svg" width="50" height="50" viewBox="0 0 50 50">
  <path id="Union_162" data-name="Union 162" d="M32.566,50a.7.7,0,0,1-.1-.007h.076a.684.684,0,0,0,.684-.684l0-7.967a2.132,2.132,0,0,1,.019.362v6.929h11.9V42.957c0-1.274.273-1.737,1.291-3.462l0-.006c.217-.367.462-.783.755-1.291,1.4-2.43,1.4-2.816,1.381-3.85l0-.42.041-8.534a3.273,3.273,0,0,1-4.117-.28,3.273,3.273,0,0,1-5.731-.065,3.276,3.276,0,0,1-.608.435,2.257,2.257,0,0,1-1.729,1.01c-.078.006-.173.009-.291.009-.163,0-.35-.006-.6-.014h0c-.249-.009-.531-.019-.831-.019h-.181l.069-.117-.25.424-.009.015c-1.008,1.709-1.1,1.892-1.1,2.768l-.008,19.747a.684.684,0,0,1-.684.684H19.955a.689.689,0,0,1-.1.007H6.591a.684.684,0,0,1-.684-.684V41.664a3.227,3.227,0,0,0-1.526-2.421c-.307-.237-.623-.468-.938-.7C1.754,37.313.007,36.038.007,34.071l0-2.64c0-2.306.008-5.776,0-6.094,0-.018,0-.036,0-.054l0-.212a4.093,4.093,0,0,1,2.119-4.177q.109-.044.221-.085V17.5a3.223,3.223,0,0,1,5.379-2.4,3.273,3.273,0,0,1,4.987-.933c0-1.359,0-2.087-.005-2.226,0-.017,0-.035,0-.054l0-.212A4.093,4.093,0,0,1,14.818,7.5c.071-.029.145-.057.221-.085V4.1a3.223,3.223,0,0,1,5.379-2.4,3.273,3.273,0,0,1,5.757.018,3.272,3.272,0,0,1,5.042.814,3.271,3.271,0,0,1,5.5,2.393V9.326c0,.064,0,.128-.005.19l-.053,11.02,0,.4,0-.2a2.414,2.414,0,0,1,1.043.573,2.716,2.716,0,0,1,.673,1.035v-5.68a1.81,1.81,0,0,0-1.69-1.8L36.7,13.4a3.27,3.27,0,0,1,2.76,1.722,3.272,3.272,0,0,1,5.042.814A3.27,3.27,0,0,1,50,18.326v4.395c0,.064,0,.128-.005.19l-.053,11.02,0,.4c.02,1.278-.033,1.9-1.564,4.554-.292.506-.538.924-.756,1.292l-.009.016c-1.008,1.709-1.1,1.892-1.1,2.768v6.359a.684.684,0,0,1-.684.684Zm-12.027-.676h0Zm1.487-34.013a3.269,3.269,0,0,1,2,3.014v4.395q0,.1-.005.19l-.053,11.02,0,.4c.02,1.279-.033,1.9-1.564,4.554-.3.513-.549.942-.765,1.308-1.008,1.709-1.1,1.892-1.1,2.768v6.359s0,0,0,0,0,0,0,0v-.691h11.32l.008-19.063c0-1.274.273-1.737,1.291-3.462l0-.007v0c.217-.367.462-.783.753-1.288,1.4-2.43,1.4-2.816,1.381-3.85l0-.42L35.334,12a3.273,3.273,0,0,1-4.117-.28,3.273,3.273,0,0,1-5.731-.065,3.276,3.276,0,0,1-.608.435,2.257,2.257,0,0,1-1.729,1.01c-.078.006-.173.009-.291.009-.163,0-.35-.006-.6-.014h0c-.248-.009-.53-.019-.831-.019a7.075,7.075,0,0,0-1.189.082,1.679,1.679,0,0,0-.876.358.643.643,0,0,0-.188.513V15.46q-.062.034-.123.071a3.278,3.278,0,0,1,2.975-.22ZM1.377,31.433l0,2.638c0,1.272,1.4,2.291,2.875,3.371.324.236.65.474.966.718A4.5,4.5,0,0,1,7.273,41.7v6.929h11.9V42.957c0-1.274.273-1.737,1.291-3.462.214-.363.465-.788.759-1.3,1.4-2.43,1.4-2.816,1.381-3.85l0-.42.041-8.534a3.273,3.273,0,0,1-4.117-.28,3.273,3.273,0,0,1-5.731-.065,3.272,3.272,0,0,1-.608.435,2.256,2.256,0,0,1-1.729,1.01c-.211.017-.523.008-.89-.005-.888-.032-2.374-.085-2.9.421a.643.643,0,0,0-.188.513v4.482a.684.684,0,1,1-1.367,0V27.424a2.024,2.024,0,0,1,.606-1.5c.942-.909,2.72-.845,3.9-.8.3.011.559.022.733.009.717-.057.956-.746.94-1.372-.039-1.54-.855-1.69-1.123-1.74a13.881,13.881,0,0,0-7.485.123c-1.247.61-1.331,1.767-1.307,2.9l0,.241H1.354C1.385,25.793,1.384,27.182,1.377,31.433ZM35.1,25.487l-.1.174.1-.174c.075-.129.146-.255.213-.373l.268.009h.007l.083,0h0c.166.006.323.012.452.012.078,0,.143,0,.2-.006.718-.057.956-.746.94-1.372a1.77,1.77,0,0,0-.669-1.579,6.038,6.038,0,0,0,.072-1.248C36.684,22.211,36.631,22.835,35.1,25.487Zm4.743-7.942V23.5a1.807,1.807,0,1,0,3.613,0V17.545a1.807,1.807,0,0,0-3.613,0Zm-25.975,0V23.5a1.807,1.807,0,1,0,3.613,0V17.545a1.807,1.807,0,0,0-3.613,0Zm31.053.781v4.395a1.807,1.807,0,1,0,3.613,0V18.326a1.807,1.807,0,0,0-3.613,0Zm-25.975,0v4.395a1.807,1.807,0,1,0,3.613,0V18.326a1.807,1.807,0,0,0-3.613,0ZM8.79,16.666v3.69a12.919,12.919,0,0,1,1.678.332A2.489,2.489,0,0,1,12.4,22.346v-5.68a1.807,1.807,0,0,0-3.613,0Zm-4.98.83v2.929a15.812,15.812,0,0,1,3.516-.2V17.5a1.758,1.758,0,1,0-3.516,0ZM18.53,15.926l0,0Zm-.016-.006,0,0Zm.024,0,0,0Zm.008-.007.011-.01Zm-.04-.006,0-.005Zm.052-.005.005,0Zm.008-.007.006,0Zm-.068,0-.007-.012Zm.076-.006.018-.016Zm-.085-.011-.006-.01Zm.107-.008,0,0Zm-.114,0a3.276,3.276,0,0,0-.6-.735A3.289,3.289,0,0,1,18.481,15.863Zm.122,0,0,0Zm.009-.008.006-.005Zm.012-.01,0,0Zm.009-.008,0,0Zm.011-.009h0Zm.01-.008h0Zm.01-.008h0Zm.347-.252h0Zm.009-.006,0,0Zm.009-.006,0,0Zm.008-.005.012-.007Zm-1.161-.413-.008-.007Zm-4.4-.007-.006-.011Zm4.385,0-.006-.006Zm-4.377,0,0,0Zm-.015-.007a3.266,3.266,0,0,0-.692-.876A3.278,3.278,0,0,1,13.472,15.105Zm.023,0,0,0Zm4.352,0,0,0Zm-4.344,0,0,0Zm.009-.008h0Zm4.322,0,0,0Zm-.013-.012,0,0Zm-4.291,0h0Zm3.814-.342a3.279,3.279,0,0,1,.462.333h0V14.029a2.024,2.024,0,0,1,.606-1.5,2.328,2.328,0,0,1,.628-.424,3.622,3.622,0,0,1,.752-.25,7.438,7.438,0,0,1,1.631-.149c.315,0,.617.011.884.02l.075,0h.009c.166.006.324.012.454.012.078,0,.143,0,.2-.006.718-.057.956-.746.94-1.372-.039-1.54-.855-1.69-1.123-1.74A14.955,14.955,0,0,0,19.1,8.173a10.475,10.475,0,0,0-3.731.575c-1.25.611-1.331,1.767-1.307,2.9l0,.241h-.021c.02.33.027,1.036.027,2.8l-.006,0a3.275,3.275,0,0,1,3.275.038Zm-3.3-.024h0Zm.009-.005,0,0Zm.009,0,0,0Zm-1.283-.468-.008-.007Zm-.011-.01,0,0ZM26.563,4.15v5.957a1.807,1.807,0,1,0,3.613,0V4.15a1.807,1.807,0,0,0-3.613,0Zm5.078.781V9.326a1.807,1.807,0,1,0,3.613,0V4.932a1.807,1.807,0,0,0-3.613,0ZM21.485,3.271v3.69a12.846,12.846,0,0,1,1.678.332,2.465,2.465,0,0,1,1.184.552A2.679,2.679,0,0,1,25.1,8.951V3.271a1.807,1.807,0,0,0-3.613,0ZM16.5,4.1V7.03a14.886,14.886,0,0,1,2.65-.222c.286,0,.577.007.866.021V4.1a1.758,1.758,0,1,0-3.516,0Z" transform="translate(0)" fill="#51b05f"/>
</svg>
