<svg id="noun-wireles-cloud-2133772" xmlns="http://www.w3.org/2000/svg" width="61.959" height="50.551" viewBox="0 0 61.959 50.551">
  <path id="Subtraction_22" data-name="Subtraction 22" d="M41.521,50.551H9.3C4.17,50.551,0,45.9,0,40.186c0-5.01,3.238-9.27,7.7-10.128l.27-.05.05-.272a11.287,11.287,0,0,1,11.1-9.32,11.173,11.173,0,0,1,5.252,1.4l.288.153.206-.253A11.3,11.3,0,0,1,44.955,28.8a6.306,6.306,0,0,1-.127,1.108c-.028.16-.051.3-.068.415l-.045.3.274.127a10.255,10.255,0,0,1,5.828,9.441C50.817,45.9,46.647,50.551,41.521,50.551ZM19.123,22.47A9.237,9.237,0,0,0,9.877,31a1.03,1.03,0,0,1-.964.945,6.9,6.9,0,0,0-4.851,2.526,9.2,9.2,0,0,0,.116,11.616A6.779,6.779,0,0,0,9.3,48.5H41.521a6.776,6.776,0,0,0,5.115-2.415,8.886,8.886,0,0,0,2.127-5.9c0-3.776-2.235-7.068-5.435-8.005a1.026,1.026,0,0,1-.7-1.217A9.315,9.315,0,0,0,42.9,28.8a9.141,9.141,0,0,0-2.71-6.53,9.274,9.274,0,0,0-6.557-2.7h-.026a9.322,9.322,0,0,0-7.821,4.213,1.042,1.042,0,0,1-.654.443,1.031,1.031,0,0,1-.2.019,1,1,0,0,1-.567-.172A9.3,9.3,0,0,0,19.123,22.47Zm41.812.51a1.025,1.025,0,0,1-.731-.306,1.012,1.012,0,0,1-.295-.734v-.005A19.768,19.768,0,0,0,54.054,7.871,20,20,0,0,0,39.9,2.053h-.021l-.06,0a1.03,1.03,0,0,1-1.025-.973,1.016,1.016,0,0,1,.262-.742A1.038,1.038,0,0,1,39.742,0l.016,0h.116L39.9,0A22.022,22.022,0,0,1,61.959,21.934v.005a1.028,1.028,0,0,1-1.024,1.04Zm-6.91,0A1.027,1.027,0,0,1,53,21.939v-.005A13.049,13.049,0,0,0,39.9,8.9l-.021,0h-.052a1.029,1.029,0,0,1-1.033-.973,1.025,1.025,0,0,1,.933-1.08l.039,0,.056,0,.056,0H39.9a15.14,15.14,0,0,1,15.155,15.09v.005a1.027,1.027,0,0,1-1.026,1.04Zm-6.44,0a1.028,1.028,0,0,1-1.026-1.04v-.005A6.629,6.629,0,0,0,39.9,15.293h-.021l-.06,0a1.022,1.022,0,0,1-.685-.263,1.044,1.044,0,0,1-.341-.71,1.03,1.03,0,0,1,.972-1.082l.056,0,.056,0H39.9a8.715,8.715,0,0,1,8.716,8.694v.005a1.043,1.043,0,0,1-.3.734A1.031,1.031,0,0,1,47.584,22.979Z" fill="#51b05f"/>
</svg>
