<svg id="noun-paperwork-5052525" xmlns="http://www.w3.org/2000/svg" width="48" height="50" viewBox="0 0 48 50">
  <path id="Subtraction_21" data-name="Subtraction 21" d="M30.442,50H3.213a3.158,3.158,0,0,1-2.266-.964l0-.005A3.292,3.292,0,0,1,0,46.718V14.089a3.279,3.279,0,0,1,.943-2.311l0-.005a3.148,3.148,0,0,1,2.266-.964l9.913,0,2.539-8.4.008-.029a.568.568,0,0,1,.041-.132l.008-.026A3.274,3.274,0,0,1,17.264.381,3.139,3.139,0,0,1,19.611.117l.026.005a.814.814,0,0,1,.126.04L45.73,8.317a3.2,3.2,0,0,1,1.895,1.6,3.3,3.3,0,0,1,.231,2.493L38.441,43.6a3.236,3.236,0,0,1-1.573,1.932,3.161,3.161,0,0,1-2.445.238l-.768-.244v1.194a3.293,3.293,0,0,1-.942,2.313l-.006.005A3.161,3.161,0,0,1,30.442,50ZM3.213,12.385a1.652,1.652,0,0,0-1.181.5,1.725,1.725,0,0,0-.491,1.207V46.718a1.726,1.726,0,0,0,.491,1.207,1.651,1.651,0,0,0,1.181.495H30.442a1.66,1.66,0,0,0,1.181-.5,1.719,1.719,0,0,0,.488-1.2V14.089a1.722,1.722,0,0,0-.491-1.207,1.644,1.644,0,0,0-1.178-.5ZM18.769,1.572a1.658,1.658,0,0,0-.789.2,1.684,1.684,0,0,0-.818,1l-2.269,7.515-.089.3.354.225H30.442a3.161,3.161,0,0,1,2.266.964l.006.005a3.293,3.293,0,0,1,.942,2.313V43.883l1.223.381a1.6,1.6,0,0,0,.483.074,1.679,1.679,0,0,0,1.609-1.2l9.414-31.186a1.737,1.737,0,0,0-.124-1.3,1.67,1.67,0,0,0-.983-.834L19.255,1.646A1.577,1.577,0,0,0,18.769,1.572Zm7.364,38.494H22.7a.788.788,0,0,1,0-1.575h3.431a.788.788,0,0,1,0,1.575Zm-9.308,0H6.876a.788.788,0,0,1,0-1.575h9.949a.788.788,0,0,1,0,1.575Zm9.311-6.437H6.876a.788.788,0,0,1,0-1.575h19.26a.788.788,0,0,1,0,1.575Zm0-6.44H6.876a.788.788,0,0,1,0-1.575h19.26a.788.788,0,0,1,0,1.575Zm0-6.44H6.876a.788.788,0,0,1,0-1.575h19.26a.788.788,0,0,1,0,1.575Z" fill="#51b05f"/>
</svg>
