<svg xmlns="http://www.w3.org/2000/svg" width="49.999" height="46.28" viewBox="0 0 49.999 46.28">
  <g id="noun-monitoring-2619214" transform="translate(0.2 0.2)">
    <g id="Path_7689" data-name="Path 7689" transform="translate(-190.738 -138.165)" fill="#51b05f" fill-rule="evenodd">
      <path d="M 215.5370941162109 166.7857208251953 C 215.4717407226562 166.7857208251953 215.4076843261719 166.7770843505859 215.3456420898438 166.7599334716797 L 215.3430633544922 166.7658843994141 L 215.2569732666016 166.7290344238281 C 215.2550048828125 166.7281951904297 215.2530212402344 166.7273406982422 215.2510375976562 166.7264862060547 L 215.2394256591797 166.7213897705078 L 215.2113037109375 166.7090454101562 C 215.1873931884766 166.6987609863281 215.1508941650391 166.6825256347656 215.1042938232422 166.6614227294922 C 214.971923828125 166.6011810302734 214.8421020507812 166.5406799316406 214.7071990966797 166.4763641357422 C 214.3993072509766 166.3297119140625 213.9057464599609 166.0872344970703 213.3031005859375 165.7649993896484 C 212.2441864013672 165.198486328125 210.6424865722656 164.2723388671875 209.0254058837891 163.0771942138672 C 205.9308013916016 160.7905120849609 203.8947601318359 158.3787231445312 202.9726104736328 155.9077301025391 L 199.4169616699219 155.9078216552734 C 199.0200958251953 155.9078216552734 198.6972045898438 155.5847625732422 198.6972045898438 155.1876678466797 C 198.6972045898438 154.7908020019531 199.0200958251953 154.4679260253906 199.4169616699219 154.4679260253906 L 202.5643615722656 154.4679260253906 C 202.4839782714844 154.052490234375 202.4347839355469 153.6330261230469 202.4180145263672 153.21923828125 C 202.4175109863281 153.2132263183594 202.4173736572266 153.2071075439453 202.4173736572266 153.2004547119141 C 202.4170684814453 153.1953125 202.4169158935547 153.1913909912109 202.4169158935547 153.1874542236328 C 202.4169158935547 151.1555480957031 203.1265869140625 149.2373657226562 204.4151763916016 147.7862854003906 C 205.7209167480469 146.3159027099609 207.4688873291016 145.5061340332031 209.3370971679688 145.5061340332031 C 211.6829833984375 145.5061340332031 213.4261932373047 147.0559387207031 214.2565002441406 147.9797515869141 C 214.7578735351562 148.5373840332031 215.1979064941406 149.164794921875 215.5370483398438 149.8042907714844 C 215.8761749267578 149.1648101806641 216.3161926269531 148.5374145507812 216.8175811767578 147.979736328125 C 217.6479949951172 147.0559234619141 219.391357421875 145.5061340332031 221.7370300292969 145.5061340332031 C 223.6052856445312 145.5061340332031 225.3532562255859 146.31591796875 226.6589813232422 147.7863159179688 C 227.9475402832031 149.2374114990234 228.6571960449219 151.1555633544922 228.6571960449219 153.1874542236328 C 228.6571960449219 153.197509765625 228.65673828125 153.20751953125 228.6561584472656 153.2180938720703 C 228.5911865234375 154.824462890625 228.0449066162109 156.4390716552734 227.0320587158203 158.0184936523438 L 228.55712890625 158.0184936523438 C 228.9539794921875 158.0184936523438 229.27685546875 158.341552734375 229.27685546875 158.7386627197266 C 229.27685546875 159.1355133056641 228.9539794921875 159.4583740234375 228.55712890625 159.4583740234375 L 225.9728851318359 159.4583740234375 C 224.9467315673828 160.6934509277344 223.6266326904297 161.9107818603516 222.0484771728516 163.0771942138672 C 220.4317321777344 164.2721405029297 218.8298645019531 165.1983795166016 217.7707366943359 165.7649841308594 C 217.1684875488281 166.0870056152344 216.6747436523438 166.32958984375 216.3665924072266 166.4763793945312 C 216.2324371337891 166.5403442382812 216.1026153564453 166.6008605957031 215.9697418212891 166.6613311767578 C 215.9229431152344 166.6825256347656 215.886474609375 166.6987609863281 215.8618774414062 166.7093353271484 L 215.8338928222656 166.7215881347656 L 215.8268432617188 166.7247467041016 L 215.8260803222656 166.72509765625 L 215.8221282958984 166.7270202636719 C 215.8197631835938 166.7280426025391 215.8173675537109 166.7290496826172 215.8149871826172 166.7300415039062 L 215.7343139648438 166.7661437988281 L 215.7310333251953 166.7592620849609 C 215.6681976318359 166.77685546875 215.6032867431641 166.7857208251953 215.5370941162109 166.7857208251953 Z M 204.5287933349609 155.9077301025391 C 205.4380645751953 157.9439697265625 207.2379608154297 159.9656524658203 209.8812408447266 161.9190826416016 C 211.4295959472656 163.0633239746094 212.9662475585938 163.9516296386719 213.9826965332031 164.4953308105469 C 214.4363098144531 164.73828125 214.8884735107422 164.9674835205078 215.3266448974609 165.1765747070312 C 215.4053192138672 165.2142028808594 215.4757995605469 165.2470092773438 215.5370025634766 165.2754669189453 C 215.5981750488281 165.2469940185547 215.6686706542969 165.2141876220703 215.747314453125 165.1766052246094 C 216.1857604980469 164.9673461914062 216.6379241943359 164.7381439208984 217.0912780761719 164.495361328125 C 218.1078186035156 163.9515838623047 219.6445159912109 163.063232421875 221.1927032470703 161.9190826416016 C 222.2760772705078 161.1185455322266 223.2323608398438 160.2915344238281 224.0383605957031 159.4583740234375 L 221.9168701171875 159.4583740234375 C 221.6490631103516 159.4583740234375 221.4052276611328 159.3115081787109 221.2804870605469 159.0751037597656 L 220.065673828125 156.7783508300781 L 217.1277160644531 161.4867248535156 C 216.9957427978516 161.6990203857422 216.7672729492188 161.8258514404297 216.5166625976562 161.8258514404297 L 216.4995269775391 161.8256530761719 C 216.2456970214844 161.8191986083984 216.0115356445312 161.6777496337891 215.8882446289062 161.4564971923828 L 211.7189331054688 153.9796295166016 L 209.6240844726562 158.2657318115234 C 209.5212707519531 158.475830078125 209.322265625 158.6233825683594 209.0917358398438 158.6604766845703 C 209.053955078125 158.6665649414062 209.0154266357422 158.6696319580078 208.9772033691406 158.6696319580078 C 208.7845153808594 158.6696319580078 208.5967559814453 158.5907135009766 208.4620361328125 158.4530792236328 L 205.9740295410156 155.9077301025391 L 204.5287933349609 155.9077301025391 Z M 211.6767272949219 151.7058563232422 C 211.9377136230469 151.7058563232422 212.1788024902344 151.847412109375 212.3058929443359 152.0752716064453 L 216.5516510009766 159.6897735595703 L 219.5061645507812 154.9547729492188 C 219.6380767822266 154.7425689697266 219.8660430908203 154.6157989501953 220.1159362792969 154.6157989501953 C 220.1248321533203 154.6157989501953 220.1337432861328 154.615966796875 220.1426696777344 154.6163024902344 C 220.3993988037109 154.6253051757812 220.6334533691406 154.7720031738281 220.7532653808594 154.9990997314453 L 222.3507537841797 158.0185241699219 L 225.2772521972656 158.0185241699219 C 226.4967346191406 156.4019165039062 227.1492309570312 154.7711791992188 227.2169189453125 153.1707153320312 C 227.2110137939453 149.7404174804688 224.7528076171875 146.9461059570312 221.7370910644531 146.9461059570312 C 220.4124298095703 146.9461059570312 219.0456237792969 147.6551208496094 217.8884582519531 148.9425506591797 C 216.7677154541016 150.1893310546875 216.2572631835938 151.5376892089844 216.2572631835938 152.2628631591797 C 216.2572631835938 152.6597442626953 215.9341735839844 152.9826202392578 215.5370483398438 152.9826202392578 C 215.1399536132812 152.9826202392578 214.81689453125 152.6597442626953 214.81689453125 152.2628631591797 C 214.81689453125 151.5377655029297 214.3064422607422 150.1894378662109 213.1856994628906 148.9425506591797 C 212.0285339355469 147.6551208496094 210.6617279052734 146.9461059570312 209.3370361328125 146.9461059570312 C 206.3212432861328 146.9461059570312 203.8630676269531 149.7404174804688 203.8573150634766 153.1751098632812 C 203.8752746582031 153.5998382568359 203.9358978271484 154.0355682373047 204.0375823974609 154.4678344726562 L 206.27685546875 154.4678344726562 C 206.4697265625 154.4678344726562 206.6575012207031 154.5467224121094 206.7920379638672 154.6843109130859 L 208.7783813476562 156.7164001464844 L 211.0302734375 152.1098785400391 C 211.1479644775391 151.8684539794922 211.3883056640625 151.7136840820312 211.657470703125 151.7061157226562 C 211.6640167236328 151.7059478759766 211.6703796386719 151.7058563232422 211.6767272949219 151.7058563232422 Z" stroke="none"/>
      <path d="M 209.3370971679688 145.6061401367188 C 205.5049743652344 145.6061401367188 202.5169067382812 149.0698089599609 202.5169067382812 153.1874542236328 C 202.5169067382812 153.1917877197266 202.5173645019531 153.1961212158203 202.5173645019531 153.2004547119141 C 202.5173645019531 153.2047882080078 202.5173645019531 153.2086639404297 202.517822265625 153.2125701904297 C 202.536376953125 153.6739959716797 202.5943298339844 154.1259307861328 202.6864624023438 154.5679168701172 L 199.4169616699219 154.5679168701172 C 199.0748596191406 154.5679168701172 198.7972106933594 154.8455352783203 198.7972106933594 155.1876678466797 C 198.7972106933594 155.5301666259766 199.0748596191406 155.8078155517578 199.4169616699219 155.8078155517578 L 203.0422973632812 155.8077239990234 C 204.123046875 158.7683868408203 206.6781311035156 161.2183990478516 209.0848388671875 162.9967803955078 C 210.6460876464844 164.1506500244141 212.1943054199219 165.0583953857422 213.3502502441406 165.6768035888672 C 213.9293823242188 165.9864654541016 214.4115600585938 166.2247772216797 214.750244140625 166.3860931396484 C 214.9197998046875 166.4669342041016 215.0534057617188 166.5283966064453 215.1455383300781 166.5703277587891 C 215.1913757324219 166.5910797119141 215.227294921875 166.6070709228516 215.2514953613281 166.6174774169922 L 215.2908325195312 166.6347503662109 L 215.5369262695312 166.0656280517578 C 215.2916870117188 166.6343383789062 215.2908325195312 166.6347503662109 215.2908325195312 166.6347503662109 C 215.4473724365234 166.70263671875 215.6259613037109 166.70263671875 215.7825622558594 166.6351776123047 L 215.7825622558594 166.6351776123047 C 215.7825622558594 166.6351776123047 215.7825622558594 166.6351776123047 215.7825622558594 166.6351776123047 L 215.7825469970703 166.6351623535156 C 215.7825469970703 166.6351623535156 215.7825469970703 166.6351623535156 215.7825469970703 166.6351470947266 L 215.7825469970703 166.6351470947266 C 215.7825469970703 166.6351470947266 215.7825469970703 166.6351470947266 215.7825469970703 166.6351470947266 L 215.7825469970703 166.6351470947266 C 215.7825469970703 166.6351318359375 215.7825317382812 166.6351318359375 215.7825317382812 166.6351165771484 L 215.7825317382812 166.6351165771484 C 215.7825317382812 166.6351165771484 215.7825317382812 166.6351013183594 215.7825164794922 166.6350860595703 L 215.7825164794922 166.6350860595703 C 215.7824096679688 166.6348419189453 215.7820434570312 166.6339874267578 215.7807312011719 166.6309356689453 L 215.7807312011719 166.6309356689453 C 215.7807159423828 166.6308898925781 215.7807006835938 166.630859375 215.7806854248047 166.6308135986328 L 215.7806701660156 166.6307983398438 C 215.7801666259766 166.6296234130859 215.7795257568359 166.6281433105469 215.7787170410156 166.6262817382812 C 215.7768402099609 166.6219024658203 215.7740173339844 166.6153717041016 215.7698211669922 166.6056213378906 L 215.7697906494141 166.6055755615234 C 215.7678527832031 166.6010894775391 215.7656402587891 166.5959320068359 215.7630767822266 166.5899963378906 L 215.7630767822266 166.5899963378906 C 215.7624664306641 166.5885772705078 215.7618255615234 166.5871124267578 215.7611846923828 166.5856018066406 L 215.7611236572266 166.5854797363281 C 215.7584686279297 166.5793151855469 215.7554779052734 166.5723876953125 215.7521209716797 166.5646057128906 L 215.7518615722656 166.5639801025391 C 215.7485046386719 166.5562133789062 215.7447814941406 166.5475769042969 215.7406463623047 166.5380096435547 L 215.7406158447266 166.5379333496094 C 215.7400360107422 166.5365753173828 215.7394561767578 166.5352172851562 215.7388458251953 166.5338287353516 L 215.7388305664062 166.5337829589844 C 215.7386932373047 166.5334625244141 215.7385559082031 166.5331420898438 215.7384185791016 166.5328369140625 L 215.7383728027344 166.53271484375 C 215.7238464355469 166.4990539550781 215.7045593261719 166.4543304443359 215.6789398193359 166.3948974609375 C 215.6750946044922 166.385986328125 215.6710968017578 166.376708984375 215.6669616699219 166.3671264648438 L 215.6666870117188 166.3665008544922 C 215.6526641845703 166.3339996337891 215.636962890625 166.2975921630859 215.6193542480469 166.2567443847656 L 215.6189880371094 166.2559051513672 C 215.6069793701172 166.2280578613281 215.5940856933594 166.1981506347656 215.5802459716797 166.1660614013672 L 215.5801086425781 166.1657409667969 C 215.5764465332031 166.1572418212891 215.5726928710938 166.1485595703125 215.5688934326172 166.1397552490234 L 215.5683441162109 166.1384887695312 C 215.5671539306641 166.1356964111328 215.5659332275391 166.1328735351562 215.5647125244141 166.1300506591797 L 215.5640869140625 166.1286163330078 C 215.5553894042969 166.1084289550781 215.5463409423828 166.0874633789062 215.5369262695312 166.0656280517578 L 215.5640869140625 166.1286163330078 C 215.5643005371094 166.1290893554688 215.5645141601562 166.1295776367188 215.5647125244141 166.1300506591797 L 215.5683441162109 166.1384887695312 C 215.5685272216797 166.1389007568359 215.5687255859375 166.1393432617188 215.5688934326172 166.1397552490234 L 215.5801086425781 166.1657409667969 C 215.5801544189453 166.1658630371094 215.5801849365234 166.1659393310547 215.5802459716797 166.1660614013672 L 215.6189880371094 166.2559051513672 C 215.6191101074219 166.2561798095703 215.6192321777344 166.2564849853516 215.6193542480469 166.2567443847656 L 215.6666870117188 166.3665008544922 C 215.6667785644531 166.3667144775391 215.6668701171875 166.3669128417969 215.6669616699219 166.3671264648438 L 215.7383728027344 166.53271484375 C 215.7383880615234 166.5327606201172 215.7384033203125 166.5327911376953 215.7384185791016 166.5328369140625 L 215.7388305664062 166.5337829589844 C 215.7388305664062 166.5337829589844 215.7388458251953 166.5338134765625 215.7388458251953 166.5338287353516 L 215.7406158447266 166.5379333496094 C 215.7406311035156 166.5379486083984 215.7406463623047 166.5379943847656 215.7406463623047 166.5380096435547 L 215.7518615722656 166.5639801025391 C 215.751953125 166.5641937255859 215.7520294189453 166.5643920898438 215.7521209716797 166.5646057128906 L 215.7611236572266 166.5854797363281 C 215.7611389160156 166.5855255126953 215.7611694335938 166.5855712890625 215.7611846923828 166.5856018066406 L 215.7697906494141 166.6055755615234 C 215.7698059082031 166.6055908203125 215.7698059082031 166.6056060791016 215.7698211669922 166.6056213378906 L 215.7806701660156 166.6307983398438 C 215.7806701660156 166.6307983398438 215.7806701660156 166.6308135986328 215.7806854248047 166.6308135986328 L 215.7807312011719 166.6309356689453 C 215.7807312011719 166.6309356689453 215.7807312011719 166.6309356689453 215.7807312011719 166.6309356689453 L 215.7825317382812 166.6351165771484 C 215.7825317382812 166.6351165771484 215.7825317382812 166.6351165771484 215.7825317382812 166.6351165771484 L 215.7825469970703 166.6351470947266 C 215.7825469970703 166.6351470947266 215.7825469970703 166.6351470947266 215.7825469970703 166.6351470947266 L 215.7825469970703 166.6351470947266 C 215.7825469970703 166.6351470947266 215.7825469970703 166.6351470947266 215.7825469970703 166.6351470947266 L 215.7825469970703 166.6351623535156 C 215.7825622558594 166.6351623535156 215.7825622558594 166.6351776123047 215.7825622558594 166.6351776123047 L 215.7825622558594 166.6351776123047 C 215.7825622558594 166.6351776123047 215.7825622558594 166.6351776123047 215.7825622558594 166.6351776123047 L 215.8223571777344 166.6174774169922 C 215.8465576171875 166.6070709228516 215.8824462890625 166.5910797119141 215.9283142089844 166.5703277587891 C 216.0204162597656 166.5283966064453 216.154052734375 166.4669342041016 216.3235778808594 166.3860931396484 C 216.6622314453125 166.2247772216797 217.1444396972656 165.9864654541016 217.7235717773438 165.6768035888672 C 218.8795166015625 165.0583953857422 220.4278564453125 164.1506500244141 221.9890441894531 162.9967803955078 C 223.351806640625 161.9895477294922 224.7625122070312 160.7668914794922 225.9258728027344 159.3583831787109 L 228.55712890625 159.3583831787109 C 228.8992004394531 159.3583831787109 229.1768493652344 159.0811920166016 229.1768493652344 158.7386627197266 C 229.1768493652344 158.3961334228516 228.8992004394531 158.1184844970703 228.55712890625 158.1184844970703 L 226.8475646972656 158.1184844970703 C 227.8232727050781 156.6437835693359 228.4840393066406 154.9990386962891 228.5563049316406 153.2125701904297 C 228.5567932128906 153.2039031982422 228.5571899414062 153.1956939697266 228.5571899414062 153.1874542236328 C 228.5571899414062 149.0699157714844 225.5692749023438 145.6061401367188 221.7370300292969 145.6061401367188 C 219.7843627929688 145.6061401367188 218.0800170898438 146.7248992919922 216.8919372558594 148.0466003417969 C 216.344482421875 148.655517578125 215.8786926269531 149.3392944335938 215.5370483398438 150.0226287841797 C 215.1954040527344 149.3392944335938 214.7296142578125 148.655517578125 214.18212890625 148.0466003417969 C 212.9942016601562 146.7248992919922 211.2897644042969 145.6061401367188 209.3370971679688 145.6061401367188 M 215.5370483398438 152.8826141357422 C 215.8796081542969 152.8826141357422 216.1572570800781 152.6053924560547 216.1572570800781 152.2628631591797 C 216.1572570800781 151.4316253662109 216.7454223632812 150.0645446777344 217.8140869140625 148.8757019042969 C 218.8698425292969 147.7010955810547 220.265380859375 146.8460998535156 221.7370910644531 146.8460998535156 C 224.7496337890625 146.8460998535156 227.310791015625 149.6091613769531 227.3168334960938 153.1749420166016 C 227.2415466308594 154.9549713134766 226.4674072265625 156.6182403564453 225.3269653320312 158.1185150146484 L 222.29052734375 158.1185150146484 L 220.6648254394531 155.0457611083984 C 220.5614624023438 154.8498382568359 220.3608093261719 154.7240142822266 220.1389465332031 154.7162322998047 C 219.9177093505859 154.7080383300781 219.7082214355469 154.8191375732422 219.5910034179688 155.0077056884766 L 216.5468139648438 159.8864288330078 L 212.2185668945312 152.1239776611328 C 212.1061401367188 151.9224090576172 211.8912506103516 151.8001251220703 211.6602783203125 151.8060760498047 C 211.4293212890625 151.8125762939453 211.2213134765625 151.9462127685547 211.1201171875 152.1537933349609 L 208.8059692382812 156.8876800537109 L 206.7205505371094 154.7542266845703 C 206.6037902832031 154.6348419189453 206.4437866210938 154.5678253173828 206.27685546875 154.5678253173828 L 203.9588012695312 154.5678253173828 C 203.9588165283203 154.5678558349609 203.9588165283203 154.5678863525391 203.9588317871094 154.5679168701172 L 203.958740234375 154.5678253173828 L 203.9588012695312 154.5678253173828 C 203.8463897705078 154.1120452880859 203.7771911621094 153.6475982666016 203.75732421875 153.1749420166016 C 203.7632751464844 149.6091613769531 206.3244323730469 146.8460998535156 209.3370361328125 146.8460998535156 C 210.8087768554688 146.8460998535156 212.2043762207031 147.7011566162109 213.2600708007812 148.8757019042969 C 214.3287353515625 150.0646514892578 214.9169006347656 151.4316558837891 214.9169006347656 152.2628631591797 C 214.9169006347656 152.6053924560547 215.1945495605469 152.8826141357422 215.5370483398438 152.8826141357422 M 216.5166625976562 161.7258605957031 C 216.7303314208984 161.7258605957031 216.9296112060547 161.6159973144531 217.0428771972656 161.4337921142578 L 220.0728149414062 156.5779876708984 L 221.3689270019531 159.0284271240234 C 221.4761657714844 159.2316741943359 221.6872253417969 159.3583831787109 221.9168701171875 159.3583831787109 L 224.2720947265625 159.3583831787109 C 223.3586730957031 160.3279266357422 222.3156127929688 161.2136688232422 221.2521362304688 161.9994964599609 C 219.7522888183594 163.1079254150391 218.2590026855469 163.9841156005859 217.1384887695312 164.5835113525391 C 216.5788269042969 164.8832244873047 216.1139221191406 165.1124420166016 215.7904357910156 165.2668304443359 C 215.6926879882812 165.3135528564453 215.6074829101562 165.3529205322266 215.5370178222656 165.3857574462891 C 215.4664916992188 165.3529205322266 215.3812866210938 165.3135528564453 215.2835693359375 165.2668304443359 C 214.9600524902344 165.1124420166016 214.4951477050781 164.8832244873047 213.9355163574219 164.5835113525391 C 212.8149719238281 163.9841156005859 211.3216857910156 163.1079254150391 209.8218078613281 161.9994964599609 C 207.5681457519531 160.3339996337891 205.4053649902344 158.2213592529297 204.3760375976562 155.8077239990234 L 206.01611328125 155.8077239990234 L 208.5335083007812 158.3831329345703 C 208.6745147705078 158.5271911621094 208.8769378662109 158.5937805175781 209.0758361816406 158.5617523193359 C 209.2747497558594 158.5297393798828 209.445556640625 158.4030303955078 209.5342407226562 158.2218170166016 L 211.7131042480469 153.7638397216797 L 215.9755859375 161.4078216552734 C 216.0823669433594 161.5994415283203 216.2826232910156 161.7201080322266 216.5018920898438 161.7256927490234 C 216.5068206787109 161.7257995605469 216.5117340087891 161.7258605957031 216.5166625976562 161.7258605957031 M 209.3370971679688 145.4061431884766 C 211.7217559814453 145.4061431884766 213.4894256591797 146.9767150878906 214.3308868408203 147.9129028320312 C 214.795166015625 148.4292907714844 215.2074432373047 149.0049438476562 215.5370483398438 149.5951538085938 C 215.8666381835938 149.0049591064453 216.2789001464844 148.4293060302734 216.7432098388672 147.9128723144531 C 217.5847473144531 146.9766998291016 219.3525543212891 145.4061431884766 221.7370300292969 145.4061431884766 C 223.6342468261719 145.4061431884766 225.4087829589844 146.2278594970703 226.7337493896484 147.7199249267578 C 228.03857421875 149.1893310546875 228.7571868896484 151.1310729980469 228.7571868896484 153.1874542236328 C 228.7571868896484 153.1994018554688 228.7566833496094 153.2112884521484 228.7559814453125 153.2238616943359 C 228.6924743652344 154.7944030761719 228.173828125 156.3729400634766 227.2134399414062 157.9184875488281 L 228.55712890625 157.9184875488281 C 229.0091247558594 157.9184875488281 229.3768463134766 158.2864227294922 229.3768463134766 158.7386627197266 C 229.3768463134766 159.1906585693359 229.0091247558594 159.5583801269531 228.55712890625 159.5583801269531 L 226.0197143554688 159.5583801269531 C 224.9927825927734 160.7872009277344 223.6771240234375 161.9978179931641 222.1079254150391 163.1576232910156 C 220.4862976074219 164.3561553955078 218.8799285888672 165.2850036621094 217.8179168701172 165.8531494140625 C 217.2138366699219 166.1761627197266 216.7186431884766 166.41943359375 216.4095916748047 166.566650390625 C 216.2749938964844 166.6308441162109 216.1446380615234 166.6916046142578 216.0111694335938 166.7523651123047 C 215.9634246826172 166.7739562988281 215.9263763427734 166.7904510498047 215.9013824462891 166.8011932373047 L 215.8714141845703 166.8143615722656 L 215.6847534179688 166.9068756103516 L 215.6705017089844 166.8749237060547 C 215.5832672119141 166.8892517089844 215.4920654296875 166.8892974853516 215.40478515625 166.8751068115234 L 215.3953094482422 166.8970336914062 L 215.2179565429688 166.8211059570312 C 215.2159271240234 166.8202514648438 215.2138977050781 166.8193817138672 215.2118835449219 166.8185119628906 L 214.8053131103516 166.6421813964844 L 214.8146667480469 166.6377868652344 C 214.7649230957031 166.6144714355469 214.7148895263672 166.5908050537109 214.6641540527344 166.5666198730469 C 214.3554077148438 166.4195556640625 213.8603973388672 166.1763763427734 213.2559356689453 165.8531646728516 C 212.1941070556641 165.2851104736328 210.5879364013672 164.3563537597656 208.9659729003906 163.1576232910156 C 205.8826599121094 160.8792877197266 203.8437347412109 158.4743957519531 202.9034576416016 156.0077362060547 L 199.4169616699219 156.0078125 C 198.9649505615234 156.0078125 198.5972137451172 155.639892578125 198.5972137451172 155.1876678466797 C 198.5972137451172 154.7356567382812 198.9649505615234 154.367919921875 199.4169616699219 154.367919921875 L 202.4440307617188 154.367919921875 C 202.3758544921875 153.9871215820312 202.3336029052734 153.6037902832031 202.3181610107422 153.2250061035156 C 202.3175811767578 153.2171478271484 202.3173675537109 153.2091064453125 202.3173675537109 153.2004547119141 C 202.3171081542969 153.1986999511719 202.3169097900391 153.1930847167969 202.3169097900391 153.1874542236328 C 202.3169097900391 151.1310424804688 203.0355377197266 149.1892852783203 204.3404083251953 147.7198791503906 C 205.6653747558594 146.2278442382812 207.4399108886719 145.4061431884766 209.3370971679688 145.4061431884766 Z M 215.5370483398438 153.0826110839844 C 215.0848236083984 153.0826110839844 214.7169036865234 152.7148742675781 214.7169036865234 152.2628631591797 C 214.7169036865234 151.5562133789062 214.2144622802734 150.2366943359375 213.111328125 149.0093994140625 C 211.9733734130859 147.7433471679688 210.6329803466797 147.0460968017578 209.3370361328125 147.0460968017578 C 206.3775482177734 147.0460968017578 203.9650268554688 149.7933349609375 203.9573211669922 153.1709899902344 C 203.9742431640625 153.5667114257812 204.0279541015625 153.9685363769531 204.1172332763672 154.3678283691406 L 206.27685546875 154.3678283691406 C 206.4964599609375 154.3678283691406 206.7102966308594 154.4577026367188 206.8635406494141 154.6143951416016 L 208.7508087158203 156.5451202392578 L 210.9404449462891 152.0659484863281 C 211.0744476318359 151.7910308837891 211.3481597900391 151.6147766113281 211.6546478271484 151.6061553955078 C 211.662353515625 151.60595703125 211.6695556640625 151.6058654785156 211.6767272949219 151.6058654785156 C 211.9739379882812 151.6058654785156 212.2485046386719 151.7670593261719 212.3932342529297 152.0265502929688 L 216.5564880371094 159.4931030273438 L 219.4213256835938 154.9018402099609 C 219.5768890380859 154.6515960693359 219.8502807617188 154.5052947998047 220.146484375 154.5163726806641 C 220.4386291503906 154.5266265869141 220.7052154541016 154.6937255859375 220.8417205810547 154.9524230957031 L 222.4109802246094 157.9185180664062 L 225.2273101806641 157.9185180664062 C 226.4140167236328 156.3329620361328 227.049560546875 154.7362365722656 227.1168212890625 153.1709136962891 C 227.1090545654297 149.7932586669922 224.6965026855469 147.0460968017578 221.7370910644531 147.0460968017578 C 220.4411773681641 147.0460968017578 219.1007843017578 147.7433471679688 217.9628448486328 149.0093994140625 C 216.8596954345703 150.2365875244141 216.3572540283203 151.55615234375 216.3572540283203 152.2628631591797 C 216.3572540283203 152.7148742675781 215.9893188476562 153.0826110839844 215.5370483398438 153.0826110839844 Z M 216.5166625976562 161.9258575439453 L 216.4970245361328 161.9256286621094 C 216.2079772949219 161.9182739257812 215.9413146972656 161.7571716308594 215.8008728027344 161.5051727294922 L 211.7247772216797 154.1954193115234 L 209.7139282226562 158.3096313476562 C 209.5968322753906 158.5489349365234 209.3701934814453 158.7169647216797 209.1076202392578 158.7592010498047 C 208.8476715087891 158.8010559082031 208.5743865966797 158.7108306884766 208.3905792236328 158.5230255126953 L 205.9319305419922 156.0077209472656 L 204.6844177246094 156.0077209472656 C 205.6057891845703 157.9804840087891 207.3724822998047 159.9407043457031 209.940673828125 161.8386535644531 C 211.4841918945312 162.9793243408203 213.0163421630859 163.8650207519531 214.0298461914062 164.4071502685547 C 214.4821624755859 164.6493988037109 214.9329376220703 164.8778839111328 215.3697052001953 165.0863342285156 C 215.4305877685547 165.1154327392578 215.4865112304688 165.1416320800781 215.5370025634766 165.1651611328125 C 215.5874786376953 165.1416320800781 215.6433868408203 165.1154479980469 215.7041931152344 165.0863800048828 C 216.1412963867188 164.8777618408203 216.5920715332031 164.6492614746094 217.0440673828125 164.4071960449219 C 218.0577239990234 163.8649749755859 219.5899047851562 162.9792327880859 221.1332702636719 161.8386535644531 C 222.1387176513672 161.095703125 223.0338897705078 160.3302307128906 223.8003234863281 159.5583801269531 L 221.9168701171875 159.5583801269531 C 221.6118774414062 159.5583801269531 221.3341369628906 159.3910827636719 221.1920471191406 159.1217651367188 L 220.0585174560547 156.9787139892578 L 217.2125549316406 161.5396728515625 C 217.0622863769531 161.7813720703125 216.8020629882812 161.9258575439453 216.5166625976562 161.9258575439453 Z" stroke="none" fill="#51b05f"/>
    </g>
    <g id="Path_7690" data-name="Path 7690" transform="translate(-126.001 -78.398)" fill="#51b05f" fill-rule="evenodd">
      <path d="M 158.6284332275391 124.3780517578125 L 142.972412109375 124.3780517578125 C 142.5762939453125 124.3780517578125 142.2027282714844 124.2042694091797 141.9474792480469 123.9012756347656 C 141.6922302246094 123.598274230957 141.5844268798828 123.2005767822266 141.6516876220703 122.8101577758789 L 143.0925903320312 114.4579849243164 L 127.2409133911133 114.4579849243164 C 126.5020904541016 114.4579849243164 125.9010238647461 113.8569259643555 125.9010238647461 113.1181182861328 L 125.9010238647461 79.63832092285156 C 125.9010238647461 78.89926910400391 126.5020904541016 78.29800415039062 127.2409133911133 78.29800415039062 L 174.3605804443359 78.29800415039062 C 175.0993957519531 78.29800415039062 175.7004852294922 78.89926910400391 175.7004852294922 79.63832092285156 L 175.7004852294922 113.1181182861328 C 175.7004852294922 113.8569259643555 175.0993957519531 114.4579849243164 174.3605804443359 114.4579849243164 L 158.5088806152344 114.4579849243164 L 159.9491271972656 122.8101501464844 C 160.0163879394531 123.2005844116211 159.9085845947266 123.5982894897461 159.6533203125 123.9012908935547 C 159.3980865478516 124.2042770385742 159.0245208740234 124.3780517578125 158.6284332275391 124.3780517578125 Z M 143.0913543701172 122.9381484985352 L 158.5099334716797 122.9381484985352 L 157.0479888916016 114.4579849243164 L 144.5532836914062 114.4579849243164 L 143.0913543701172 122.9381484985352 Z M 127.3409118652344 113.0179977416992 L 174.2605743408203 113.0179977416992 L 174.2605743408203 79.73822784423828 L 127.3409118652344 79.73822784423828 L 127.3409118652344 113.0179977416992 Z" stroke="none"/>
      <path d="M 158.6284332275391 124.2780456542969 C 159.3973236083984 124.2780456542969 159.981201171875 123.5852661132812 159.8505706787109 122.8271408081055 L 158.3901519775391 114.3579864501953 L 174.3605804443359 114.3579864501953 C 175.0451507568359 114.3579864501953 175.6004791259766 113.8031463623047 175.6004791259766 113.1181182861328 L 175.6004791259766 79.63832092285156 C 175.6004791259766 78.95330810546875 175.0452117919922 78.39801025390625 174.3605804443359 78.39801025390625 L 127.2409133911133 78.39801025390625 C 126.5563125610352 78.39801025390625 126.0010223388672 78.95330047607422 126.0010223388672 79.63832092285156 L 126.0010223388672 113.1181182861328 C 126.0010223388672 113.8031311035156 126.5562896728516 114.3579864501953 127.2409133911133 114.3579864501953 L 143.2113189697266 114.3579864501953 L 141.750244140625 122.8271408081055 C 141.6196136474609 123.5852203369141 142.2034606933594 124.2780456542969 142.972412109375 124.2780456542969 L 158.6284332275391 124.2780456542969 M 144.4690399169922 114.3579864501953 L 157.1322174072266 114.3579864501953 L 158.6286468505859 123.0381469726562 L 142.9726409912109 123.0381469726562 L 144.4690399169922 114.3579864501953 M 127.2409133911133 79.63822937011719 L 174.3605804443359 79.63822937011719 L 174.3605804443359 113.1179962158203 L 127.2409133911133 113.1179962158203 L 127.2409133911133 79.63822937011719 M 158.6284332275391 124.4780502319336 L 142.972412109375 124.4780502319336 C 142.5467376708984 124.4780502319336 142.1452941894531 124.2913055419922 141.8710021972656 123.965705871582 C 141.5966949462891 123.6400985717773 141.4808502197266 123.2127304077148 141.5531463623047 122.7931747436523 L 142.9738616943359 114.557991027832 L 127.2409133911133 114.557991027832 C 126.4469528198242 114.557991027832 125.8010177612305 113.9120712280273 125.8010177612305 113.1181182861328 L 125.8010177612305 79.63832092285156 C 125.8010177612305 78.84413146972656 126.4469528198242 78.19800567626953 127.2409133911133 78.19800567626953 L 174.3605804443359 78.19800567626953 C 175.154541015625 78.19800567626953 175.8004760742188 78.84413146972656 175.8004760742188 79.63832092285156 L 175.8004760742188 113.1181182861328 C 175.8004760742188 113.9120712280273 175.154541015625 114.557991027832 174.3605804443359 114.557991027832 L 158.6275939941406 114.557991027832 L 160.0476531982422 122.7931442260742 C 160.1199645996094 123.2127380371094 160.0041046142578 123.6401214599609 159.7297973632812 123.9657211303711 C 159.4555053710938 124.2913055419922 159.0540771484375 124.4780502319336 158.6284332275391 124.4780502319336 Z M 143.2100677490234 122.8381500244141 L 158.3912200927734 122.8381500244141 L 156.9637451171875 114.557991027832 L 144.6375122070312 114.557991027832 L 143.2100677490234 122.8381500244141 Z M 127.4409103393555 112.9179992675781 L 174.1605834960938 112.9179992675781 L 174.1605834960938 79.83822631835938 L 127.4409103393555 79.83822631835938 L 127.4409103393555 112.9179992675781 Z" stroke="none" fill="#51b05f"/>
    </g>
  </g>
</svg>
