<svg id="noun-cloud-protection-3202062" xmlns="http://www.w3.org/2000/svg" width="57.854" height="53.76" viewBox="0 0 57.854 53.76">
  <path id="Subtraction_23" data-name="Subtraction 23" d="M28.928,53.76a2.394,2.394,0,0,1-.951-.216l-.008-.006-.013-.007a35.37,35.37,0,0,1-6.671-4.771A25.091,25.091,0,0,1,16.99,43.74,15.929,15.929,0,0,1,14.547,37.3a1.008,1.008,0,0,0-.993-.869h-.189a13.366,13.366,0,1,1,0-26.731h.885a1,1,0,0,0,.9-.563A16.251,16.251,0,0,1,29.684,0,15.952,15.952,0,0,1,44.925,11.026a1,1,0,0,0,.869.69.778.778,0,0,0,.079,0A12.36,12.36,0,0,1,45.5,36.432H44.3a1,1,0,0,0-.99.869,16.12,16.12,0,0,1-2.522,6.57,25.78,25.78,0,0,1-4.413,5.09,32.733,32.733,0,0,1-6.466,4.568A2.726,2.726,0,0,1,28.928,53.76Zm0-33.33a1,1,0,0,0-.783.379,13.686,13.686,0,0,1-3.556,3.118,18.5,18.5,0,0,1-7.386,2.5,1,1,0,0,0-.869.993v8.126c0,8.909,10.084,14.992,12.105,16.121a.994.994,0,0,0,.487.126,1.008,1.008,0,0,0,.508-.137c3.634-2.139,12.085-7.99,12.085-16.111V27.416a1,1,0,0,0-.872-.993,18.722,18.722,0,0,1-7.434-2.475,12.164,12.164,0,0,1-3.481-3.11,1,1,0,0,0-.787-.408Zm0-2.662a1.982,1.982,0,0,1,1.816,1.085,8.431,8.431,0,0,0,2.615,2.863A17.136,17.136,0,0,0,42.534,24.7a1,1,0,0,1,.893.956v7.939a1,1,0,0,0,1,1H45.5a10.482,10.482,0,0,0,0-20.964,4.736,4.736,0,0,0-.494.031l-.057.006-.047.005a2.628,2.628,0,0,1-.284.021,1.064,1.064,0,0,0-.132.008.524.524,0,0,1-.093.008.947.947,0,0,1-.874-.724.191.191,0,0,0-.008-.029A14.19,14.19,0,0,0,16.4,11.194a.009.009,0,0,1,0,.008.931.931,0,0,1-.911.614,1.027,1.027,0,0,1-.129-.005,9.777,9.777,0,0,0-1.925-.2,11.459,11.459,0,0,0,0,22.918h.065a1,1,0,0,0,1-1V25.651a1,1,0,0,1,.891-.956c8.01-.477,11.006-4.51,11.733-5.735l.011-.019a.815.815,0,0,0,.071-.134A1.8,1.8,0,0,1,28.928,17.767Z" fill="#51b05f"/>
  <path id="Subtraction_24" data-name="Subtraction 24" d="M4.544,8.8a1.053,1.053,0,0,1-.731-.328L.254,4.664A.987.987,0,0,1,.291,3.3a1.107,1.107,0,0,1,.687-.254.915.915,0,0,1,.688.31L3.807,5.689a1,1,0,0,0,1.474,0L10.193.333A.98.98,0,0,1,10.909,0a.947.947,0,0,1,.643.265.983.983,0,0,1,.335.679.953.953,0,0,1-.267.682L5.272,8.476A1.034,1.034,0,0,1,4.544,8.8Z" transform="translate(22.998 31.98)" fill="#51b05f"/>
</svg>
