<svg xmlns="http://www.w3.org/2000/svg" xmlns:xlink="http://www.w3.org/1999/xlink" width="653.528" height="695" viewBox="0 0 653.528 695">
  <defs>
    <filter id="Path_7546" x="0" y="395.679" width="264.123" height="264.123" filterUnits="userSpaceOnUse">
      <feOffset dy="3" input="SourceAlpha"/>
      <feGaussianBlur stdDeviation="11.5" result="blur"/>
      <feFlood flood-opacity="0.161"/>
      <feComposite operator="in" in2="blur"/>
      <feComposite in="SourceGraphic"/>
    </filter>
  </defs>
  <g id="Group_4506" data-name="Group 4506" transform="translate(34.5)">
    <g id="Rectangle_5475" data-name="Rectangle 5475" transform="translate(425.72 581.486)" fill="none" stroke="#adb2b3" stroke-width="2">
      <rect width="157.856" height="113.514" rx="4" stroke="none"/>
      <rect x="1" y="1" width="155.856" height="111.514" rx="3" fill="none"/>
    </g>
    <rect id="Rectangle_5482" data-name="Rectangle 5482" width="129.477" height="21.284" transform="translate(439.909 560.202)" fill="#263238"/>
    <g id="Rectangle_5477" data-name="Rectangle 5477" transform="translate(427.494 285.285)" fill="none" stroke="#adb2b3" stroke-width="2">
      <rect width="157.856" height="274.917" rx="4" stroke="none"/>
      <rect x="1" y="1" width="155.856" height="272.917" rx="3" fill="none"/>
    </g>
    <g id="Rectangle_5479" data-name="Rectangle 5479" transform="translate(212.834 300.113) rotate(-135)" fill="none" stroke="#adb2b3" stroke-width="2">
      <rect width="101.098" height="217.378" rx="4" stroke="none"/>
      <rect x="1" y="1" width="99.098" height="215.378" rx="3" fill="none"/>
    </g>
    <g id="Rectangle_5478" data-name="Rectangle 5478" transform="translate(619.028 286.272) rotate(135)" fill="#fff" stroke="#adb2b3" stroke-width="2">
      <rect width="157.855" height="404.85" rx="45" stroke="none"/>
      <rect x="1" y="1" width="155.855" height="402.85" rx="44" fill="none"/>
    </g>
    <rect id="Rectangle_5476" data-name="Rectangle 5476" width="62.078" height="90.457" transform="translate(135.634 350.179) rotate(-135)" fill="#263238"/>
    <rect id="Rectangle_5480" data-name="Rectangle 5480" width="62.078" height="47.002" transform="translate(86.243 322.532)" fill="#263238"/>
    <path id="Union_133" data-name="Union 133" d="M33.741,53.342,25.718,31.278h97.906l-10.2,22.064ZM3,31.278a3,3,0,0,1-3-3V3A3,3,0,0,1,3,0H144.56a3,3,0,0,1,3,3V28.278a3,3,0,0,1-3,3Z" transform="translate(190.162 422.916) rotate(180)" fill="#fff" stroke="#adb2b3" stroke-width="2"/>
    <circle id="Ellipse_1542" data-name="Ellipse 1542" cx="47.068" cy="47.068" r="47.068" transform="translate(332.891 173.943) rotate(-135)" fill="#e4e4e4"/>
    <circle id="Ellipse_1547" data-name="Ellipse 1547" cx="42.54" cy="42.54" r="42.54" transform="translate(116.372 382.692) rotate(-135)" fill="#e4e4e4"/>
    <circle id="Ellipse_1545" data-name="Ellipse 1545" cx="47.068" cy="47.068" r="47.068" transform="translate(506.421 351.849) rotate(-135)" fill="#e4e4e4"/>
    <circle id="Ellipse_1543" data-name="Ellipse 1543" cx="24.293" cy="24.293" r="24.293" transform="translate(332.889 141.738) rotate(-135)" fill="#fff"/>
    <circle id="Ellipse_1546" data-name="Ellipse 1546" cx="21.956" cy="21.956" r="21.956" transform="translate(116.371 353.582) rotate(-135)" fill="#fff"/>
    <circle id="Ellipse_1544" data-name="Ellipse 1544" cx="24.293" cy="24.293" r="24.293" transform="translate(506.422 319.641) rotate(-135)" fill="#fff"/>
    <rect id="Rectangle_5483" data-name="Rectangle 5483" width="15.963" height="35.473" rx="5" transform="translate(164.934 424.555)" fill="#263238"/>
    <rect id="Rectangle_5486" data-name="Rectangle 5486" width="15.963" height="35.474" rx="5" transform="translate(50.085 424.555)" fill="#263238"/>
    <rect id="Rectangle_5484" data-name="Rectangle 5484" width="15.963" height="35.473" rx="5" transform="translate(151.828 488.856) rotate(-135)" fill="#263238"/>
    <g transform="matrix(1, 0, 0, 1, -34.5, 0)" filter="url(#Path_7546)">
      <path id="Path_7546-2" data-name="Path 7546" d="M150.141,0H9.205A9.208,9.208,0,0,0,0,9.205v98.19A9.208,9.208,0,0,0,9.205,116.6H150.141a9.208,9.208,0,0,0,9.205-9.205V9.205A9.2,9.2,0,0,0,150.141,0Z" transform="translate(229.62 509.63) rotate(135)" fill="#fff"/>
    </g>
    <rect id="Rectangle_5485" data-name="Rectangle 5485" width="15.963" height="35.473" rx="5" transform="translate(54.07 463.774) rotate(-45)" fill="#263238"/>
    <g id="Icon_feather-check-circle" data-name="Icon feather-check-circle" transform="translate(52.979 527.247) rotate(-43)">
      <path id="Path_4375" data-name="Path 4375" d="M60.9,29.3v2.664A28.952,28.952,0,1,1,43.735,5.5" transform="translate(0)" fill="none" stroke="#52a359" stroke-linecap="round" stroke-linejoin="round" stroke-width="5"/>
      <path id="Path_4376" data-name="Path 4376" d="M51.137,6,22.186,34.981,13.5,26.3" transform="translate(9.766 2.799)" fill="none" stroke="#52a359" stroke-linecap="round" stroke-linejoin="round" stroke-width="5"/>
    </g>
  </g>
</svg>
