<svg id="ic_DevOps_Consulting" data-name="ic_DevOps Consulting" xmlns="http://www.w3.org/2000/svg" width="54.035" height="49.032" viewBox="0 0 54.035 49.032">
  <path id="Path_4581" data-name="Path 4581" d="M11666.8,21452.8a2.737,2.737,0,0,1-1.722-2.559v-7.68h-.425a5.069,5.069,0,0,1-3.579-1.473,4.969,4.969,0,0,1-1.486-3.555v-28.523a4.947,4.947,0,0,1,1.486-3.551,5.036,5.036,0,0,1,3.579-1.473h43.9a5.07,5.07,0,0,1,3.588,1.473,5,5,0,0,1,1.484,3.551v28.523a5.02,5.02,0,0,1-1.484,3.555,5.1,5.1,0,0,1-3.582,1.473h-29l-9.72,9.641a2.769,2.769,0,0,1-3.042.6Zm-4.194-45.82a2.849,2.849,0,0,0-.85,2.031v28.523a2.865,2.865,0,0,0,.85,2.035,2.935,2.935,0,0,0,2.048.844h1.509a1.1,1.1,0,0,1,.769.313,1.07,1.07,0,0,1,.316.762v8.762a.62.62,0,0,0,.618.613.572.572,0,0,0,.437-.184l10.045-9.953a1.1,1.1,0,0,1,.768-.312h29.437a2.922,2.922,0,0,0,2.055-.844,2.869,2.869,0,0,0,.85-2.035v-28.523a2.884,2.884,0,0,0-2.9-2.871h-43.9A2.881,2.881,0,0,0,11662.6,21406.984Zm24.312,30.691h-2.041a2.8,2.8,0,0,1-2.395-1.4,2.767,2.767,0,0,1,0-2.762,2.821,2.821,0,0,1,2.395-1.4h2.047a2.818,2.818,0,0,1,2.393,1.4,2.713,2.713,0,0,1,.174.355h6.668a.619.619,0,0,0,.62-.609v-.586c-.06,0-.119,0-.179,0h-.465a2.048,2.048,0,0,1-2.053-2.039v-7.219a2.051,2.051,0,0,1,2.053-2.039h.465c.055,0,.108,0,.163.008,0-.1.007-.211.01-.332a9.945,9.945,0,0,0-2.876-7.125,10.073,10.073,0,0,0-14.282,0,9.961,9.961,0,0,0-2.882,7.125c0,.117,0,.223.008.324h.24a2.149,2.149,0,0,1,2.151,2.137v7.027a2.149,2.149,0,0,1-2.151,2.133h-.373a5.727,5.727,0,0,1-4.883-2.84,5.629,5.629,0,0,1,2.858-8.062q-.01-.3-.02-.68v-.008a12.132,12.132,0,0,1,7.472-11.363,12.287,12.287,0,0,1,9.434,0,12.091,12.091,0,0,1,7.473,11.371c0,.3-.015.57-.027.8a5.676,5.676,0,0,1,2.568,2.32,5.618,5.618,0,0,1-2.538,7.922v1.117a2.728,2.728,0,0,1-.814,1.953,2.778,2.778,0,0,1-1.972.813h-6.714c-.038.078-.08.164-.128.25a2.8,2.8,0,0,1-2.393,1.4Zm-2.508-3.23a.636.636,0,0,0-.189.449.625.625,0,0,0,.189.453.652.652,0,0,0,.448.184h2.082a.62.62,0,0,0,.443-.184.554.554,0,0,0,.138-.184.989.989,0,0,1-.022-.219,1.079,1.079,0,0,1,.035-.277.585.585,0,0,0-.15-.223.613.613,0,0,0-.443-.176h-2.082A.644.644,0,0,0,11684.406,21434.445Zm11.839-3.918h.345a3.543,3.543,0,0,0,3.013-1.758,3.486,3.486,0,0,0,0-3.477,3.528,3.528,0,0,0-3.018-1.758h-.34Zm-22.648-5.234a3.486,3.486,0,0,0,0,3.477,3.554,3.554,0,0,0,3.018,1.758h.34v-6.992h-.34A3.537,3.537,0,0,0,11673.6,21425.293Z" transform="translate(-11659.585 -21403.992)" fill="#51b05f"/>
</svg>
