<svg id="ic_System_Migration" data-name="ic_System Migration" xmlns="http://www.w3.org/2000/svg" width="55.381" height="55.23" viewBox="0 0 55.381 55.23">
  <path id="Path_5413" data-name="Path 5413" d="M-14733.414,21269.43a5,5,0,0,1-4.992-5,4.992,4.992,0,0,1,3.34-4.672l.8-.277v-1.566h-15.654a.843.843,0,0,1-.846-.855v-5.332h-4.473v7.754l.789.277a4.994,4.994,0,0,1,3.342,4.672,5,5,0,0,1-4.994,5,5,5,0,0,1-4.992-5,5,5,0,0,1,3.326-4.672l.795-.277v-7.754h-4.455v5.332a.866.866,0,0,1-.869.855h-15.646v1.566l.811.277a4.991,4.991,0,0,1,3.318,4.672,5,5,0,0,1-4.992,5,5,5,0,0,1-4.992-5,5,5,0,0,1,3.342-4.672l.8-.277v-2.422a.87.87,0,0,1,.848-.867h15.652v-4.465h-11.457a4.985,4.985,0,0,1-4.984-4.977v-1.129a5,5,0,0,1,4.984-5h36.99a5.008,5.008,0,0,1,5.006,5v1.129a5,5,0,0,1-5.006,4.977h-11.436v4.465h15.646a.867.867,0,0,1,.863.867v2.422l.8.277a5,5,0,0,1,3.326,4.672A5,5,0,0,1-14733.414,21269.43Zm0-8.254a3.263,3.263,0,0,0-3.266,3.258,3.269,3.269,0,0,0,3.266,3.266,3.273,3.273,0,0,0,3.273-3.266A3.267,3.267,0,0,0-14733.414,21261.176Zm-22.691,0a3.267,3.267,0,0,0-3.273,3.258,3.273,3.273,0,0,0,3.273,3.266,3.269,3.269,0,0,0,3.266-3.266A3.263,3.263,0,0,0-14756.105,21261.176Zm-22.705,0a3.258,3.258,0,0,0-3.258,3.258,3.265,3.265,0,0,0,3.258,3.266,3.272,3.272,0,0,0,3.273-3.266A3.265,3.265,0,0,0-14778.811,21261.176Zm4.2-18.824a3.27,3.27,0,0,0-3.258,3.273v1.129a3.259,3.259,0,0,0,3.258,3.254h36.99a3.27,3.27,0,0,0,3.281-3.254v-1.129a3.282,3.282,0,0,0-3.281-3.273Zm36.99-3.824h-36.99a4.989,4.989,0,0,1-4.984-4.984v-1.129a5,5,0,0,1,4.984-5h36.99a5.012,5.012,0,0,1,5.006,5v1.129A5,5,0,0,1-14737.625,21238.527Zm-36.99-9.387a3.268,3.268,0,0,0-3.258,3.273v1.129a3.258,3.258,0,0,0,3.258,3.25h36.99a3.269,3.269,0,0,0,3.281-3.25v-1.129a3.279,3.279,0,0,0-3.281-3.273Zm36.99-3.828h-36.99a4.993,4.993,0,0,1-4.984-4.988v-1.125a5,5,0,0,1,4.984-5h36.99a5.008,5.008,0,0,1,5.006,5v1.125A5,5,0,0,1-14737.625,21225.313Zm-36.99-9.387a3.268,3.268,0,0,0-3.258,3.273v1.125a3.262,3.262,0,0,0,3.258,3.258h36.99a3.273,3.273,0,0,0,3.281-3.258v-1.125a3.279,3.279,0,0,0-3.281-3.273Z" transform="translate(14783.803 -21214.199)" fill="#51b05f"/>
</svg>
