<svg id="_7" data-name="7" xmlns="http://www.w3.org/2000/svg" width="42" height="48.307" viewBox="0 0 42 48.307">
  <path id="Path_4170" data-name="Path 4170" d="M14741.548,21849.539a1.072,1.072,0,0,1-.4-.73,1.116,1.116,0,0,1,.233-.8,19.166,19.166,0,0,0-2.912-26.736,18.507,18.507,0,0,0-11.747-4.164c-.292,0-.562.006-.825.02a4.829,4.829,0,0,1-4.246,4.482v.031h-.532a4.84,4.84,0,0,1,0-9.68,4.7,4.7,0,0,1,2.853.965A4.777,4.777,0,0,1,14725,21814a4.7,4.7,0,0,1,.521.961c.4-.021.8-.035,1.2-.035a20.748,20.748,0,0,1,13.1,4.643,21.358,21.358,0,0,1,3.247,29.8,1.08,1.08,0,0,1-.844.41A1.051,1.051,0,0,1,14741.548,21849.539Zm-23.062-32.742a2.629,2.629,0,1,0,2.632-2.656A2.646,2.646,0,0,0,14718.486,21816.8Z" transform="translate(-14705.679 -21811.959)" fill="#51b05f"/>
  <path id="Path_4169" data-name="Path 4169" d="M14740.031,21848.816a4.994,4.994,0,0,1-1.035-1.076,4.781,4.781,0,0,1-.521-.951c-.382.023-.783.047-1.185.047a20.841,20.841,0,0,1-6.932-1.189,21.124,21.124,0,0,1-6.112-3.42l-.072-.057a21.012,21.012,0,0,1-5.336-6.457,21.5,21.5,0,0,1-1.728-15.869,21.11,21.11,0,0,1,3.822-7.475,1.071,1.071,0,0,1,.843-.408,1.035,1.035,0,0,1,.676.24,1.1,1.1,0,0,1,.168,1.533,19.158,19.158,0,0,0,2.913,26.734,18.5,18.5,0,0,0,11.752,4.164c.3,0,.568-.006.813-.02a4.823,4.823,0,0,1,1.418-3.113,4.751,4.751,0,0,1,3.367-1.395,4.838,4.838,0,0,1,0,9.676A4.659,4.659,0,0,1,14740.031,21848.816Zm.221-3.875a2.632,2.632,0,1,0,2.632-2.656A2.65,2.65,0,0,0,14740.252,21844.941Zm-1.608.188v0Z" transform="translate(-14716.319 -21801.475)" fill="#51b05f"/>
  <path id="Path_4168" data-name="Path 4168" d="M14721.324,21830.947l-4.723-4.914a.581.581,0,0,1-.066-.1c-.012-.012-.029-.037-.041-.051h-.029l-.066-.184a.766.766,0,0,1-.055-.229.622.622,0,0,1-.023-.17v-12.244a1.091,1.091,0,0,1,1.082-1.1.877.877,0,0,1,.609.189,1.024,1.024,0,0,1,.473.9v11.8l4.4,4.578a1.114,1.114,0,0,1-.029,1.545,1.079,1.079,0,0,1-.752.307A1.045,1.045,0,0,1,14721.324,21830.947Zm1.314-.75a.7.7,0,0,0-.008-.086.647.647,0,0,1,0,.086Z" transform="translate(-14696.41 -21801.143)" fill="#51b05f"/>
</svg>
